<?xml version="1.0" standalone="no"?>
<!DOCTYPE svg PUBLIC "-//W3C//DTD SVG 1.1//EN" "http://www.w3.org/Graphics/SVG/1.1/DTD/svg11.dtd" >
<svg xmlns="http://www.w3.org/2000/svg" xmlns:xlink="http://www.w3.org/1999/xlink" version="1.1">
<metadata>
Created by FontForge 20190801 at Fri May  8 13:27:18 2015
 By root
(URW)++,Copyright 2015 by (URW)++ Design &#38; Development
</metadata>
<defs>
<font id="DaimlerCS-Light" horiz-adv-x="1024" >
  <font-face 
    font-family="Daimler CS Light"
    font-weight="200"
    font-stretch="normal"
    units-per-em="2048"
    panose-1="0 0 0 0 0 0 0 0 0 0"
    ascent="1644"
    descent="-404"
    x-height="969"
    cap-height="1365"
    bbox="-318 -513 2281 2113"
    underline-thickness="100"
    underline-position="-248"
    unicode-range="U+0020-FB04"
  />
<missing-glyph horiz-adv-x="512" 
d="M51 0v1365h410v-1365h-410zM410 51v1263h-308v-1263h308z" />
    <glyph glyph-name="ff" unicode="ff" horiz-adv-x="1103" 
d="M726 969v63q0 111 6 154t27 84q28 55 84.5 86.5t126.5 31.5q61 0 131 -25v-108q-57 36 -122 36q-96 0 -127 -83q-17 -47 -17 -159v-80h246v-89h-238v-880h-117v880h-435v-880h-117v880h-140v89h140v63q0 110 6 154t27 84q28 55 84.5 86.5t126.5 31.5q59 0 131 -25v-108
q-58 36 -122 36q-97 0 -127 -83q-16 -44 -16 -159v-80h442z" />
    <glyph glyph-name="fi" unicode="fi" horiz-adv-x="974" 
d="M284 969h245v-89h-238v-880h-117v880h-140v89h140v63q0 110 6 154t27 84q28 55 84.5 86.5t126.5 31.5q61 0 131 -25v-108q-58 36 -122 36q-97 0 -127 -83q-16 -44 -16 -159v-80zM703 969h117v-969h-117v969zM762 1380q38 0 64 -26t26 -65q0 -38 -25.5 -63.5t-64.5 -25.5
t-65 25t-26 63q0 39 26 65.5t65 26.5z" />
    <glyph glyph-name="fl" unicode="fl" horiz-adv-x="974" 
d="M284 969h245v-89h-238v-880h-117v880h-140v89h140v63q0 110 6 154t27 84q28 55 84.5 86.5t126.5 31.5q61 0 131 -25v-108q-56 36 -122 36q-97 0 -127 -83q-16 -44 -16 -159v-80zM703 1371h117v-1371h-117v1371z" />
    <glyph glyph-name="ffi" unicode="ffi" horiz-adv-x="1526" 
d="M726 969v63q0 111 6 154t27 84q28 55 84.5 86.5t126.5 31.5q61 0 131 -25v-108q-57 36 -122 36q-96 0 -127 -83q-17 -47 -17 -159v-80h246v-89h-238v-880h-117v880h-435v-880h-117v880h-140v89h140v63q0 110 6 154t27 84q28 55 84.5 86.5t126.5 31.5q59 0 131 -25v-108
q-58 36 -122 36q-97 0 -127 -83q-16 -44 -16 -159v-80h442zM1255 969h117v-969h-117v969zM1314 1380q38 0 64 -26t26 -65q0 -38 -25.5 -63.5t-64.5 -25.5t-65 25t-26 63q0 39 26 65.5t65 26.5z" />
    <glyph glyph-name="ffl" unicode="ffl" horiz-adv-x="1526" 
d="M726 969v63q0 111 6 154t27 84q28 55 84.5 86.5t126.5 31.5q61 0 131 -25v-108q-57 36 -122 36q-96 0 -127 -83q-17 -47 -17 -159v-80h246v-89h-238v-880h-117v880h-435v-880h-117v880h-140v89h140v63q0 110 6 154t27 84q28 55 84.5 86.5t126.5 31.5q59 0 131 -25v-108
q-58 36 -122 36q-97 0 -127 -83q-16 -44 -16 -159v-80h442zM1255 1371h117v-1371h-117v1371z" />
    <glyph glyph-name="fft" unicode="fft" horiz-adv-x="1687" 
d="M726 969v63q0 111 6 154t27 84q28 55 84 86.5t127 31.5q59 0 131 -25v-108q-59 36 -122 36q-97 0 -127 -83q-17 -47 -17 -159v-80h444l5 280h106l-5 -280h242l-1 -89h-243l-9 -530q-2 -93 -2 -109q0 -106 22 -133q28 -34 90 -34q66 0 139 33l-1 -100q-77 -26 -156 -26
q-110 0 -158 45.5t-48 148.5l6 180l11 525h-434v-880h-117v880h-435v-880h-117v880h-140v89h140v63q0 110 6 154t27 84q28 55 84.5 86.5t126.5 31.5q59 0 131 -25v-108q-58 36 -122 36q-97 0 -127 -83q-16 -44 -16 -159v-80h442z" />
    <glyph glyph-name="ft" unicode="ft" horiz-adv-x="1135" 
d="M727 969l5 280h106l-5 -280h242l-1 -89h-243l-9 -530q-2 -93 -2 -109q0 -106 22 -133q28 -34 90 -34q66 0 139 33l-1 -100q-77 -26 -156 -26q-110 0 -158 45.5t-48 148.5l6 180l11 525h-434v-880h-117v880h-140v89h140v63q0 110 6 154t27 84q28 55 84.5 86.5t126.5 31.5
q59 0 131 -25v-108q-58 36 -122 36q-97 0 -127 -83q-16 -44 -16 -159v-80h443z" />
    <glyph glyph-name=".notdef" horiz-adv-x="512" 
d="M51 0v1365h410v-1365h-410zM410 51v1263h-308v-1263h308z" />
    <glyph glyph-name="space" unicode=" " horiz-adv-x="512" 
 />
    <glyph glyph-name="exclam" unicode="!" horiz-adv-x="508" 
d="M195 1343h118l-23 -982h-82zM254 186q43 0 74 -31t31 -74t-31 -73.5t-75 -30.5q-43 0 -74 30.5t-31 73.5q0 44 31 74.5t75 30.5z" />
    <glyph glyph-name="quotedbl" unicode="&#x22;" horiz-adv-x="619" 
d="M224 818h-90l-16 547h122zM486 818h-90l-15 547h121z" />
    <glyph glyph-name="numbersign" unicode="#" horiz-adv-x="1229" 
d="M1099 537l-15 -94h-233l-70 -443h-106l70 443h-323l-70 -443h-106l70 443h-233l15 94h233l50 316h-233l15 94h233l66 418h106l-66 -418h323l66 418h106l-66 -418h233l-15 -94h-233l-50 -316h233zM810 853h-323l-50 -316h323z" />
    <glyph glyph-name="dollar" unicode="$" horiz-adv-x="1065" 
d="M566 1282v-521q172 -66 235 -108q163 -108 163 -298q0 -159 -108.5 -261.5t-289.5 -114.5v-138h-68v137q-176 11 -276 98q-117 105 -125 294h115q10 -131 82 -203t204 -84v575l-13 5q-136 53 -170 71q-111 59 -153 146q-32 66 -32 147q0 132 81 226q102 120 287 133v127
h68v-126q135 -9 224 -71q111 -77 127 -226h-123q-11 91 -80 141q-58 43 -148 51zM498 1282q-100 -11 -159 -56q-93 -70 -93 -189q0 -122 110 -188q33 -19 142 -62v495zM566 84q112 10 182 64q94 72 94 193q0 133 -103 210q-43 31 -173 82v-549z" />
    <glyph glyph-name="percent" unicode="%" horiz-adv-x="1077" 
d="M892 1365h99l-806 -1365h-98zM785 644q107 0 177 -94q72 -95 72 -234q0 -154 -86 -250q-68 -77 -165 -77q-105 0 -175 93q-72 96 -72 234q0 155 85 251q69 77 164 77zM785 553q-63 0 -104.5 -67.5t-41.5 -169.5q0 -105 44 -172q42 -64 101 -64q64 0 106 67t42 169
t-41.5 169.5t-105.5 67.5zM292 1376q107 0 177 -93q72 -95 72 -235q0 -155 -85 -250q-69 -77 -166 -77q-104 0 -175 93q-72 95 -72 234q0 156 85 251q69 77 164 77zM292 1285q-63 0 -104.5 -67.5t-41.5 -169.5q0 -104 44 -172q41 -64 100 -64q64 0 106 67t42 169
t-41.5 169.5t-104.5 67.5z" />
    <glyph glyph-name="ampersand" unicode="&#x26;" horiz-adv-x="1221" 
d="M900 611h97q1 -134 -17.5 -216t-65.5 -158l175 -237h-134l-106 142q-136 -152 -348 -152q-178 0 -286 94q-115 100 -115 263q0 120 61.5 210.5t223.5 208.5q-107 139 -135.5 196.5t-28.5 129.5q0 114 80 187q79 72 207 72q109 0 178 -54q83 -66 83 -191q0 -97 -52 -178.5
t-178 -181.5l307 -417q49 94 54 282zM475 832q100 77 142.5 141t42.5 137q0 65 -44 106.5t-113 41.5q-74 0 -123 -44t-49 -111q0 -72 57 -152zM450 678q-103 -75 -147 -121q-86 -89 -86 -208q0 -108 76 -182q84 -84 214 -84q166 0 279 145z" />
    <glyph glyph-name="quotesingle" unicode="'" horiz-adv-x="512" 
d="M301 818h-90l-16 547h122z" />
    <glyph glyph-name="parenleft" unicode="(" horiz-adv-x="558" 
d="M405 1377h85q-220 -305 -220 -894q0 -352 84 -619q50 -161 136 -273h-85q-93 103 -144 244q-104 281 -104 648q0 603 248 894z" />
    <glyph glyph-name="parenright" unicode=")" horiz-adv-x="558" 
d="M153 -409h-85q108 141 164 368.5t56 523.5q0 588 -220 894h85q248 -291 248 -894q0 -298 -64 -528t-184 -364z" />
    <glyph glyph-name="asterisk" unicode="*" 
d="M466 1077v254h92v-254l242 78l28 -88l-242 -78l150 -206l-75 -54l-149 206l-149 -206l-75 54l150 206l-242 79l28 87z" />
    <glyph glyph-name="plus" unicode="+" horiz-adv-x="1065" 
d="M575 728h379v-78h-379v-394h-83v394h-380v78h380v393h83v-393z" />
    <glyph glyph-name="comma" unicode="," horiz-adv-x="480" 
d="M208 -244h-129q136 128 160 241q-13 -2 -20 -2q-39 0 -68 30.5t-29 71.5q0 46 32.5 77.5t78.5 31.5q54 0 87 -38.5t33 -99.5q0 -143 -145 -312z" />
    <glyph glyph-name="hyphen" unicode="-" horiz-adv-x="571" 
d="M0 560h571v-89h-571v89z" />
    <glyph glyph-name="period" unicode="." horiz-adv-x="526" 
d="M263 186q43 0 74 -31t31 -74t-31 -73.5t-75 -30.5q-43 0 -74 30.5t-31 73.5q0 44 31 74.5t75 30.5z" />
    <glyph glyph-name="slash" unicode="/" horiz-adv-x="1177" 
d="M134 -273l782 1638h127l-782 -1638h-127z" />
    <glyph glyph-name="zero" unicode="0" horiz-adv-x="1065" 
d="M538 1348q108 0 197 -62q115 -80 173 -273q46 -153 46 -348q0 -350 -144 -548q-98 -134 -277 -134t-277 134q-144 198 -144 544q0 360 144 553q101 134 282 134zM537 1250q-148 0 -218 -133q-89 -170 -89 -455q0 -277 89 -448q70 -133 214 -133q145 0 214 133
q89 172 89 451q0 286 -89 452q-72 133 -210 133z" />
    <glyph glyph-name="one" unicode="1" horiz-adv-x="1065" 
d="M249 1066v82q123 7 184 48q63 42 88 147h79v-1343h-109v1066h-242z" />
    <glyph glyph-name="two" unicode="2" horiz-adv-x="1065" 
d="M290 943h-110q3 177 75 272q102 133 305 133q138 0 231 -68q119 -87 119 -244q0 -114 -89 -254q-20 -31 -319 -434l-138 -185l-46 -63h616l-1 -100h-755l-1 87l42 56l121 165l140 190q204 277 240 331q72 108 72 206q0 102 -72 159q-66 52 -166 52q-247 0 -264 -303z" />
    <glyph glyph-name="three" unicode="3" horiz-adv-x="1065" 
d="M268 995h-106q9 153 82 236q104 117 285 117q186 0 285 -115q72 -84 72 -208q0 -205 -196 -296q246 -88 246 -340q0 -185 -112.5 -296t-299.5 -111q-248 0 -349 166q-53 88 -53 202q0 7 1 23h103q4 -124 58 -192q77 -96 232 -96q144 0 224 81q77 78 77 215
q0 195 -163 261q-58 24 -147 24q-25 0 -55 -3v108q39 -4 55 -4q96 0 164 47q96 66 96 203q0 97 -56 158q-65 71 -187 71q-222 0 -256 -251z" />
    <glyph glyph-name="four" unicode="4" horiz-adv-x="1065" 
d="M743 442h230v-104h-227v-349h-115v349h-545v86l551 919h106v-901zM634 442l4 736l-437 -736h433z" />
    <glyph glyph-name="five" unicode="5" horiz-adv-x="1065" 
d="M281 1331h592l-18 -100h-477l-58 -434q92 106 239 106q168 0 271 -111q111 -120 111 -327q0 -164 -78 -293q-114 -189 -337 -189q-152 0 -248.5 86.5t-107.5 233.5h106q18 -107 82.5 -164.5t165.5 -57.5q141 0 219 108q81 113 81 273q0 152 -74 244.5t-197 92.5
q-166 0 -248 -157l-106 9z" />
    <glyph glyph-name="six" unicode="6" horiz-adv-x="1065" 
d="M678 1365h127q-232 -250 -395 -524q82 47 170 47q133 0 234 -100q129 -128 129 -346q0 -226 -130 -357q-100 -102 -251 -102q-148 0 -249 96q-137 130 -137 360q0 397 502 926zM563 790q-113 0 -180 -80q-89 -105 -89 -276q0 -167 89 -273q67 -80 177 -80q109 0 176 80
q89 106 89 274q0 171 -89 275q-68 80 -173 80z" />
    <glyph glyph-name="seven" unicode="7" horiz-adv-x="1065" 
d="M208 1331h805v-100l-658 -1231h-128l660 1226h-679v105z" />
    <glyph glyph-name="eight" unicode="8" horiz-adv-x="1065" 
d="M348 700q-52 26 -83 59q-81 90 -81 233q0 162 111 264q100 92 238 92t238 -92q111 -102 111 -264q0 -211 -164 -292q202 -107 202 -342q0 -171 -115 -276q-108 -99 -272 -99t-272 99q-115 105 -115 277q0 233 202 341zM536 1250q-97 0 -161 -62q-73 -70 -73 -193
q0 -120 73 -191q64 -62 158 -62t158 62q73 71 73 192q0 124 -73 192q-65 62 -155 62zM536 648q-121 0 -196 -77q-75 -78 -75 -207t75 -206t193 -77t193 77t75 206q0 131 -75 207q-76 77 -190 77z" />
    <glyph glyph-name="nine" unicode="9" horiz-adv-x="1065" 
d="M387 -34h-128q231 248 396 524q-83 -47 -171 -47q-133 0 -233 100q-129 129 -129 346q0 226 129 357q101 102 252 102q147 0 248 -96q138 -131 138 -360q0 -399 -502 -926zM505 1250q-109 0 -176 -80q-89 -105 -89 -274t89 -275q67 -80 173 -80q113 0 180 80
q89 106 89 276q0 168 -89 273q-67 80 -177 80z" />
    <glyph glyph-name="colon" unicode=":" horiz-adv-x="526" 
d="M263 186q43 0 74 -31t31 -74t-31 -73.5t-75 -30.5q-43 0 -74 30.5t-31 73.5q0 44 31 74.5t75 30.5zM263 967q43 0 74 -31t31 -74t-31 -73.5t-75 -30.5q-43 0 -74 30.5t-31 73.5q0 44 31 74.5t75 30.5z" />
    <glyph glyph-name="semicolon" unicode=";" horiz-adv-x="480" 
d="M229 967q43 0 74 -31t31 -74t-31 -73.5t-75 -30.5q-43 0 -74 30.5t-31 73.5q0 44 31 74.5t75 30.5zM208 -244h-129q136 128 160 241q-13 -2 -20 -2q-39 0 -68 30.5t-29 71.5q0 46 32.5 77.5t78.5 31.5q54 0 87 -38.5t33 -99.5q0 -143 -145 -312z" />
    <glyph glyph-name="less" unicode="&#x3c;" 
d="M955 1136v-106l-772 -343l772 -343v-106l-887 402v94z" />
    <glyph glyph-name="equal" unicode="=" horiz-adv-x="1065" 
d="M112 855h842v-83h-842v83zM112 605h842v-83h-842v83z" />
    <glyph glyph-name="greater" unicode="&#x3e;" 
d="M69 237v107l772 343l-772 343v106l887 -402v-95z" />
    <glyph glyph-name="question" unicode="?" horiz-adv-x="840" 
d="M370 186q43 0 74 -31t31 -74t-31 -73.5t-75 -30.5t-75 30.5t-31 73.5q0 44 31 74.5t76 30.5zM427 368h-111l-1 24v101q0 114 14 160q11 39 36.5 73t94.5 104q80 80 109.5 131.5t29.5 109.5q0 79 -49 123.5t-136 44.5q-100 0 -152 -49t-65 -156h-102q6 132 70 208
q88 106 255 106q128 0 206 -63q96 -78 96 -219q0 -80 -36 -142t-141 -163q-86 -82 -102.5 -126.5t-16.5 -192.5q0 -33 1 -74z" />
    <glyph glyph-name="at" unicode="@" horiz-adv-x="1502" 
d="M1029 1012h85l-86 -445q-13 -65 -13 -99q0 -47 23.5 -75t63.5 -28q75 0 138 80q106 135 106 334q0 249 -165 395q-72 64 -178 100.5t-220 36.5q-178 0 -326 -86q-150 -88 -228 -249q-67 -136 -67 -294q0 -176 82 -326q165 -301 564 -301q228 0 445 105l26 -76
q-221 -108 -472 -108q-339 0 -537 200q-92 93 -145 227q-54 137 -54 282q0 205 102 375q102 169 282 256q151 73 330 73q272 0 449 -155q98 -85 150 -211q47 -113 47 -241q0 -241 -145 -398q-84 -92 -188 -92q-65 0 -104.5 39t-43.5 106q-96 -151 -256 -151q-131 0 -213 100
q-75 91 -75 233q0 174 108 301q101 118 252 118q175 0 234 -174zM768 952q-121 0 -196 -111q-67 -99 -67 -223q0 -104 46 -173q53 -77 156 -77q128 0 201 129q24 42 39.5 108t15.5 123q0 102 -48 160q-53 64 -147 64z" />
    <glyph glyph-name="A" unicode="A" horiz-adv-x="1134" 
d="M522 1377h90l473 -1377h-122l-134 388h-524l-135 -388h-121zM795 490l-228 720l-229 -720h457z" />
    <glyph glyph-name="B" unicode="B" horiz-adv-x="1099" 
d="M180 1365h210q143 0 212.5 -6.5t127.5 -26.5q107 -36 163 -126q47 -75 47 -180q0 -230 -227 -300q104 -26 164 -68q134 -95 134 -282q0 -178 -113 -280q-65 -59 -164.5 -77.5t-343.5 -18.5h-210v1365zM296 765h134q110 0 172 11t109 38q107 63 107 210q0 78 -36 134
t-100 80q-71 25 -257 25h-129v-498zM296 102h143q129 0 197 8t118 30q60 25 94.5 90t34.5 153q0 122 -74 195q-50 50 -126 67.5t-246 17.5h-141v-561z" />
    <glyph glyph-name="C" unicode="C" horiz-adv-x="1233" 
d="M1108 1009h-114q-67 274 -332 274q-186 0 -297 -150q-122 -167 -122 -450q0 -307 145 -481q101 -120 276 -120q202 0 294 164q48 84 61 203h114q-17 -173 -91 -283q-126 -189 -371 -189q-249 0 -396 179q-159 193 -159 524q0 372 193 565q142 143 354 143q222 0 347 -146
q77 -90 98 -233z" />
    <glyph glyph-name="D" unicode="D" horiz-adv-x="1270" 
d="M180 1365h173q186 0 274 -11q267 -32 408 -245q119 -180 119 -425q0 -278 -144 -462q-148 -187 -391 -212q-93 -10 -274 -10h-165v1365zM296 102h93q153 0 220 8q138 17 243 108q175 153 175 463q0 274 -137 431q-104 119 -271 141q-78 10 -259 10h-64v-1161z" />
    <glyph glyph-name="E" unicode="E" horiz-adv-x="1004" 
d="M296 758h558v-102h-558v-554h608v-102h-724v1365h715v-102h-599v-505z" />
    <glyph glyph-name="F" unicode="F" horiz-adv-x="977" 
d="M296 758h558v-102h-558v-656h-116v1365h715v-102h-599v-505z" />
    <glyph glyph-name="G" unicode="G" horiz-adv-x="1260" 
d="M734 669h392v-559q-184 -133 -432 -133q-255 0 -396 153q-182 198 -182 554q0 352 173 543q66 73 162 115q103 46 222 46q181 0 294.5 -98.5t140.5 -279.5h-114q-34 128 -92 185q-90 88 -233 88q-183 0 -288 -128q-138 -168 -138 -471q0 -337 165 -499q105 -103 285 -103
q161 0 321 88v388l-280 -1v112z" />
    <glyph glyph-name="H" unicode="H" horiz-adv-x="1267" 
d="M296 763h676v602h116v-1365h-116v666h-676v-666h-116v1365h116v-602z" />
    <glyph glyph-name="I" unicode="I" horiz-adv-x="476" 
d="M299 0h-122v1365h122v-1365z" />
    <glyph glyph-name="J" unicode="J" horiz-adv-x="557" 
d="M258 1365h122v-1089q0 -128 -5 -174t-23 -87q-35 -77 -117.5 -120t-195.5 -43q-12 0 -41 1v103q14 -1 20 -1q144 0 201 77q25 33 32 76.5t7 169.5v1087z" />
    <glyph glyph-name="K" unicode="K" horiz-adv-x="1099" 
d="M870 1365h147l-573 -650l633 -715h-169l-609 713zM180 1365h116v-1365h-116v1365z" />
    <glyph glyph-name="L" unicode="L" horiz-adv-x="946" 
d="M180 1365h122v-1263h581v-102h-703v1365z" />
    <glyph glyph-name="M" unicode="M" horiz-adv-x="1560" 
d="M180 1365h188l412 -1234l412 1234h188v-1365h-116v1259l-425 -1259h-117l-426 1259v-1259h-116v1365z" />
    <glyph glyph-name="N" unicode="N" horiz-adv-x="1285" 
d="M180 1365h129l688 -1195v1195h108v-1365h-135l-680 1191v-1191h-110v1365z" />
    <glyph glyph-name="O" unicode="O" horiz-adv-x="1305" 
d="M653 1388q154 0 278 -90q136 -99 204 -287q54 -148 54 -328q0 -312 -156 -516q-75 -98 -184 -148q-91 -42 -195 -42q-238 0 -382 190q-156 204 -156 525q0 204 74 369q79 178 224 263q108 64 239 64zM653 1283q-183 0 -293 -166q-117 -177 -117 -427q0 -264 117 -442
q110 -166 293 -166t292 166q117 179 117 435q0 260 -117 434q-112 166 -292 166z" />
    <glyph glyph-name="P" unicode="P" horiz-adv-x="1050" 
d="M180 1365h194q266 0 372 -35q118 -39 185 -151q53 -89 53 -215q0 -155 -82 -253q-89 -108 -255 -127q-87 -10 -245 -10h-106v-574h-116v1365zM296 676h102q173 0 258 18q200 41 200 272q0 97 -41 167t-114 98q-54 20 -113 26t-217 6h-75v-587z" />
    <glyph glyph-name="Q" unicode="Q" horiz-adv-x="1319" 
d="M1091 256l262 -279h-145l-180 183q-150 -183 -376 -183q-155 0 -278 90q-135 99 -204 287q-54 148 -54 329q0 312 156 515q145 190 381 190q235 0 380 -190q156 -204 156 -514q0 -244 -98 -428zM653 1283q-183 0 -293 -166q-117 -177 -117 -427q0 -264 117 -442
q110 -166 293 -166t292 166q117 179 117 435q0 260 -117 434q-112 166 -292 166z" />
    <glyph glyph-name="R" unicode="R" horiz-adv-x="1130" 
d="M180 1365h207q158 0 227 -6.5t137 -29.5q114 -37 176 -138q53 -84 53 -200q0 -271 -294 -368l375 -623h-145l-367 606h-253v-606h-116v1365zM296 708h96q134 0 188.5 5t105.5 23q79 27 122.5 94t43.5 162q0 88 -37.5 150.5t-105.5 89.5q-49 19 -108.5 25t-205.5 6h-99
v-555z" />
    <glyph glyph-name="S" unicode="S" horiz-adv-x="1109" 
d="M940 1028h-114q-12 112 -69 173q-76 82 -211 82q-107 0 -178 -55q-88 -67 -88 -171q0 -97 86 -159q34 -25 65 -41t184 -87q222 -103 287 -185q78 -96 78 -229q0 -189 -148 -296q-115 -83 -283 -83q-225 0 -341 142q-82 100 -92 281h116q7 -136 69 -212q41 -50 108 -78
t145 -28q132 0 218 74t86 193q0 107 -78 179q-53 49 -204 119q-220 102 -279 144q-136 98 -136 258q0 155 122 252q109 87 271 87q174 0 275.5 -94.5t110.5 -265.5z" />
    <glyph glyph-name="T" unicode="T" horiz-adv-x="921" 
d="M49 1365h824v-102h-354v-1263h-116v1263h-354v102z" />
    <glyph glyph-name="U" unicode="U" horiz-adv-x="1246" 
d="M159 1365h116v-810q1 -155 6 -200q11 -111 64 -170q42 -48 116 -75.5t161 -27.5q119 0 209 49q63 33 94 85.5t40 138.5q4 45 5 200v810h116v-812q0 -168 -4 -218t-23 -103q-43 -121 -156 -188q-114 -67 -281 -67q-194 0 -315 91q-82 61 -115 146.5t-33 238.5v100v812z
" />
    <glyph glyph-name="V" unicode="V" horiz-adv-x="1117" 
d="M32 1365h123l409 -1227l402 1227h120l-469 -1376h-115z" />
    <glyph glyph-name="W" unicode="W" horiz-adv-x="1528" 
d="M43 1365h112l266 -1196l293 1196h101l294 -1196l268 1196h112l-319 -1376h-120l-285 1126l-286 -1126h-120z" />
    <glyph glyph-name="X" unicode="X" horiz-adv-x="1083" 
d="M68 1365h136l340 -557l340 557h136l-409 -649l429 -716h-132l-364 604l-363 -604h-133l429 716z" />
    <glyph glyph-name="Y" unicode="Y" horiz-adv-x="1014" 
d="M32 1365h137l340 -669l336 669h137l-420 -780l3 -585h-116l3 585z" />
    <glyph glyph-name="Z" unicode="Z" horiz-adv-x="1003" 
d="M106 1365h826v-79l-727 -1184h716v-102h-853v90l720 1173h-682v102z" />
    <glyph glyph-name="bracketleft" unicode="[" horiz-adv-x="557" 
d="M200 1365h272v-91h-165v-1581h165v-91h-272v1763z" />
    <glyph glyph-name="backslash" unicode="\" horiz-adv-x="1177" 
d="M1043 -273h-127l-782 1638h127z" />
    <glyph glyph-name="bracketright" unicode="]" horiz-adv-x="557" 
d="M358 -398h-272v91h165v1581h-165v91h272v-1763z" />
    <glyph glyph-name="asciicircum" unicode="^" 
d="M185 771h-118l375 597h140l374 -597h-119l-327 513z" />
    <glyph glyph-name="underscore" unicode="_" 
d="M0 -148h1024v-100h-1024v100z" />
    <glyph glyph-name="grave" unicode="`" 
d="M619 1144h-96l-270 263h170z" />
    <glyph glyph-name="a" unicode="a" horiz-adv-x="949" 
d="M244 727h-111q13 115 82 182q90 87 263 87q145 0 233 -69q53 -42 69 -99.5t16 -204.5v-355l-1 -78q0 -110 26 -190h-106q-18 59 -25 137q-89 -161 -286 -161q-126 0 -207 65q-97 77 -97 213q0 207 228 291q140 52 362 86v51q0 108 -37 152q-53 65 -178 65
q-201 0 -231 -172zM690 546q-215 -42 -318 -87q-160 -69 -160 -201q0 -83 55.5 -134t144.5 -51q156 0 231 123q47 75 47 240v110z" />
    <glyph glyph-name="b" unicode="b" horiz-adv-x="1012" 
d="M154 1371h106v-548q103 173 282 173q146 0 242 -107q129 -143 129 -400q0 -285 -156 -428q-93 -85 -226 -85q-91 0 -155 38t-116 125q1 -19 1 -28q0 -56 -18 -111h-109q20 67 20 280v1091zM544 899q-121 0 -197 -101q-89 -117 -89 -319q0 -191 92 -314q68 -92 182 -92
q103 0 165 73q105 122 105 342q0 209 -89 326q-65 85 -169 85z" />
    <glyph glyph-name="c" unicode="c" horiz-adv-x="955" 
d="M845 656h-106q-14 96 -58 155q-64 88 -180 88q-122 0 -194 -93q-95 -123 -95 -322q0 -215 107 -333q72 -78 187 -78q103 0 165 66t74 189h110q-14 -147 -84 -235q-91 -117 -260 -117q-161 0 -270 105q-141 137 -141 401q0 278 156 421q101 93 248 93t236.5 -89
t104.5 -251z" />
    <glyph glyph-name="d" unicode="d" horiz-adv-x="1012" 
d="M858 1371v-1091q0 -215 20 -280h-109q-18 56 -18 111q0 8 1 28q-52 -87 -115.5 -125t-155.5 -38q-159 0 -257 110q-125 141 -125 390q0 247 116 397q94 123 256 123q193 0 281 -173v548h106zM486 899q-120 0 -185 -87q-91 -123 -91 -330q0 -202 91 -323q65 -86 181 -86
t181 86q91 122 91 325q0 207 -91 328q-66 87 -177 87z" />
    <glyph glyph-name="e" unicode="e" horiz-adv-x="975" 
d="M874 472h-662q4 -174 62 -271q77 -129 233 -129q84 0 138.5 36.5t100.5 123.5l103 -19q-90 -237 -341 -237q-186 0 -295 128q-113 131 -113 369q0 276 142 420q101 103 255 103q202 0 306 -176q71 -122 71 -310v-38zM760 561q-8 116 -48 197q-72 141 -219 141
q-115 0 -187.5 -88.5t-89.5 -249.5h544z" />
    <glyph glyph-name="f" unicode="f" horiz-adv-x="552" 
d="M284 969h245v-89h-238v-880h-117v880h-140v89h140v63q0 114 7 159t30 87q29 51 84.5 80.5t122.5 29.5q59 0 131 -25v-108q-56 36 -123 36q-95 0 -126 -83q-16 -41 -16 -159v-80z" />
    <glyph glyph-name="g" unicode="g" horiz-adv-x="958" 
d="M911 969v-85l-199 5q96 -83 96 -237q0 -143 -87 -218q-33 -28 -75 -44.5t-157 -46.5q-110 -30 -155.5 -56.5t-45.5 -62.5q0 -31 33.5 -43t154.5 -23q145 -14 202.5 -26t105.5 -37q130 -70 130 -223q0 -145 -129 -223q-114 -69 -298 -69q-198 0 -318 86q-102 72 -102 194
q0 88 49.5 146t158.5 96q-103 39 -103 112q0 49 39.5 84.5t134.5 71.5q-203 73 -203 281q0 170 122 262q87 65 219 65q69 0 140 -19zM485 889q-93 0 -157 -57q-73 -65 -73 -177q0 -101 62 -159q63 -59 160 -59q100 0 160 59.5t60 158.5q0 94 -53 158q-61 76 -159 76zM487 46
q-139 0 -219 -40q-98 -50 -98 -142q0 -85 87 -135.5t232 -50.5q183 0 265 72q54 47 54 115q0 88 -82 134.5t-239 46.5z" />
    <glyph glyph-name="h" unicode="h" horiz-adv-x="992" 
d="M154 1371h106v-517q56 75 121.5 108.5t157.5 33.5q179 0 259 -124q28 -44 37 -104.5t9 -211.5v-556h-106v563q0 113 -5.5 158t-22.5 79q-52 99 -182 99q-144 0 -218 -119q-50 -81 -50 -235v-545h-106v1371z" />
    <glyph glyph-name="i" unicode="i" horiz-adv-x="424" 
d="M154 969h117v-969h-117v969zM213 1380q38 0 64 -26t26 -65q0 -38 -25.5 -63.5t-64.5 -25.5t-65 25t-26 63q0 39 26 65.5t65 26.5z" />
    <glyph glyph-name="j" unicode="j" horiz-adv-x="501" 
d="M230 969h117v-903q0 -146 -9 -210.5t-36 -112.5q-74 -130 -292 -130q-20 0 -58 1v97q19 -2 38 -2q153 0 204 82q22 35 29 90t7 185v903zM288 1380q38 0 64 -26t26 -65q0 -38 -25.5 -63.5t-64.5 -25.5t-65 25t-26 63q0 39 26 65.5t65 26.5z" />
    <glyph glyph-name="k" unicode="k" horiz-adv-x="949" 
d="M690 969h131l-418 -432l448 -537h-151l-436 532zM154 1371h106v-1371h-106v1371z" />
    <glyph glyph-name="l" unicode="l" horiz-adv-x="424" 
d="M154 1371h117v-1371h-117v1371z" />
    <glyph glyph-name="m" unicode="m" horiz-adv-x="1518" 
d="M131 969h104q17 -53 19 -135q81 162 276 162q104 0 166.5 -41t98.5 -131q85 172 294 172q173 0 243 -117q24 -41 31 -90.5t7 -184.5v-604h-106v605q0 103 -5 140t-23 70q-46 84 -172 84q-142 0 -208 -114q-39 -68 -39 -203v-582h-109v582q0 170 -20 217q-43 100 -176 100
q-135 0 -204 -104q-48 -74 -48 -221v-574h-106v646v50q-1 135 -4.5 175.5t-18.5 97.5z" />
    <glyph glyph-name="n" unicode="n" horiz-adv-x="1005" 
d="M131 969h103q19 -55 20 -146q96 173 298 173q105 0 178.5 -43t101.5 -121q17 -46 21 -89t4 -187v-556h-106v563q0 115 -5 158t-21 79q-47 100 -182 100q-147 0 -228 -119q-55 -82 -55 -225v-556h-106v645q0 176 -3 218t-20 106z" />
    <glyph glyph-name="o" unicode="o" horiz-adv-x="1010" 
d="M505 996q168 0 277 -122q128 -145 128 -389q0 -243 -128 -388q-108 -121 -276 -121q-170 0 -278 121q-128 145 -128 395q0 238 128 382q110 122 277 122zM506 899q-126 0 -202 -99q-92 -121 -92 -310q0 -199 92 -319q76 -98 202 -98t201 98q92 120 92 314q0 196 -92 315
q-77 99 -201 99z" />
    <glyph glyph-name="p" unicode="p" horiz-adv-x="1012" 
d="M154 -404v1091q0 214 -20 282h110q15 -48 18 -151q41 76 86 113q79 66 193 66q144 0 237 -104q135 -150 135 -413q0 -258 -126 -402q-89 -102 -238 -102q-186 0 -286 165v-545h-109zM539 901q-116 0 -187 -95q-94 -126 -94 -320q0 -195 88 -313q76 -100 193 -100
q116 0 176 82q87 118 87 324q0 216 -94 339q-63 83 -169 83z" />
    <glyph glyph-name="q" unicode="q" horiz-adv-x="1012" 
d="M749 -404v545q-101 -165 -276 -165q-148 0 -245 105q-129 138 -129 392q0 265 139 417q96 106 241 106q96 0 159.5 -41t111.5 -135q1 94 18 149h110q-20 -66 -20 -282v-1091h-109zM480 899q-110 0 -176 -90q-94 -128 -94 -336q0 -202 88 -317q64 -83 171 -83
q120 0 196 100q89 116 89 312q0 197 -91 321q-69 93 -183 93z" />
    <glyph glyph-name="r" unicode="r" horiz-adv-x="635" 
d="M139 969h101q17 -77 17 -148q0 -20 -3 -62q51 124 109 180.5t135 56.5q66 0 130 -34v-106q-81 36 -125 36q-55 0 -106.5 -43t-86.5 -118q-47 -102 -47 -302v-428l-109 -1v623q-1 241 -15 346z" />
    <glyph glyph-name="s" unicode="s" horiz-adv-x="865" 
d="M757 711h-104q-10 92 -54 134q-55 54 -159 54q-91 0 -146.5 -44.5t-55.5 -117.5q0 -63 45 -98t177 -75q118 -35 172.5 -60t85.5 -59q59 -63 59 -172q0 -128 -82 -207q-91 -90 -255 -90q-166 0 -255.5 82t-89.5 234l105 -1q20 -218 240 -218q96 0 157 47q67 51 67 143
q0 83 -60 125q-24 18 -55.5 29.5t-165.5 53.5q-147 45 -200 105q-56 64 -56 158q0 130 102 200q89 62 213 62q147 0 228 -73.5t87 -211.5z" />
    <glyph glyph-name="t" unicode="t" horiz-adv-x="612" 
d="M310 969h242l-1 -89h-243l-9 -530q-2 -93 -2 -109q0 -106 22 -133q28 -34 90 -34q66 0 140 33l-2 -100q-76 -26 -156 -26q-110 0 -158 45.5t-48 148.5l6 180l12 525h-146l2 89h145l5 280h106z" />
    <glyph glyph-name="u" unicode="u" horiz-adv-x="979" 
d="M149 969h106v-605q0 -153 33 -206q54 -85 177 -85q136 0 209 115q46 72 46 223v558h106v-675q0 -169 3 -207t19 -87h-107q-20 62 -21 138q-42 -86 -101.5 -124t-153.5 -38q-117 0 -197 58q-94 66 -112 184q-7 45 -7 151v600z" />
    <glyph glyph-name="v" unicode="v" horiz-adv-x="835" 
d="M21 969h112l286 -852l286 852h110l-343 -983h-108z" />
    <glyph glyph-name="w" unicode="w" horiz-adv-x="1293" 
d="M32 969h113l217 -796l236 796h97l236 -796l217 796h113l-279 -983h-97l-238 822l-239 -822h-97z" />
    <glyph glyph-name="x" unicode="x" horiz-adv-x="863" 
d="M67 969h123l243 -371l246 371h132l-312 -454l348 -515h-128l-286 428l-289 -428h-128l352 515z" />
    <glyph glyph-name="y" unicode="y" horiz-adv-x="855" 
d="M33 969h115l279 -831l289 831h112l-316 -887q-66 -190 -92 -250t-64 -111q-95 -129 -268 -129q-16 0 -34 1v95q131 0 188 57q34 34 57.5 82t68.5 174z" />
    <glyph glyph-name="z" unicode="z" horiz-adv-x="796" 
d="M84 969h675v-77l-589 -803h572v-89h-698v85l581 795h-541v89z" />
    <glyph glyph-name="braceleft" unicode="{" horiz-adv-x="557" 
d="M200 483q58 -35 79 -73q33 -58 33 -167v-347q0 -129 32 -170q41 -51 157 -52v-84h-21q-148 0 -210 73q-34 40 -47 95t-13 161v324q0 93 -26 138.5t-90 64.5v74q64 20 90 65t26 138v324q0 128 23 192.5t80 99.5t188 37v-83q-114 -2 -151.5 -46t-37.5 -176v-348
q0 -99 -24 -150t-88 -90z" />
    <glyph glyph-name="bar" unicode="|" 
d="M459 1365h106v-1706h-106v1706z" />
    <glyph glyph-name="braceright" unicode="}" horiz-adv-x="557" 
d="M357 483q-58 36 -79 73q-33 58 -33 167v348q0 129 -32 169q-41 51 -157 53v83q84 -1 126.5 -11t77.5 -36q48 -37 67.5 -99.5t19.5 -182.5v-324q0 -93 25.5 -138t90.5 -65v-74q-65 -20 -90.5 -65t-25.5 -138v-324q0 -106 -13 -161t-47 -95q-63 -73 -209 -73h-22v84
q113 1 151 45.5t38 176.5v348q0 98 23.5 149t88.5 90z" />
    <glyph glyph-name="asciitilde" unicode="~" horiz-adv-x="1365" 
d="M260 458l-67 43q37 73 76 120q79 98 194 98q78 0 235 -78q90 -45 129 -58.5t78 -13.5q61 0 105 34t95 120l68 -41q-111 -214 -279 -214q-47 0 -98 18.5t-186 84.5q-96 47 -154 47t-102.5 -36.5t-93.5 -123.5z" />
    <glyph glyph-name="nonbreakingspace" unicode="&#xa0;" horiz-adv-x="512" 
 />
    <glyph glyph-name="exclamdown" unicode="&#xa1;" horiz-adv-x="508" 
d="M313 -398h-118l22 982h83zM254 967q43 0 74 -30.5t31 -73.5q0 -44 -31 -74.5t-75 -30.5q-43 0 -74 31t-31 74t31 73.5t75 30.5z" />
    <glyph glyph-name="cent" unicode="&#xa2;" horiz-adv-x="1065" 
d="M575 1098v-830q196 12 221 258h111q-6 -154 -97.5 -251.5t-234.5 -103.5v-216h-68v219q-90 14 -154 62q-178 135 -178 437q0 307 185 452q59 47 147 66v208h68v-204q141 -5 227 -91q88 -89 93 -250h-109q-9 237 -211 244zM507 1091q-75 -23 -120 -80q-103 -130 -103 -332
q0 -109 32.5 -202t90.5 -151q35 -35 100 -52v817z" />
    <glyph glyph-name="sterling" unicode="&#xa3;" horiz-adv-x="1065" 
d="M455 743h303v-100h-318q-68 -404 -145 -550q89 14 194 14q30 0 76 -1q90 -1 107 -1q73 0 105 8t55 32q39 39 43 123h107q0 -132 -77 -204q-43 -41 -95.5 -52.5t-192.5 -11.5h-471q90 154 177 643h-207v100h225q40 264 71 391q36 148 105 203q65 51 161 51q149 0 203 -104
q24 -46 29 -151h-108q-6 81 -24 107q-31 47 -102 47q-68 0 -101 -41.5t-59 -159.5q-21 -95 -61 -343z" />
    <glyph glyph-name="currency" unicode="&#xa4;" horiz-adv-x="1365" 
d="M136 243l185 189q-107 136 -107 294q0 151 107 291l-191 189l66 66l188 -188q142 110 299 110q158 0 296 -110l190 188l65 -66l-189 -187q107 -139 107 -295t-106 -292l190 -189l-65 -66l-190 189q-138 -107 -295 -107q-151 0 -298 107l-188 -189zM688 1092
q-155 0 -262 -108q-106 -107 -106 -259q0 -150 106 -257q107 -107 257 -107t257 108q106 106 106 256q0 155 -105 259q-109 108 -253 108z" />
    <glyph glyph-name="yen" unicode="&#xa5;" horiz-adv-x="1065" 
d="M747 855h206v-83h-249l-87 -167h336v-83h-354l3 -522h-119l2 522h-374v83h356l-92 167h-264v83h219l-278 510h133l354 -673l348 673h125z" />
    <glyph glyph-name="brokenbar" unicode="&#xa6;" 
d="M459 1365h106v-671h-106v671zM459 314h106v-655h-106v655z" />
    <glyph glyph-name="section" unicode="&#xa7;" 
d="M858 1023h-111q-8 101 -47 155q-57 77 -184 77q-96 0 -157 -49q-68 -56 -68 -149q0 -84 73 -142q32 -25 198 -119q183 -104 240 -157q64 -61 64 -159q0 -83 -42.5 -143t-136.5 -112q75 -59 106.5 -116t31.5 -134q0 -146 -94 -230.5t-257 -84.5q-340 0 -352 336h109
q9 -106 43 -154q62 -89 200 -89q99 0 157 41q86 61 86 178q0 98 -89 164q-45 33 -194 121q-190 113 -235 164q-57 65 -57 149q0 145 191 242q-151 95 -151 240q0 119 86 204q94 92 250 92q154 0 244 -86t96 -239zM419 757q-168 -72 -168 -186q0 -79 103 -146
q113 -75 249 -147q71 30 112 82t41 113q0 78 -69 125q-101 69 -268 159z" />
    <glyph glyph-name="dieresis" unicode="&#xa8;" 
d="M339 1378q40 0 68 -28.5t28 -69.5q0 -40 -28.5 -68.5t-68.5 -28.5q-41 0 -69.5 28.5t-28.5 68.5q0 42 28.5 70t70.5 28zM687 1378q40 0 68 -28.5t28 -69.5q0 -40 -28.5 -68.5t-68.5 -28.5q-41 0 -69.5 28.5t-28.5 68.5q0 41 28.5 69.5t70.5 28.5z" />
    <glyph glyph-name="copyright" unicode="&#xa9;" horiz-adv-x="1643" 
d="M1136 878h-88q-40 161 -203 161q-113 0 -180 -85q-75 -96 -75 -259q0 -161 68.5 -253.5t186.5 -92.5q193 0 218 216h88q-12 -114 -60 -180q-82 -114 -241 -114q-156 0 -255 108q-102 111 -102 314q0 224 124 338q93 86 229 86q122 0 197 -62t93 -177zM830 1391
q189 0 360 -104q170 -105 260 -281q77 -151 77 -320q0 -199 -104 -368q-104 -170 -281 -260q-151 -77 -320 -77q-199 0 -369 104q-169 104 -260 281q-77 151 -77 319q0 200 103 370q102 167 282 259q150 77 329 77zM829 1317q-263 0 -446 -183q-184 -185 -184 -451
q0 -176 92 -329q92 -152 248 -233q133 -69 283 -69q257 0 439 184q88 89 136 207q47 117 47 242q0 178 -92 332q-90 149 -249 232q-131 68 -274 68z" />
    <glyph glyph-name="ordfeminine" unicode="&#xaa;" 
d="M371 1205h-82q18 177 225 177q75 0 127.5 -28t68.5 -77q12 -36 12 -130v-217q0 -118 18 -171h-80q-12 38 -16 71q-42 -52 -77 -68q-44 -20 -100 -20q-84 0 -135 41q-64 50 -64 137q0 99 84.5 152.5t290.5 85.5v34q0 62 -31.5 90.5t-99.5 28.5q-123 0 -141 -106zM643 1093
q-161 -31 -226.5 -68.5t-65.5 -100.5q0 -50 33 -80t88 -30q86 0 128.5 54t42.5 164v61zM241 650h525v-71h-525v71z" />
    <glyph glyph-name="guillemotleft" unicode="&#xab;" horiz-adv-x="707" 
d="M563 0h-69l-172 478l172 489h69l-148 -489zM339 0h-70l-171 478l171 489h70l-148 -489z" />
    <glyph glyph-name="logicalnot" unicode="&#xac;" 
d="M849 0v448h-781v99h887v-547h-106z" />
    <glyph glyph-name="uni00AD" unicode="&#xad;" horiz-adv-x="571" 
d="M0 560h571v-89h-571v89z" />
    <glyph glyph-name="registered" unicode="&#xae;" horiz-adv-x="1643" 
d="M589 1090h139q159 0 232 -22q69 -20 109.5 -75.5t40.5 -130.5q0 -164 -181 -221l239 -370h-111l-231 356h-147v-356h-90v819zM679 704h52q133 0 183 16q99 32 99 143q0 102 -85 133q-48 17 -195 17h-54v-309zM830 1391q189 0 360 -104q170 -105 260 -281q77 -151 77 -320
q0 -199 -104 -368q-104 -170 -281 -260q-151 -77 -320 -77q-199 0 -369 104q-169 104 -260 281q-77 151 -77 319q0 200 103 370q102 167 282 259q150 77 329 77zM829 1317q-263 0 -446 -183q-184 -185 -184 -451q0 -176 92 -329q92 -152 248 -233q133 -69 283 -69
q257 0 439 184q88 89 136 207q47 117 47 242q0 178 -92 332q-90 149 -249 232q-131 68 -274 68z" />
    <glyph glyph-name="macron" unicode="&#xaf;" 
d="M238 1328h548v-95h-548v95z" />
    <glyph glyph-name="degree" unicode="&#xb0;" 
d="M512 1388q116 0 199 -80t83 -194t-82 -195q-83 -81 -199 -81q-118 0 -201 81q-82 81 -82 198q0 112 82 190q85 81 200 81zM512 1313q-84 0 -144 -59q-59 -58 -59 -138q0 -86 59 -144q60 -59 145 -59q83 0 143 59q59 58 59 141q0 84 -59 141q-61 59 -144 59z" />
    <glyph glyph-name="plusminus" unicode="&#xb1;" horiz-adv-x="1065" 
d="M575 728h379v-78h-379v-380h-83v380h-380v78h380v393h83v-393zM112 161h842v-83h-842v83z" />
    <glyph glyph-name="twosuperior" unicode="&#xb2;" horiz-adv-x="705" 
d="M207 1428h-85q4 255 247 255q89 0 150 -41q79 -53 79 -151q0 -70 -57 -154q-12 -17 -202 -255l-87 -109l-18 -24h379v-75h-493v62q24 30 105 132l88 112q145 185 169.5 223.5t24.5 86.5q0 53 -38.5 84.5t-103.5 31.5q-76 0 -114.5 -43t-43.5 -135z" />
    <glyph glyph-name="threesuperior" unicode="&#xb3;" horiz-adv-x="705" 
d="M193 1459h-82q6 101 55 153q67 71 185 71q104 0 168.5 -54.5t64.5 -143.5q0 -118 -110 -174q141 -58 141 -202q0 -111 -73.5 -178.5t-194.5 -67.5q-122 0 -191 60q-70 62 -70 158q0 14 1 28h81q3 -169 175 -169q85 0 133 44t48 122q0 76 -48.5 118t-137.5 42
q-17 0 -44 -4v81q28 -2 43 -2q72 0 114 37.5t42 101.5q0 59 -38.5 92.5t-106.5 33.5q-136 0 -155 -147z" />
    <glyph glyph-name="acute" unicode="&#xb4;" 
d="M458 1144l196 263h170l-270 -263h-96z" />
    <glyph glyph-name="mu" unicode="&#xb5;" 
d="M113 -339v1322h106v-571q0 -114 18 -174.5t66 -106.5q80 -75 199 -75q138 0 223 108q44 56 62.5 118t18.5 153v548h106v-983h-106v197q-42 -96 -91 -143q-88 -82 -217 -82q-93 0 -159 38t-120 122v-471h-106z" />
    <glyph glyph-name="paragraph" unicode="&#xb6;" horiz-adv-x="1134" 
d="M450 -206v846h-33q-116 0 -210 53q-77 44 -122 124q-46 82 -46 181q0 100 46 183t127 128q99 56 306 56h473v-90h-114v-1481h-100v1481h-228v-1481h-99z" />
    <glyph glyph-name="periodcentered" unicode="&#xb7;" horiz-adv-x="526" 
d="M263 616q43 0 74 -31t31 -74t-31 -73.5t-75 -30.5q-43 0 -74 30.5t-31 73.5q0 44 31 74.5t75 30.5z" />
    <glyph glyph-name="cedilla" unicode="&#xb8;" 
d="M484 0h86l-63 -122q172 -21 172 -143q0 -71 -52.5 -114.5t-139.5 -43.5q-73 0 -143 28v71q67 -19 104 -19q51 0 80.5 24.5t29.5 66.5q0 45 -35.5 66t-122.5 26z" />
    <glyph glyph-name="onesuperior" unicode="&#xb9;" horiz-adv-x="705" 
d="M166 1500v64q85 4 121 28t52 87h64v-806h-85v627h-152z" />
    <glyph glyph-name="ordmasculine" unicode="&#xba;" 
d="M513 1382q107 0 179 -77q84 -90 84 -242q0 -154 -84 -245q-71 -77 -183 -77q-105 0 -176 77q-84 92 -84 244q0 153 84 243q72 77 180 77zM513 1310q-82 0 -131.5 -68.5t-49.5 -179.5q0 -119 57 -190q47 -59 121 -59q84 0 133.5 68t49.5 182q0 110 -50 178.5t-130 68.5z
M250 650h525v-71h-525v71z" />
    <glyph glyph-name="guillemotright" unicode="&#xbb;" horiz-adv-x="707" 
d="M144 967h69l172 -478l-172 -489h-69l148 489zM368 967h70l171 -478l-171 -489h-70l148 489z" />
    <glyph glyph-name="onequarter" unicode="&#xbc;" horiz-adv-x="1655" 
d="M166 1159v64q85 4 121 28t52 87h64v-806h-85v627h-152zM1168 1331h100l-783 -1331h-98zM1444 276h145v-77h-144v-206h-89v206h-343v61l351 546h80v-530zM1358 276l2 396l-252 -396h250z" />
    <glyph glyph-name="onehalf" unicode="&#xbd;" horiz-adv-x="1655" 
d="M166 1159v64q85 4 121 28t52 87h64v-806h-85v627h-152zM1168 1331h100l-783 -1331h-98zM1157 554h-85q4 255 248 255q89 0 150 -42q79 -52 79 -150q0 -70 -57 -154q-10 -14 -202 -255l-87 -110l-19 -23h379v-75h-492l-1 62q25 30 105 132l88 112q129 162 151 193
q44 62 44 116q0 53 -39 85t-103 32q-77 0 -115.5 -43t-43.5 -135z" />
    <glyph glyph-name="threequarters" unicode="&#xbe;" horiz-adv-x="1655" 
d="M193 1117h-82q6 101 55 153q67 71 185 71q104 0 168.5 -54.5t64.5 -143.5q0 -118 -110 -173q141 -59 141 -202q0 -110 -73.5 -177.5t-194.5 -67.5q-122 0 -191 60q-70 62 -70 157q0 14 1 28h81q3 -168 175 -168q85 0 133 44t48 121q0 76 -48.5 117.5t-137.5 41.5
q-17 0 -44 -3v81q29 -3 43 -3q72 0 114 37.5t42 100.5q0 60 -38.5 93.5t-106.5 33.5q-136 0 -155 -147zM1168 1331h100l-783 -1331h-98zM1443 276h146v-77h-144v-206h-89v206h-343v61l351 546h79v-530zM1358 276l2 396l-252 -396h250z" />
    <glyph glyph-name="questiondown" unicode="&#xbf;" horiz-adv-x="840" 
d="M472 967q43 0 74 -30.5t31 -73.5q0 -44 -31 -74.5t-75 -30.5q-43 0 -74 31t-31 74t31 73.5t75 30.5zM413 577h112v-24v-103q0 -112 -14 -158q-11 -39 -36.5 -73.5t-93.5 -103.5q-80 -81 -109.5 -132.5t-29.5 -109.5q0 -78 49 -123t135 -45q101 0 153 49t64 156h102
q-5 -130 -70 -208q-87 -106 -254 -106q-129 0 -206 62q-96 78 -96 220q0 80 36 142t141 163q85 83 101.5 127t16.5 192q0 27 -1 75z" />
    <glyph glyph-name="Agrave" unicode="&#xc0;" horiz-adv-x="1134" 
d="M522 1377h90l473 -1377h-122l-134 388h-524l-135 -388h-121zM795 490l-228 720l-229 -720h457zM660 1496h-119l-316 262h170z" />
    <glyph glyph-name="Aacute" unicode="&#xc1;" horiz-adv-x="1134" 
d="M522 1377h90l473 -1377h-122l-134 388h-524l-135 -388h-121zM795 490l-228 720l-229 -720h457zM474 1496l264 262h171l-316 -262h-119z" />
    <glyph glyph-name="Acircumflex" unicode="&#xc2;" horiz-adv-x="1134" 
d="M522 1377h90l473 -1377h-122l-134 388h-524l-135 -388h-121zM795 490l-228 720l-229 -720h457zM231 1496l260 262h152l261 -262h-110l-227 188l-227 -188h-109z" />
    <glyph glyph-name="Atilde" unicode="&#xc3;" horiz-adv-x="1134" 
d="M522 1377h90l473 -1377h-122l-134 388h-524l-135 -388h-121zM795 490l-228 720l-229 -720h457zM326 1514l-79 34q15 64 35 103q47 89 146 89q68 0 156 -58q64 -43 88.5 -54.5t51.5 -11.5q83 0 99 131l78 -35q-8 -66 -29 -105q-22 -42 -63.5 -67.5t-87.5 -25.5
q-38 0 -75 15.5t-102 59.5q-72 48 -115 48q-75 0 -103 -123z" />
    <glyph glyph-name="Adieresis" unicode="&#xc4;" horiz-adv-x="1134" 
d="M522 1377h90l473 -1377h-122l-134 388h-524l-135 -388h-121zM795 490l-228 720l-229 -720h457zM388 1732q42 0 72.5 -30.5t30.5 -74.5q0 -43 -30.5 -73.5t-73.5 -30.5q-44 0 -74.5 30.5t-30.5 73.5q0 44 30.5 74.5t75.5 30.5zM748 1732q42 0 72.5 -31t30.5 -74
t-30.5 -73.5t-73.5 -30.5q-44 0 -74.5 30.5t-30.5 73.5q0 44 30.5 74.5t75.5 30.5z" />
    <glyph glyph-name="Aring" unicode="&#xc5;" horiz-adv-x="1134" 
d="M522 1377h90l473 -1377h-122l-134 388h-524l-135 -388h-121zM795 490l-228 720l-229 -720h457zM569 1828q75 0 128.5 -54.5t53.5 -129.5q0 -76 -54 -130t-130 -54t-130 54t-54 130q0 77 54 130.5t132 53.5zM568 1746q-43 0 -73 -29.5t-30 -72.5q0 -42 30 -71.5t72 -29.5
t72 29.5t30 71.5t-29.5 72t-71.5 30z" />
    <glyph glyph-name="AE" unicode="&#xc6;" horiz-adv-x="1702" 
d="M819 1365h783v-102h-594v-504h547v-103h-547v-554h594v-102h-715v390h-488l-218 -390h-133zM887 493v773l-431 -773h431z" />
    <glyph glyph-name="Ccedilla" unicode="&#xc7;" horiz-adv-x="1233" 
d="M675 -23l-50 -121q186 -18 186 -159q0 -77 -56 -123t-151 -46q-69 0 -146 26v77q64 -18 104 -18q54 0 86.5 26t32.5 70q0 48 -37.5 69t-129.5 23l75 180q-91 19 -143.5 41.5t-101.5 63.5q-111 93 -170 246q-58 151 -58 351q0 392 216 585q134 120 329 120q224 0 349 -146
q77 -90 99 -233h-115q-66 274 -332 274q-173 0 -276 -121q-143 -170 -143 -481q0 -305 145 -479q100 -120 273 -120q206 0 297 164q49 89 62 203h113q-22 -222 -138 -343q-123 -127 -320 -129z" />
    <glyph glyph-name="Egrave" unicode="&#xc8;" horiz-adv-x="1004" 
d="M296 758h558v-102h-558v-554h608v-102h-724v1365h715v-102h-599v-505zM664 1496h-119l-315 262h170z" />
    <glyph glyph-name="Eacute" unicode="&#xc9;" horiz-adv-x="1004" 
d="M296 758h558v-102h-558v-554h608v-102h-724v1365h715v-102h-599v-505zM411 1496l264 262h170l-315 -262h-119z" />
    <glyph glyph-name="Ecircumflex" unicode="&#xca;" horiz-adv-x="1004" 
d="M296 758h558v-102h-558v-554h608v-102h-724v1365h715v-102h-599v-505zM206 1496l260 262h152l260 -262h-109l-227 188l-227 -188h-109z" />
    <glyph glyph-name="Edieresis" unicode="&#xcb;" horiz-adv-x="1004" 
d="M296 758h558v-102h-558v-554h608v-102h-724v1365h715v-102h-599v-505zM363 1732q42 0 72.5 -31t30.5 -74t-30.5 -73.5t-74.5 -30.5q-43 0 -73.5 30.5t-30.5 73.5q0 44 30.5 74.5t75.5 30.5zM723 1732q42 0 72.5 -30.5t30.5 -74.5q0 -43 -30.5 -73.5t-74.5 -30.5
q-43 0 -73.5 30.5t-30.5 73.5q0 44 30.5 74.5t75.5 30.5z" />
    <glyph glyph-name="Igrave" unicode="&#xcc;" horiz-adv-x="476" 
d="M299 0h-122v1365h122v-1365zM326 1496h-112l-261 262h163z" />
    <glyph glyph-name="Iacute" unicode="&#xcd;" horiz-adv-x="476" 
d="M299 0h-122v1365h122v-1365zM150 1496l210 262h163l-261 -262h-112z" />
    <glyph glyph-name="Icircumflex" unicode="&#xce;" horiz-adv-x="476" 
d="M299 0h-122v1365h122v-1365zM-51 1496l213 262h152l212 -262h-102l-186 188l-186 -188h-103z" />
    <glyph glyph-name="Idieresis" unicode="&#xcf;" horiz-adv-x="476" 
d="M299 0h-122v1365h122v-1365zM103 1730q41 0 71 -30t30 -73q0 -42 -30 -72t-72 -30q-43 0 -73 30t-30 72q0 43 30 73t74 30zM376 1730q41 0 71 -30t30 -73q0 -42 -30 -72t-72 -30q-43 0 -73 30t-30 72q0 44 30 73.5t74 29.5z" />
    <glyph glyph-name="Eth" unicode="&#xd0;" horiz-adv-x="1270" 
d="M180 1365h173q186 0 274 -11q266 -32 407 -245q119 -180 119 -426q0 -278 -144 -461q-148 -187 -391 -212q-92 -10 -273 -10h-165v667h-137v96h137v602zM296 102h93q153 0 220 8q137 17 242 108q175 153 175 463q0 273 -137 431q-104 119 -271 141q-77 10 -258 10h-64
v-500h368v-96h-368v-565z" />
    <glyph glyph-name="Ntilde" unicode="&#xd1;" horiz-adv-x="1285" 
d="M180 1365h129l688 -1195v1195h108v-1365h-135l-680 1191v-1191h-110v1365zM408 1514l-78 34q14 64 35 103q46 89 146 89q68 0 156 -58q64 -43 88.5 -54.5t51.5 -11.5q83 0 99 131l77 -35q-8 -66 -28 -105q-23 -42 -64.5 -67.5t-86.5 -25.5q-38 0 -75 15.5t-102 59.5
q-72 48 -115 48q-76 0 -104 -123z" />
    <glyph glyph-name="Ograve" unicode="&#xd2;" horiz-adv-x="1305" 
d="M653 1388q153 0 279 -90q139 -99 205 -286q52 -146 52 -327q0 -321 -154 -520q-146 -188 -389 -188q-147 0 -273 89q-137 98 -205 287q-52 145 -52 330q0 322 154 517q149 188 383 188zM652 1283q-123 0 -223 -82q-102 -84 -150 -248q-36 -121 -36 -270q0 -267 112 -437
q51 -78 134 -123q76 -41 158 -41q130 0 230 82q100 83 149 248q36 120 36 273q0 268 -112 434q-53 79 -134 123q-77 41 -164 41zM788 1496h-119l-315 262h170z" />
    <glyph glyph-name="Oacute" unicode="&#xd3;" horiz-adv-x="1305" 
d="M653 1388q153 0 279 -90q139 -99 205 -286q52 -146 52 -327q0 -321 -154 -520q-146 -188 -389 -188q-147 0 -273 89q-137 98 -205 287q-52 145 -52 330q0 322 154 517q149 188 383 188zM652 1283q-123 0 -223 -82q-102 -84 -150 -248q-36 -121 -36 -270q0 -267 112 -437
q51 -78 134 -123q76 -41 158 -41q130 0 230 82q100 83 149 248q36 120 36 273q0 268 -112 434q-53 79 -134 123q-77 41 -164 41zM521 1496l264 262h171l-316 -262h-119z" />
    <glyph glyph-name="Ocircumflex" unicode="&#xd4;" horiz-adv-x="1305" 
d="M653 1388q153 0 279 -90q139 -99 205 -286q52 -146 52 -327q0 -321 -154 -520q-146 -188 -389 -188q-147 0 -273 89q-137 98 -205 287q-52 145 -52 330q0 322 154 517q149 188 383 188zM652 1283q-123 0 -223 -82q-102 -84 -150 -248q-36 -121 -36 -270q0 -267 112 -437
q51 -78 134 -123q76 -41 158 -41q130 0 230 82q100 83 149 248q36 120 36 273q0 268 -112 434q-53 79 -134 123q-77 41 -164 41zM316 1496l261 262h151l261 -262h-109l-228 188l-227 -188h-109z" />
    <glyph glyph-name="Otilde" unicode="&#xd5;" horiz-adv-x="1305" 
d="M653 1388q153 0 279 -90q139 -99 205 -286q52 -146 52 -327q0 -321 -154 -520q-146 -188 -389 -188q-147 0 -273 89q-137 98 -205 287q-52 145 -52 330q0 322 154 517q149 188 383 188zM652 1283q-123 0 -223 -82q-102 -84 -150 -248q-36 -121 -36 -270q0 -267 112 -437
q51 -78 134 -123q76 -41 158 -41q130 0 230 82q100 83 149 248q36 120 36 273q0 268 -112 434q-53 79 -134 123q-77 41 -164 41zM418 1514l-79 34q15 64 36 103q46 89 146 89q67 0 155 -58q64 -43 89 -54.5t52 -11.5q83 0 98 131l78 -35q-8 -66 -29 -105
q-22 -42 -63.5 -67.5t-87.5 -25.5q-38 0 -75 15.5t-101 59.5q-73 48 -116 48q-75 0 -103 -123z" />
    <glyph glyph-name="Odieresis" unicode="&#xd6;" horiz-adv-x="1305" 
d="M653 1388q153 0 279 -90q139 -99 205 -286q52 -146 52 -327q0 -321 -154 -520q-146 -188 -389 -188q-147 0 -273 89q-137 98 -205 287q-52 145 -52 330q0 322 154 517q149 188 383 188zM652 1283q-123 0 -223 -82q-102 -84 -150 -248q-36 -121 -36 -270q0 -267 112 -437
q51 -78 134 -123q76 -41 158 -41q130 0 230 82q100 83 149 248q36 120 36 273q0 268 -112 434q-53 79 -134 123q-77 41 -164 41zM474 1732q42 0 72.5 -30.5t30.5 -74.5q0 -43 -30.5 -73.5t-73.5 -30.5q-44 0 -74.5 30.5t-30.5 73.5q0 44 30.5 74.5t75.5 30.5zM834 1732
q42 0 72.5 -30.5t30.5 -74.5q0 -43 -30.5 -73.5t-73.5 -30.5q-44 0 -74.5 30.5t-30.5 73.5q0 44 30.5 74.5t75.5 30.5z" />
    <glyph glyph-name="multiply" unicode="&#xd7;" horiz-adv-x="1065" 
d="M590 689l293 -293l-58 -58l-294 293l-292 -293l-57 57l293 293l-294 293l58 59l294 -294l293 293l56 -57z" />
    <glyph glyph-name="Oslash" unicode="&#xd8;" horiz-adv-x="1305" 
d="M987 1260l71 105h101l-114 -170q144 -194 144 -493q0 -342 -173 -550q-69 -83 -166 -129t-205 -46q-188 0 -329 129l-71 -106h-100l113 170q-143 200 -143 492q0 342 173 551q69 84 166 129.5t206 45.5q181 0 327 -128zM923 1164q-111 119 -262 119q-119 0 -215 -75
q-103 -81 -158 -242q-46 -136 -46 -308q0 -221 87 -383zM380 202q110 -121 264 -121q137 0 242 99q83 78 129.5 218t46.5 312q0 220 -87 380z" />
    <glyph glyph-name="Ugrave" unicode="&#xd9;" horiz-adv-x="1246" 
d="M159 1365h116v-810q1 -155 6 -200q11 -111 64 -170q42 -48 116 -75.5t161 -27.5q119 0 209 49q63 33 94 85.5t40 138.5q4 45 5 200v810h116v-812q0 -168 -4 -218t-23 -103q-43 -121 -156 -188q-114 -67 -281 -67q-194 0 -315 91q-82 61 -115 146.5t-33 238.5v100v812z
M754 1496h-119l-316 262h171z" />
    <glyph glyph-name="Uacute" unicode="&#xda;" horiz-adv-x="1246" 
d="M159 1365h116v-810q1 -155 6 -200q11 -111 64 -170q42 -48 116 -75.5t161 -27.5q119 0 209 49q63 33 94 85.5t40 138.5q4 45 5 200v810h116v-812q0 -168 -4 -218t-23 -103q-43 -121 -156 -188q-114 -67 -281 -67q-194 0 -315 91q-82 61 -115 146.5t-33 238.5v100v812z
M491 1496l265 262h170l-316 -262h-119z" />
    <glyph glyph-name="Ucircumflex" unicode="&#xdb;" horiz-adv-x="1246" 
d="M159 1365h116v-810q1 -155 6 -200q11 -111 64 -170q42 -48 116 -75.5t161 -27.5q119 0 209 49q63 33 94 85.5t40 138.5q4 45 5 200v810h116v-812q0 -168 -4 -218t-23 -103q-43 -121 -156 -188q-114 -67 -281 -67q-194 0 -315 91q-82 61 -115 146.5t-33 238.5v100v812z
M286 1496l261 262h152l260 -262h-109l-227 188l-227 -188h-110z" />
    <glyph glyph-name="Udieresis" unicode="&#xdc;" horiz-adv-x="1246" 
d="M159 1365h116v-810q1 -155 6 -200q11 -111 64 -170q42 -48 116 -75.5t161 -27.5q119 0 209 49q63 33 94 85.5t40 138.5q4 45 5 200v810h116v-812q0 -168 -4 -218t-23 -103q-43 -121 -156 -188q-114 -67 -281 -67q-194 0 -315 91q-82 61 -115 146.5t-33 238.5v100v812z
M444 1732q42 0 72.5 -30.5t30.5 -74.5q0 -43 -30.5 -73.5t-73.5 -30.5q-44 0 -74.5 30.5t-30.5 73.5q0 44 30.5 74.5t75.5 30.5zM804 1732q42 0 72.5 -31t30.5 -74t-30.5 -73.5t-73.5 -30.5q-44 0 -74.5 30.5t-30.5 73.5q0 44 30.5 74.5t75.5 30.5z" />
    <glyph glyph-name="Yacute" unicode="&#xdd;" horiz-adv-x="1014" 
d="M32 1365h137l340 -669l336 669h137l-420 -780l3 -585h-116l3 585zM376 1496l264 262h170l-315 -262h-119z" />
    <glyph glyph-name="Thorn" unicode="&#xde;" horiz-adv-x="1050" 
d="M180 1365h116v-159h78q266 0 372 -35q118 -40 185 -151q53 -89 53 -216q0 -155 -82 -253q-89 -107 -255 -127q-84 -10 -245 -10h-106v-414h-116v1365zM296 516h102q173 0 258 18q200 41 200 272q0 132 -72 209q-50 55 -128 72t-285 17h-75v-588z" />
    <glyph glyph-name="germandbls" unicode="&#xdf;" horiz-adv-x="1009" 
d="M148 0v874q0 165 8.5 231t36.5 118q38 73 115 113.5t177 40.5q147 0 238 -83q98 -90 98 -236q0 -221 -246 -287q334 -57 334 -385q0 -189 -113 -302q-98 -98 -236 -98q-66 0 -146 32v101q72 -36 148 -36q103 0 166 80q69 88 69 225q0 112 -45.5 183t-143.5 112
q-99 41 -230 43v92q28 -1 42 -1q124 0 198 52q91 64 91 184q0 107 -65 170q-60 58 -162 58q-152 0 -199 -115q-19 -48 -24 -95.5t-5 -195.5v-875h-106z" />
    <glyph glyph-name="agrave" unicode="&#xe0;" horiz-adv-x="949" 
d="M244 727h-111q13 115 82 182q90 87 263 87q145 0 233 -69q53 -42 69 -99.5t16 -204.5v-355l-1 -78q0 -110 26 -190h-106q-18 59 -25 137q-89 -161 -286 -161q-126 0 -207 65q-97 77 -97 213q0 207 228 291q140 52 362 86v51q0 108 -37 152q-53 65 -178 65
q-201 0 -231 -172zM690 546q-215 -42 -318 -87q-160 -69 -160 -201q0 -83 55.5 -134t144.5 -51q156 0 231 123q47 75 47 240v110zM595 1144h-96l-270 263h170z" />
    <glyph glyph-name="aacute" unicode="&#xe1;" horiz-adv-x="949" 
d="M244 727h-111q13 115 82 182q90 87 263 87q145 0 233 -69q53 -42 69 -99.5t16 -204.5v-355l-1 -78q0 -110 26 -190h-106q-18 59 -25 137q-89 -161 -286 -161q-126 0 -207 65q-97 77 -97 213q0 207 228 291q140 52 362 86v51q0 108 -37 152q-53 65 -178 65
q-201 0 -231 -172zM690 546q-215 -42 -318 -87q-160 -69 -160 -201q0 -83 55.5 -134t144.5 -51q156 0 231 123q47 75 47 240v110zM370 1144l196 263h170l-270 -263h-96z" />
    <glyph glyph-name="acircumflex" unicode="&#xe2;" horiz-adv-x="949" 
d="M244 727h-111q13 115 82 182q90 87 263 87q145 0 233 -69q53 -42 69 -99.5t16 -204.5v-355l-1 -78q0 -110 26 -190h-106q-18 59 -25 137q-89 -161 -286 -161q-126 0 -207 65q-97 77 -97 213q0 207 228 291q140 52 362 86v51q0 108 -37 152q-53 65 -178 65
q-201 0 -231 -172zM690 546q-215 -42 -318 -87q-160 -69 -160 -201q0 -83 55.5 -134t144.5 -51q156 0 231 123q47 75 47 240v110zM181 1145l226 279h152l227 -279h-110l-193 199l-193 -199h-109z" />
    <glyph glyph-name="atilde" unicode="&#xe3;" horiz-adv-x="949" 
d="M244 727h-111q13 115 82 182q90 87 263 87q145 0 233 -69q53 -42 69 -99.5t16 -204.5v-355l-1 -78q0 -110 26 -190h-106q-18 59 -25 137q-89 -161 -286 -161q-126 0 -207 65q-97 77 -97 213q0 207 228 291q140 52 362 86v51q0 108 -37 152q-53 65 -178 65
q-201 0 -231 -172zM690 546q-215 -42 -318 -87q-160 -69 -160 -201q0 -83 55.5 -134t144.5 -51q156 0 231 123q47 75 47 240v110zM254 1163l-76 16q36 211 170 211q62 0 139 -60q87 -66 127 -66q34 0 57 34.5t31 96.5l80 -18q-9 -88 -45 -144q-46 -73 -121 -73
q-65 0 -152 66q-80 61 -119 61q-65 0 -91 -124z" />
    <glyph glyph-name="adieresis" unicode="&#xe4;" horiz-adv-x="949" 
d="M244 727h-111q13 115 82 182q90 87 263 87q145 0 233 -69q53 -42 69 -99.5t16 -204.5v-355l-1 -78q0 -110 26 -190h-106q-18 59 -25 137q-89 -161 -286 -161q-126 0 -207 65q-97 77 -97 213q0 207 228 291q140 52 362 86v51q0 108 -37 152q-53 65 -178 65
q-201 0 -231 -172zM690 546q-215 -42 -318 -87q-160 -69 -160 -201q0 -83 55.5 -134t144.5 -51q156 0 231 123q47 75 47 240v110zM308 1378q39 0 67.5 -28.5t28.5 -69.5q0 -40 -28.5 -68.5t-68.5 -28.5q-41 0 -69.5 28.5t-28.5 68.5q0 41 28.5 69.5t70.5 28.5zM657 1378
q40 0 68 -28.5t28 -69.5q0 -40 -28.5 -68.5t-68.5 -28.5q-41 0 -69.5 28.5t-28.5 68.5q0 41 28.5 69.5t70.5 28.5z" />
    <glyph glyph-name="aring" unicode="&#xe5;" horiz-adv-x="949" 
d="M244 727h-111q13 115 82 182q90 87 263 87q145 0 233 -69q53 -42 69 -99.5t16 -204.5v-355l-1 -78q0 -110 26 -190h-106q-18 59 -25 137q-89 -161 -286 -161q-126 0 -207 65q-97 77 -97 213q0 207 228 291q140 52 362 86v51q0 108 -37 152q-53 65 -178 65
q-201 0 -231 -172zM690 546q-215 -42 -318 -87q-160 -69 -160 -201q0 -83 55.5 -134t144.5 -51q156 0 231 123q47 75 47 240v110zM484 1480q74 0 127.5 -54t53.5 -130t-54 -130t-130 -54t-130 54t-54 130q0 77 54 130.5t133 53.5zM482 1398q-43 0 -73 -29.5t-30 -72.5
q0 -42 30 -72t72 -30t72 30t30 72t-29.5 72t-71.5 30z" />
    <glyph glyph-name="ae" unicode="&#xe6;" horiz-adv-x="1547" 
d="M1447 477h-658q2 -177 59 -269q83 -135 241 -135q160 0 240 159l103 -19q-34 -111 -125 -174t-218 -63q-118 0 -209 55.5t-139 156.5q-48 -86 -98 -128q-97 -84 -239 -84q-121 0 -204 61q-100 73 -100 199q0 124 100 209q106 89 295 112q76 9 181 9v67q0 146 -30 192
q-47 74 -171 74q-193 0 -245 -181h-100q19 115 92 186q95 92 254 92q122 0 197.5 -47t95.5 -137q104 184 303 184q129 0 223 -79q154 -129 152 -440zM1324 566q-3 134 -53 216q-71 117 -201 117q-111 0 -186 -90.5t-91 -242.5h531zM676 477q-142 1 -243 -23
q-221 -53 -221 -216q0 -74 54.5 -119.5t142.5 -45.5q155 0 227 124q40 68 40 196v84z" />
    <glyph glyph-name="ccedilla" unicode="&#xe7;" horiz-adv-x="955" 
d="M528 -25l-43 -96q172 -21 172 -142q0 -72 -52.5 -115t-139.5 -43q-73 0 -143 27v71q67 -18 104 -18q51 0 80.5 24t29.5 66q0 45 -35.5 66t-122.5 26l69 139q-99 20 -171 71q-77 54 -119 145q-57 120 -57 285q0 279 156 422q101 93 249 93q147 0 236 -89t104 -251h-105
q-15 96 -59 155q-64 88 -180 88q-122 0 -194 -93q-95 -122 -95 -324q0 -216 108 -332q73 -78 186 -78q102 0 165 67.5t75 188.5h110q-18 -180 -120 -275q-40 -37 -80 -52t-128 -26z" />
    <glyph glyph-name="egrave" unicode="&#xe8;" horiz-adv-x="975" 
d="M874 472h-662q4 -174 62 -271q77 -129 233 -129q84 0 138.5 36.5t100.5 123.5l103 -19q-90 -237 -341 -237q-186 0 -295 128q-113 131 -113 369q0 276 142 420q101 103 255 103q202 0 306 -176q71 -122 71 -310v-38zM760 561q-8 116 -48 197q-72 141 -219 141
q-115 0 -187.5 -88.5t-89.5 -249.5h544zM615 1144h-96l-270 263h170z" />
    <glyph glyph-name="eacute" unicode="&#xe9;" horiz-adv-x="975" 
d="M874 472h-662q4 -174 62 -271q77 -129 233 -129q84 0 138.5 36.5t100.5 123.5l103 -19q-90 -237 -341 -237q-186 0 -295 128q-113 131 -113 369q0 276 142 420q101 103 255 103q202 0 306 -176q71 -122 71 -310v-38zM760 561q-8 116 -48 197q-72 141 -219 141
q-115 0 -187.5 -88.5t-89.5 -249.5h544zM392 1144l196 263h171l-270 -263h-97z" />
    <glyph glyph-name="ecircumflex" unicode="&#xea;" horiz-adv-x="975" 
d="M874 472h-662q4 -174 62 -271q77 -129 233 -129q84 0 138.5 36.5t100.5 123.5l103 -19q-90 -237 -341 -237q-186 0 -295 128q-113 131 -113 369q0 276 142 420q101 103 255 103q202 0 306 -176q71 -122 71 -310v-38zM760 561q-8 116 -48 197q-72 141 -219 141
q-115 0 -187.5 -88.5t-89.5 -249.5h544zM205 1145l227 279h152l226 -279h-109l-193 199l-193 -199h-110z" />
    <glyph glyph-name="edieresis" unicode="&#xeb;" horiz-adv-x="975" 
d="M874 472h-662q4 -174 62 -271q77 -129 233 -129q84 0 138.5 36.5t100.5 123.5l103 -19q-90 -237 -341 -237q-186 0 -295 128q-113 131 -113 369q0 276 142 420q101 103 255 103q202 0 306 -176q71 -122 71 -310v-38zM760 561q-8 116 -48 197q-72 141 -219 141
q-115 0 -187.5 -88.5t-89.5 -249.5h544zM335 1378q40 0 68 -28.5t28 -69.5q0 -40 -28.5 -68.5t-68.5 -28.5q-41 0 -69.5 28.5t-28.5 68.5q0 42 28.5 70t70.5 28zM684 1378q40 0 68 -28.5t28 -69.5q0 -40 -28.5 -68.5t-68.5 -28.5q-41 0 -69.5 28.5t-28.5 68.5
q0 41 28.5 69.5t70.5 28.5z" />
    <glyph glyph-name="igrave" unicode="&#xec;" horiz-adv-x="424" 
d="M154 969h117v-969h-117v969zM287 1144h-90l-222 263h163z" />
    <glyph glyph-name="iacute" unicode="&#xed;" horiz-adv-x="424" 
d="M154 969h117v-969h-117v969zM138 1144l148 263h164l-223 -263h-89z" />
    <glyph glyph-name="icircumflex" unicode="&#xee;" horiz-adv-x="424" 
d="M154 969h117v-969h-117v969zM-42 1145l179 279h152l178 -279h-102l-153 199l-151 -199h-103z" />
    <glyph glyph-name="idieresis" unicode="&#xef;" horiz-adv-x="424" 
d="M153 969h117v-969h-117v969zM83 1377q39 0 67 -28.5t28 -67.5q0 -41 -28 -69t-68 -28q-41 0 -69 28t-28 68q0 41 28.5 69t69.5 28zM344 1377q39 0 67 -28.5t28 -67.5q0 -41 -28 -69t-68 -28t-68.5 28t-28.5 68q0 41 28.5 69t69.5 28z" />
    <glyph glyph-name="eth" unicode="&#xf0;" horiz-adv-x="1010" 
d="M517 1261l154 90l44 -75l-146 -83q25 -30 94 -120q124 -159 159 -220q88 -157 88 -354q0 -257 -133 -405q-106 -118 -270 -118q-168 0 -278 122q-129 144 -129 383q0 265 141 406q51 50 120 79.5t136 29.5q48 0 109 -23l-126 169l-152 -88l-47 73l153 88l-87 118l73 40z
M518 899q-125 0 -201 -84q-105 -118 -105 -332q0 -195 93 -313q77 -97 202 -97q123 0 197 95q95 124 95 315q0 208 -101 333q-67 83 -180 83z" />
    <glyph glyph-name="ntilde" unicode="&#xf1;" horiz-adv-x="1005" 
d="M131 969h103q19 -55 20 -146q96 173 298 173q105 0 178.5 -43t101.5 -121q17 -46 21 -89t4 -187v-556h-106v563q0 115 -5 158t-21 79q-47 100 -182 100q-147 0 -228 -119q-55 -82 -55 -225v-556h-106v645q0 176 -3 218t-20 106zM256 1163l-76 16q36 211 170 211
q62 0 140 -60q86 -66 126 -66q71 0 88 131l80 -18q-10 -88 -45 -144q-45 -73 -121 -73q-65 0 -152 66q-80 61 -119 61q-66 0 -91 -124z" />
    <glyph glyph-name="ograve" unicode="&#xf2;" horiz-adv-x="1010" 
d="M505 996q168 0 277 -122q128 -145 128 -389q0 -243 -128 -388q-108 -121 -276 -121q-170 0 -278 121q-128 145 -128 395q0 238 128 382q110 122 277 122zM506 899q-126 0 -202 -99q-92 -121 -92 -310q0 -199 92 -319q76 -98 202 -98t201 98q92 120 92 314q0 196 -92 315
q-77 99 -201 99zM613 1144h-97l-270 263h171z" />
    <glyph glyph-name="oacute" unicode="&#xf3;" horiz-adv-x="1010" 
d="M505 996q168 0 277 -122q128 -145 128 -389q0 -243 -128 -388q-108 -121 -276 -121q-170 0 -278 121q-128 145 -128 395q0 238 128 382q110 122 277 122zM506 899q-126 0 -202 -99q-92 -121 -92 -310q0 -199 92 -319q76 -98 202 -98t201 98q92 120 92 314q0 196 -92 315
q-77 99 -201 99zM403 1144l196 263h171l-270 -263h-97z" />
    <glyph glyph-name="ocircumflex" unicode="&#xf4;" horiz-adv-x="1010" 
d="M505 996q168 0 277 -122q128 -145 128 -389q0 -243 -128 -388q-108 -121 -276 -121q-170 0 -278 121q-128 145 -128 395q0 238 128 382q110 122 277 122zM506 899q-126 0 -202 -99q-92 -121 -92 -310q0 -199 92 -319q76 -98 202 -98t201 98q92 120 92 314q0 196 -92 315
q-77 99 -201 99zM203 1145l226 279h152l227 -279h-110l-193 199l-193 -199h-109z" />
    <glyph glyph-name="otilde" unicode="&#xf5;" horiz-adv-x="1010" 
d="M505 996q168 0 277 -122q128 -145 128 -389q0 -243 -128 -388q-108 -121 -276 -121q-170 0 -278 121q-128 145 -128 395q0 238 128 382q110 122 277 122zM506 899q-126 0 -202 -99q-92 -121 -92 -310q0 -199 92 -319q76 -98 202 -98t201 98q92 120 92 314q0 196 -92 315
q-77 99 -201 99zM295 1163l-76 16q36 211 170 211q62 0 140 -60q86 -66 126 -66q71 0 88 131l80 -18q-10 -88 -44 -144q-46 -73 -122 -73q-65 0 -152 66q-80 61 -118 61q-67 0 -92 -124z" />
    <glyph glyph-name="odieresis" unicode="&#xf6;" horiz-adv-x="1010" 
d="M505 996q168 0 277 -122q128 -145 128 -389q0 -243 -128 -388q-108 -121 -276 -121q-170 0 -278 121q-128 145 -128 395q0 238 128 382q110 122 277 122zM506 899q-126 0 -202 -99q-92 -121 -92 -310q0 -199 92 -319q76 -98 202 -98t201 98q92 120 92 314q0 196 -92 315
q-77 99 -201 99zM333 1378q40 0 68 -28.5t28 -69.5q0 -40 -28.5 -68.5t-68.5 -28.5q-41 0 -69.5 28.5t-28.5 68.5q0 41 28.5 69.5t70.5 28.5zM681 1378q40 0 68 -28.5t28 -69.5q0 -40 -28.5 -68.5t-68.5 -28.5q-41 0 -69.5 28.5t-28.5 68.5q0 41 28.5 69.5t70.5 28.5z" />
    <glyph glyph-name="divide" unicode="&#xf7;" horiz-adv-x="1065" 
d="M533 496q35 0 60 -25t25 -60t-25 -59.5t-61 -24.5q-35 0 -60 24.5t-25 59.5t25 60t61 25zM533 1037q35 0 60 -25t25 -60t-25.5 -59.5t-60.5 -24.5t-60 24.5t-25 59.5q0 36 25 60.5t61 24.5zM112 730h842v-83h-842v83z" />
    <glyph glyph-name="oslash" unicode="&#xf8;" horiz-adv-x="1010" 
d="M190 140q-90 144 -90 333q0 259 143 410q107 114 266 114q155 0 267 -112l64 82h91l-109 -140q89 -138 89 -332q0 -257 -143 -407q-108 -112 -268 -112q-155 0 -262 103l-62 -79h-96zM260 230l450 572q-80 98 -199 98q-167 0 -251 -180q-49 -104 -49 -254q0 -133 49 -236
zM751 737l-448 -575q75 -90 197 -90q166 0 250 177q49 103 49 252q0 134 -48 236z" />
    <glyph glyph-name="ugrave" unicode="&#xf9;" horiz-adv-x="979" 
d="M149 969h106v-605q0 -153 33 -206q54 -85 177 -85q136 0 209 115q46 72 46 223v558h106v-675q0 -169 3 -207t19 -87h-107q-20 62 -21 138q-42 -86 -101.5 -124t-153.5 -38q-117 0 -197 58q-94 66 -112 184q-7 45 -7 151v600zM599 1144h-96l-270 263h170z" />
    <glyph glyph-name="uacute" unicode="&#xfa;" horiz-adv-x="979" 
d="M149 969h106v-605q0 -153 33 -206q54 -85 177 -85q136 0 209 115q46 72 46 223v558h106v-675q0 -169 3 -207t19 -87h-107q-20 62 -21 138q-42 -86 -101.5 -124t-153.5 -38q-117 0 -197 58q-94 66 -112 184q-7 45 -7 151v600zM376 1144l196 263h171l-270 -263h-97z" />
    <glyph glyph-name="ucircumflex" unicode="&#xfb;" horiz-adv-x="979" 
d="M149 969h106v-605q0 -153 33 -206q54 -85 177 -85q136 0 209 115q46 72 46 223v558h106v-675q0 -169 3 -207t19 -87h-107q-20 62 -21 138q-42 -86 -101.5 -124t-153.5 -38q-117 0 -197 58q-94 66 -112 184q-7 45 -7 151v600zM188 1145l226 279h152l227 -279h-109
l-194 199l-193 -199h-109z" />
    <glyph glyph-name="udieresis" unicode="&#xfc;" horiz-adv-x="979" 
d="M149 969h106v-605q0 -153 33 -206q54 -85 177 -85q136 0 209 115q46 72 46 223v558h106v-675q0 -169 3 -207t19 -87h-107q-20 62 -21 138q-42 -86 -101.5 -124t-153.5 -38q-117 0 -197 58q-94 66 -112 184q-7 45 -7 151v600zM316 1378q40 0 68 -28.5t28 -69.5
q0 -40 -28.5 -68.5t-68.5 -28.5q-41 0 -69.5 28.5t-28.5 68.5q0 42 28.5 70t70.5 28zM664 1378q40 0 68 -28.5t28 -69.5q0 -40 -28.5 -68.5t-68.5 -28.5q-41 0 -69.5 28.5t-28.5 68.5q0 41 28.5 69.5t70.5 28.5z" />
    <glyph glyph-name="yacute" unicode="&#xfd;" horiz-adv-x="855" 
d="M33 969h115l279 -831l289 831h112l-316 -887q-66 -190 -92 -250t-64 -111q-95 -129 -268 -129q-16 0 -34 1v95q131 0 188 57q34 34 57.5 82t68.5 174zM322 1144l196 263h170l-270 -263h-96z" />
    <glyph glyph-name="thorn" unicode="&#xfe;" horiz-adv-x="1012" 
d="M154 -404v1775h106v-553q44 76 87 113q78 66 190 66q133 0 221 -85q155 -149 155 -432q0 -256 -127 -401q-91 -103 -239 -103q-185 0 -287 168v-548h-106zM536 900q-119 0 -187 -93q-91 -126 -91 -321t88 -313q75 -100 193 -100q113 0 175 83q88 118 88 321
q0 193 -72.5 308t-193.5 115z" />
    <glyph glyph-name="ydieresis" unicode="&#xff;" horiz-adv-x="855" 
d="M33 969h115l279 -831l289 831h112l-316 -887q-66 -190 -92 -250t-64 -111q-95 -129 -268 -129q-16 0 -34 1v95q131 0 188 57q34 34 57.5 82t68.5 174zM257 1378q40 0 68.5 -28.5t28.5 -69.5q0 -40 -28.5 -68.5t-69.5 -28.5q-40 0 -68.5 28.5t-28.5 68.5q0 42 28.5 70
t69.5 28zM605 1378q40 0 68.5 -28.5t28.5 -69.5q0 -40 -28.5 -68.5t-69.5 -28.5q-40 0 -68.5 28.5t-28.5 68.5q0 41 28.5 69.5t69.5 28.5z" />
    <glyph glyph-name="Amacron" unicode="&#x100;" horiz-adv-x="1134" 
d="M522 1377h90l473 -1377h-122l-134 388h-524l-135 -388h-121zM338 490h457l-228 720zM282 1672h570v-92h-570v92z" />
    <glyph glyph-name="amacron" unicode="&#x101;" horiz-adv-x="949" 
d="M244 727h-111q13 115 82 182q90 87 263 87q145 0 233 -69q53 -42 69 -99.5t16 -204.5v-355l-1 -78q0 -110 26 -190h-106q-18 59 -25 137q-89 -161 -286 -161q-126 0 -207 65q-97 77 -97 213q0 207 228 291q140 52 362 86v51q0 108 -37 152q-53 65 -178 65
q-201 0 -231 -172zM690 546q-215 -42 -318 -87q-160 -69 -160 -201q0 -83 55.5 -134t144.5 -51q156 0 231 123q47 75 47 240v110zM206 1328h548v-95h-548v95z" />
    <glyph glyph-name="Abreve" unicode="&#x102;" horiz-adv-x="1134" 
d="M522 1377h90l473 -1377h-122l-134 388h-524l-135 -388h-121zM795 490l-228 720l-229 -720h457zM296 1761h77q18 -75 70.5 -119t125.5 -44q72 0 123 43.5t69 119.5h77q-8 -70 -33 -122q-72 -145 -235 -145q-113 0 -186.5 72t-87.5 195z" />
    <glyph glyph-name="abreve" unicode="&#x103;" horiz-adv-x="949" 
d="M244 727h-111q13 115 82 182q90 87 263 87q145 0 233 -69q53 -42 69 -99.5t16 -204.5v-355l-1 -78q0 -110 26 -190h-106q-18 59 -25 137q-89 -161 -286 -161q-126 0 -207 65q-97 77 -97 213q0 207 228 291q140 52 362 86v51q0 108 -37 152q-53 65 -178 65
q-201 0 -231 -172zM690 546q-215 -42 -318 -87q-160 -69 -160 -201q0 -83 55.5 -134t144.5 -51q156 0 231 123q47 75 47 240v110zM237 1409h78q16 -77 60.5 -121.5t106.5 -44.5t105.5 43.5t59.5 122.5h78q-7 -71 -30 -124q-62 -146 -211 -146q-101 0 -168.5 73.5
t-78.5 196.5z" />
    <glyph glyph-name="Aogonek" unicode="&#x104;" horiz-adv-x="1134" 
d="M1085 0q-150 -80 -150 -182q0 -41 33.5 -71t80.5 -30q46 0 89 11v-88q-70 -21 -124 -21q-59 0 -111 28q-92 51 -92 150q0 62 38 108.5t127 94.5h-10l-138 388h-523l-135 -388h-121l473 1377h90zM794 490l-226 717l-230 -717h456z" />
    <glyph glyph-name="aogonek" unicode="&#x105;" horiz-adv-x="949" 
d="M819 0q-15 -7 -78 -56q-70 -55 -70 -112q0 -43 32 -69.5t84 -26.5q40 0 79 13v-85q-61 -18 -112 -18q-62 0 -112 26q-39 20 -62.5 57.5t-23.5 80.5q0 60 37.5 105t121.5 85q-18 62 -25 137q-88 -161 -286 -161q-128 0 -208 64q-96 78 -96 212q0 205 228 292
q138 53 362 87v65q0 92 -37 138q-52 65 -178 65q-201 0 -231 -172h-111q13 115 82 182q90 87 263 87q145 0 233 -69q53 -42 69 -99.5t16 -204.5v-355l-1 -80q0 -91 24 -188zM690 546q-215 -42 -318 -87q-160 -69 -160 -200q0 -85 54.5 -135.5t145.5 -50.5q156 0 232 123
q46 75 46 240v110z" />
    <glyph glyph-name="Cacute" unicode="&#x106;" horiz-adv-x="1233" 
d="M1108 1009h-114q-67 274 -332 274q-160 0 -259 -104q-160 -168 -160 -496q0 -306 145 -481q100 -120 272 -120q206 0 297 164q53 95 62 203h114q-10 -159 -91 -283q-124 -189 -379 -189q-223 0 -366 155q-181 196 -181 549q0 394 216 587q134 120 329 120q224 0 349 -146
q77 -90 98 -233zM531 1496l264 262h170l-315 -262h-119z" />
    <glyph glyph-name="cacute" unicode="&#x107;" horiz-adv-x="955" 
d="M845 656h-106q-14 96 -58 155q-64 88 -180 88q-122 0 -194 -93q-95 -123 -95 -322q0 -215 107 -333q72 -78 187 -78q103 0 165 66t74 189h110q-14 -147 -84 -235q-91 -117 -260 -117q-161 0 -270 105q-141 137 -141 401q0 278 156 421q101 93 248 93t236.5 -89
t104.5 -251zM398 1144l196 263h170l-270 -263h-96z" />
    <glyph glyph-name="Ccircumflex" unicode="&#x108;" horiz-adv-x="1233" 
d="M1108 1009h-114q-67 274 -332 274q-160 0 -259 -104q-160 -168 -160 -496q0 -306 145 -481q100 -120 272 -120q206 0 297 164q53 95 62 203h114q-10 -159 -91 -283q-124 -189 -379 -189q-223 0 -366 155q-181 196 -181 549q0 394 216 587q134 120 329 120q224 0 349 -146
q77 -90 98 -233zM332 1496l261 262h152l260 -262h-109l-227 188l-227 -188h-110z" />
    <glyph glyph-name="ccircumflex" unicode="&#x109;" horiz-adv-x="955" 
d="M845 656h-106q-14 96 -58 155q-64 88 -180 88q-122 0 -194 -93q-95 -123 -95 -322q0 -215 107 -333q72 -78 187 -78q103 0 165 66t74 189h110q-14 -147 -84 -235q-91 -117 -260 -117q-161 0 -270 105q-141 137 -141 401q0 278 156 421q101 93 248 93t236.5 -89
t104.5 -251zM200 1145l226 279h152l226 -279h-109l-193 199l-193 -199h-109z" />
    <glyph glyph-name="Cdotaccent" unicode="&#x10a;" horiz-adv-x="1233" 
d="M1108 1009h-114q-67 274 -332 274q-160 0 -259 -104q-160 -168 -160 -496q0 -306 145 -481q100 -120 272 -120q206 0 297 164q53 95 62 203h114q-10 -159 -91 -283q-124 -189 -379 -189q-223 0 -366 155q-181 196 -181 549q0 394 216 587q134 120 329 120q224 0 349 -146
q77 -90 98 -233zM668 1744q48 0 82 -34.5t34 -82.5q0 -49 -34 -83t-83 -34t-83 34t-34 83t34.5 83t83.5 34z" />
    <glyph glyph-name="cdotaccent" unicode="&#x10b;" horiz-adv-x="956" 
d="M845 656h-106q-14 96 -58 155q-64 88 -180 88q-122 0 -194 -93q-95 -123 -95 -322q0 -215 107 -333q72 -78 187 -78q103 0 165 66t74 189h110q-14 -147 -84 -235q-91 -117 -260 -117q-161 0 -270 105q-141 137 -141 401q0 278 156 421q101 93 248 93t236.5 -89
t104.5 -251zM513 1378q40 0 68 -28.5t28 -69.5q0 -40 -28.5 -68.5t-68.5 -28.5q-41 0 -69.5 28.5t-28.5 68.5q0 42 28.5 70t70.5 28z" />
    <glyph glyph-name="Ccaron" unicode="&#x10c;" horiz-adv-x="1233" 
d="M1108 1009h-114q-67 274 -332 274q-160 0 -259 -104q-160 -168 -160 -496q0 -306 145 -481q100 -120 272 -120q206 0 297 164q53 95 62 203h114q-10 -159 -91 -283q-124 -189 -379 -189q-223 0 -366 155q-181 196 -181 549q0 394 216 587q134 120 329 120q224 0 349 -146
q77 -90 98 -233zM1004 1758l-260 -262h-152l-261 262h109l228 -188l227 188h109z" />
    <glyph glyph-name="ccaron" unicode="&#x10d;" horiz-adv-x="956" 
d="M845 656h-106q-14 96 -58 155q-64 88 -180 88q-122 0 -194 -93q-95 -123 -95 -322q0 -215 107 -333q72 -78 187 -78q103 0 165 66t74 189h110q-14 -147 -84 -235q-91 -117 -260 -117q-161 0 -270 105q-141 137 -141 401q0 278 156 421q101 93 248 93t236.5 -89
t104.5 -251zM814 1424l-226 -279h-152l-227 279h110l193 -199l193 199h109z" />
    <glyph glyph-name="Dcaron" unicode="&#x10e;" horiz-adv-x="1270" 
d="M180 1365h173q186 0 274 -11q267 -32 408 -245q119 -180 119 -425q0 -278 -144 -462q-148 -187 -391 -212q-93 -10 -274 -10h-165v1365zM296 102h93q153 0 220 8q138 17 243 108q175 153 175 463q0 274 -137 431q-104 119 -271 141q-78 10 -259 10h-64v-1161zM915 1758
l-261 -262h-152l-260 262h109l227 -188l228 188h109z" />
    <glyph glyph-name="dcaron" unicode="&#x10f;" horiz-adv-x="1124" 
d="M858 1371v-1091q0 -215 20 -280h-109q-18 56 -18 111q0 8 1 28q-52 -87 -115.5 -125t-155.5 -38q-159 0 -257 110q-125 141 -125 390q0 247 116 397q94 123 256 123q193 0 281 -173v548h106zM486 899q-120 0 -185 -87q-91 -123 -91 -330q0 -202 91 -323q65 -86 181 -86
t181 86q91 122 91 325q0 207 -91 328q-66 87 -177 87zM1025 1026h-85q109 101 128 188q-12 -2 -17 -2q-34 0 -59 26t-25 62q0 38 28 65t68 27q45 0 73.5 -32.5t28.5 -84.5q0 -115 -140 -249z" />
    <glyph glyph-name="Dcroat" unicode="&#x110;" horiz-adv-x="1270" 
d="M180 1365h173q186 0 274 -11q266 -32 407 -245q119 -180 119 -426q0 -278 -144 -461q-148 -187 -391 -212q-92 -10 -273 -10h-165v667h-137v96h137v602zM296 102h93q153 0 220 8q137 17 242 108q175 153 175 463q0 273 -137 431q-104 119 -271 141q-77 10 -258 10h-64
v-500h368v-96h-368v-565z" />
    <glyph glyph-name="dcroat" unicode="&#x111;" horiz-adv-x="1012" 
d="M858 1371v-147h123v-89h-123v-855q0 -215 20 -280h-109q-18 55 -18 111q0 9 1 28q-52 -86 -115 -124.5t-155 -38.5q-159 0 -257 110q-125 141 -125 390q0 247 116 397q94 123 256 123q193 0 280 -173v312h-272v89h272v147h106zM487 899q-120 0 -185 -87
q-91 -123 -91 -330q0 -202 91 -323q65 -86 181 -86t180 86q91 122 91 325q0 207 -91 328q-65 87 -176 87z" />
    <glyph glyph-name="Emacron" unicode="&#x112;" horiz-adv-x="1004" 
d="M296 758h558v-102h-558v-554h608v-102h-724v1365h715v-102h-599v-505zM256 1672h571v-92h-571v92z" />
    <glyph glyph-name="emacron" unicode="&#x113;" horiz-adv-x="975" 
d="M874 472h-662q4 -174 62 -271q77 -129 233 -129q84 0 138.5 36.5t100.5 123.5l103 -19q-90 -237 -341 -237q-186 0 -295 128q-113 131 -113 369q0 276 142 420q101 103 255 103q202 0 306 -176q71 -122 71 -310v-38zM760 561q-8 116 -48 197q-72 141 -219 141
q-115 0 -187.5 -88.5t-89.5 -249.5h544zM236 1328h548v-95h-548v95z" />
    <glyph glyph-name="Ebreve" unicode="&#x114;" horiz-adv-x="1004" 
d="M296 758h558v-102h-558v-554h608v-102h-724v1365h715v-102h-599v-505zM271 1761h77q17 -75 70 -119t125 -44q73 0 124 43.5t69 119.5h77q-8 -70 -33 -122q-72 -145 -235 -145q-113 0 -187 72t-87 195z" />
    <glyph glyph-name="ebreve" unicode="&#x115;" horiz-adv-x="975" 
d="M874 472h-662q4 -174 62 -271q77 -129 233 -129q84 0 138.5 36.5t100.5 123.5l103 -19q-90 -237 -341 -237q-186 0 -295 128q-113 131 -113 369q0 276 142 420q101 103 255 103q202 0 306 -176q71 -122 71 -310v-38zM760 561q-8 116 -48 197q-72 141 -219 141
q-115 0 -187.5 -88.5t-89.5 -249.5h544zM264 1409h78q16 -77 60.5 -121.5t106.5 -44.5t105 43.5t59 122.5h79q-8 -71 -30 -124q-63 -146 -211 -146q-102 0 -169 73.5t-78 196.5z" />
    <glyph glyph-name="Edotaccent" unicode="&#x116;" horiz-adv-x="1004" 
d="M296 758h558v-102h-558v-554h608v-102h-724v1365h715v-102h-599v-505zM543 1744q48 0 82 -34.5t34 -82.5q0 -49 -34 -83t-83 -34q-48 0 -82.5 34t-34.5 83t34.5 83t83.5 34z" />
    <glyph glyph-name="edotaccent" unicode="&#x117;" horiz-adv-x="975" 
d="M874 472h-662q4 -174 62 -271q77 -129 233 -129q84 0 138.5 36.5t100.5 123.5l103 -19q-90 -237 -341 -237q-186 0 -295 128q-113 131 -113 369q0 276 142 420q101 103 255 103q202 0 306 -176q71 -122 71 -310v-38zM760 561q-8 116 -48 197q-72 141 -219 141
q-115 0 -187.5 -88.5t-89.5 -249.5h544zM509 1378q40 0 68 -28.5t28 -69.5q0 -40 -28.5 -68.5t-68.5 -28.5q-41 0 -69.5 28.5t-28.5 68.5q0 42 28.5 70t70.5 28z" />
    <glyph glyph-name="Eogonek" unicode="&#x118;" horiz-adv-x="1004" 
d="M904 0q-173 -93 -173 -180q0 -46 35 -75t91 -29q42 0 85 12v-88q-69 -22 -127 -22q-63 0 -115 28q-92 51 -92 152q0 69 49.5 122.5t138.5 79.5h-616v1365h715v-102h-599v-505h558v-102h-558v-554h608v-102z" />
    <glyph glyph-name="eogonek" unicode="&#x119;" horiz-adv-x="975" 
d="M793 -251v-85q-61 -18 -112 -18q-63 0 -113 26q-39 20 -62.5 58.5t-23.5 81.5q0 49 21.5 80t100.5 97q-50 -13 -92 -13q-189 0 -299 128q-113 131 -113 369q0 276 143 420q101 103 255 103q202 0 306 -176q71 -121 71 -310q0 -11 -1 -38h-662q4 -173 62 -270
q78 -129 233 -129q85 0 139.5 36.5t99.5 122.5l103 -19q-22 -60 -49.5 -97.5t-109.5 -121.5q-41 -42 -67.5 -87.5t-26.5 -74.5q0 -43 33 -69.5t85 -26.5q39 0 79 13zM760 561q-7 116 -48 197q-72 141 -219 141q-115 0 -187 -88.5t-90 -249.5h544z" />
    <glyph glyph-name="Ecaron" unicode="&#x11a;" horiz-adv-x="1004" 
d="M296 758h558v-102h-558v-554h608v-102h-724v1365h715v-102h-599v-505zM878 1758l-260 -262h-152l-260 262h109l227 -188l227 188h109z" />
    <glyph glyph-name="ecaron" unicode="&#x11b;" horiz-adv-x="975" 
d="M874 472h-662q4 -174 62 -271q77 -129 233 -129q84 0 138.5 36.5t100.5 123.5l103 -19q-90 -237 -341 -237q-186 0 -295 128q-113 131 -113 369q0 276 142 420q101 103 255 103q202 0 306 -176q71 -122 71 -310v-38zM760 561q-8 116 -48 197q-72 141 -219 141
q-115 0 -187.5 -88.5t-89.5 -249.5h544zM810 1424l-226 -279h-152l-227 279h110l193 -199l193 199h109z" />
    <glyph glyph-name="Gcircumflex" unicode="&#x11c;" horiz-adv-x="1260" 
d="M734 669h392v-559q-184 -133 -432 -133q-234 0 -368 129q-210 200 -210 584q0 362 198 561q137 137 350 137q220 0 346 -143q74 -84 98 -235h-114q-34 128 -92 185q-89 88 -242 88q-163 0 -262 -107q-155 -170 -155 -489q0 -112 24 -220t65 -180q118 -205 363 -205
q159 0 319 88v388l-280 -1v112zM332 1496l260 262h152l261 -262h-110l-227 188l-227 -188h-109z" />
    <glyph glyph-name="gcircumflex" unicode="&#x11d;" horiz-adv-x="958" 
d="M911 969v-85l-199 5q96 -83 96 -237q0 -143 -87 -218q-33 -28 -75 -44.5t-157 -46.5q-110 -30 -155.5 -56.5t-45.5 -62.5q0 -31 33.5 -43t154.5 -23q145 -14 202.5 -26t105.5 -37q130 -70 130 -223q0 -145 -129 -223q-114 -69 -298 -69q-198 0 -318 86q-102 72 -102 194
q0 88 49.5 146t158.5 96q-103 39 -103 112q0 49 39.5 84.5t134.5 71.5q-203 73 -203 281q0 170 122 262q87 65 219 65q69 0 140 -19zM485 889q-93 0 -157 -57q-73 -65 -73 -177q0 -101 62 -159q63 -59 160 -59q100 0 160 59.5t60 158.5q0 94 -53 158q-61 76 -159 76zM487 46
q-139 0 -219 -40q-98 -50 -98 -142q0 -85 87 -135.5t232 -50.5q183 0 265 72q54 47 54 115q0 88 -82 134.5t-239 46.5zM198 1145l226 279h152l227 -279h-110l-193 199l-193 -199h-109z" />
    <glyph glyph-name="Gbreve" unicode="&#x11e;" horiz-adv-x="1260" 
d="M734 669h392v-559q-184 -133 -432 -133q-234 0 -368 129q-210 200 -210 584q0 362 198 561q137 137 350 137q220 0 346 -143q74 -84 98 -235h-114q-34 128 -92 185q-89 88 -242 88q-163 0 -262 -107q-155 -170 -155 -489q0 -112 24 -220t65 -180q118 -205 363 -205
q159 0 319 88v388l-280 -1v112zM397 1761h76q18 -75 70.5 -119t125.5 -44q72 0 123.5 43.5t69.5 119.5h76q-7 -70 -33 -122q-71 -145 -234 -145q-113 0 -187 72t-87 195z" />
    <glyph glyph-name="gbreve" unicode="&#x11f;" horiz-adv-x="958" 
d="M911 969v-85l-199 5q96 -83 96 -237q0 -143 -87 -218q-33 -28 -75 -44.5t-157 -46.5q-110 -30 -155.5 -56.5t-45.5 -62.5q0 -31 33.5 -43t154.5 -23q145 -14 202.5 -26t105.5 -37q130 -70 130 -223q0 -145 -129 -223q-114 -69 -298 -69q-198 0 -318 86q-102 72 -102 194
q0 88 49.5 146t158.5 96q-103 39 -103 112q0 49 39.5 84.5t134.5 71.5q-203 73 -203 281q0 170 122 262q87 65 219 65q69 0 140 -19zM485 889q-93 0 -157 -57q-73 -65 -73 -177q0 -101 62 -159q63 -59 160 -59q100 0 160 59.5t60 158.5q0 94 -53 158q-61 76 -159 76zM487 46
q-139 0 -219 -40q-98 -50 -98 -142q0 -85 87 -135.5t232 -50.5q183 0 265 72q54 47 54 115q0 88 -82 134.5t-239 46.5zM253 1409h78q16 -77 60.5 -121.5t106.5 -44.5t105 43.5t59 122.5h79q-7 -71 -30 -124q-62 -146 -211 -146q-101 0 -168.5 73.5t-78.5 196.5z" />
    <glyph glyph-name="Gdotaccent" unicode="&#x120;" horiz-adv-x="1260" 
d="M734 669h392v-559q-184 -133 -432 -133q-234 0 -368 129q-210 200 -210 584q0 362 198 561q137 137 350 137q220 0 346 -143q74 -84 98 -235h-114q-34 128 -92 185q-89 88 -242 88q-163 0 -262 -107q-155 -170 -155 -489q0 -112 24 -220t65 -180q118 -205 363 -205
q159 0 319 88v388l-280 -1v112zM668 1744q48 0 82 -34.5t34 -82.5q0 -49 -34 -83t-83 -34t-83 34t-34 83t34.5 83t83.5 34z" />
    <glyph glyph-name="gdotaccent" unicode="&#x121;" horiz-adv-x="958" 
d="M911 969v-85l-199 5q96 -83 96 -237q0 -143 -87 -218q-33 -28 -75 -44.5t-157 -46.5q-110 -30 -155.5 -56.5t-45.5 -62.5q0 -31 33.5 -43t154.5 -23q145 -14 202.5 -26t105.5 -37q130 -70 130 -223q0 -145 -129 -223q-114 -69 -298 -69q-198 0 -318 86q-102 72 -102 194
q0 88 49.5 146t158.5 96q-103 39 -103 112q0 49 39.5 84.5t134.5 71.5q-203 73 -203 281q0 170 122 262q87 65 219 65q69 0 140 -19zM485 889q-93 0 -157 -57q-73 -65 -73 -177q0 -101 62 -159q63 -59 160 -59q100 0 160 59.5t60 158.5q0 94 -53 158q-61 76 -159 76zM487 46
q-139 0 -219 -40q-98 -50 -98 -142q0 -85 87 -135.5t232 -50.5q183 0 265 72q54 47 54 115q0 88 -82 134.5t-239 46.5zM499 1378q40 0 68 -28.5t28 -69.5q0 -40 -28.5 -68.5t-68.5 -28.5q-41 0 -69.5 28.5t-28.5 68.5q0 42 28.5 70t70.5 28z" />
    <glyph glyph-name="Gcommaaccent" unicode="&#x122;" horiz-adv-x="1260" 
d="M734 669h392v-559q-184 -133 -432 -133q-234 0 -368 129q-210 200 -210 584q0 362 198 561q137 137 350 137q220 0 346 -143q74 -84 98 -235h-114q-34 128 -92 185q-89 88 -242 88q-163 0 -262 -107q-155 -170 -155 -489q0 -112 24 -220t65 -180q118 -205 363 -205
q159 0 319 88v388l-280 -1v112zM635 -487h-88q114 105 132 194q-12 -2 -17 -2q-35 0 -60.5 27t-25.5 64q0 40 28.5 67.5t70.5 27.5q47 0 76 -33.5t29 -86.5q0 -118 -145 -258z" />
    <glyph glyph-name="gcommaaccent" unicode="&#x123;" horiz-adv-x="958" 
d="M911 969v-85l-199 5q96 -83 96 -237q0 -143 -87 -218q-33 -28 -75 -44.5t-157 -46.5q-110 -30 -155.5 -56.5t-45.5 -62.5q0 -31 33.5 -43t154.5 -23q145 -14 202.5 -26t105.5 -37q130 -70 130 -223q0 -145 -129 -223q-114 -69 -298 -69q-198 0 -318 86q-102 72 -102 194
q0 88 49.5 146t158.5 96q-103 39 -103 112q0 49 39.5 84.5t134.5 71.5q-203 73 -203 281q0 170 122 262q87 65 219 65q69 0 140 -19zM485 889q-93 0 -157 -57q-73 -65 -73 -177q0 -101 62 -159q63 -59 160 -59q100 0 160 59.5t60 158.5q0 94 -53 158q-61 76 -159 76zM487 46
q-139 0 -219 -40q-98 -50 -98 -142q0 -85 87 -135.5t232 -50.5q183 0 265 72q54 47 54 115q0 88 -82 134.5t-239 46.5zM539 1516h85q-109 -101 -128 -188q11 1 16 1q34 0 59 -26t25 -62q0 -38 -28 -65t-68 -27q-46 0 -74 32.5t-28 84.5q0 113 141 250z" />
    <glyph glyph-name="Hcircumflex" unicode="&#x124;" horiz-adv-x="1267" 
d="M296 763h676v602h116v-1365h-116v666h-676v-666h-116v1365h116v-602zM297 1496l261 262h152l260 -262h-109l-227 188l-227 -188h-110z" />
    <glyph glyph-name="hcircumflex" unicode="&#x125;" horiz-adv-x="992" 
d="M154 1371h106v-517q56 75 121.5 108.5t157.5 33.5q179 0 259 -124q28 -44 37 -104.5t9 -211.5v-556h-106v563q0 113 -5.5 158t-22.5 79q-52 99 -182 99q-144 0 -218 -119q-50 -81 -50 -235v-545h-106v1371zM86 1496l261 262h151l261 -262h-109l-228 188l-227 -188h-109z
" />
    <glyph glyph-name="Hbar" unicode="&#x126;" horiz-adv-x="1267" 
d="M971 1098v267h116v-267h137v-96h-137v-1002h-116v666h-675v-666h-116v1002h-137v96h137v267h116v-267h675zM971 1002h-675v-239h675v239z" />
    <glyph glyph-name="hbar" unicode="&#x127;" horiz-adv-x="992" 
d="M154 1371h106v-147h273v-89h-273v-281q56 75 121.5 108.5t157.5 33.5q179 0 259 -124q28 -44 37 -104.5t9 -211.5v-556h-106v563q0 113 -5.5 158.5t-22.5 79.5q-52 99 -181 99q-145 0 -219 -119q-50 -82 -50 -236v-545h-106v1135h-123v89h123v147z" />
    <glyph glyph-name="Itilde" unicode="&#x128;" horiz-adv-x="476" 
d="M299 0h-122v1365h122v-1365zM-10 1514l-79 34q15 64 35 103q47 89 146 89q68 0 156 -58q64 -43 88.5 -54.5t51.5 -11.5q83 0 99 131l78 -35q-8 -66 -29 -105q-22 -42 -63.5 -67.5t-87.5 -25.5q-38 0 -75 15.5t-102 59.5q-72 48 -115 48q-75 0 -103 -123z" />
    <glyph glyph-name="itilde" unicode="&#x129;" horiz-adv-x="424" 
d="M153 969h117v-969h-117v969zM-14 1163l-76 16q36 211 170 211q62 0 139 -60q87 -66 127 -66q71 0 88 131l80 -18q-10 -88 -45 -144q-46 -73 -121 -73q-65 0 -152 66q-80 61 -119 61q-66 0 -91 -124z" />
    <glyph glyph-name="Imacron" unicode="&#x12a;" horiz-adv-x="476" 
d="M299 0h-122v1365h122v-1365zM0 1672h475v-92h-475v92z" />
    <glyph glyph-name="imacron" unicode="&#x12b;" horiz-adv-x="424" 
d="M153 969h117v-969h-117v969zM-8 1328h439v-95h-439v95z" />
    <glyph glyph-name="Ibreve" unicode="&#x12c;" horiz-adv-x="476" 
d="M299 0h-122v1365h122v-1365zM-33 1761h77q17 -75 70 -119t125 -44q73 0 124 43.5t69 119.5h77q-8 -70 -33 -122q-72 -145 -235 -145q-113 0 -187 72t-87 195z" />
    <glyph glyph-name="ibreve" unicode="&#x12d;" horiz-adv-x="424" 
d="M154 969h117v-969h-117v969zM-19 1396h78q14 -73 55 -113.5t101 -40.5q58 0 97.5 40t53.5 114h78q-25 -258 -226 -258q-101 0 -164.5 69t-72.5 189z" />
    <glyph glyph-name="Iogonek" unicode="&#x12e;" horiz-adv-x="476" 
d="M362 -360q-56 -21 -94 -21q-54 0 -96 28q-77 50 -77 142q0 54 28 98t104 113h-50v1365h122v-1365q-36 -48 -60 -103.5t-24 -90.5q0 -41 23.5 -65.5t61.5 -24.5q14 0 62 12v-88z" />
    <glyph glyph-name="iogonek" unicode="&#x12f;" horiz-adv-x="424" 
d="M271 0q-76 -110 -76 -174q0 -39 24 -65t61 -26q21 0 63 14v-86q-50 -18 -83 -18q-53 0 -98 26q-37 22 -59.5 58.5t-22.5 76.5q0 91 121 194h-47v969h117v-969zM213 1380q38 0 64 -26t26 -65q0 -38 -25.5 -63.5t-64.5 -25.5t-65 25t-26 63q0 39 26 65.5t65 26.5z" />
    <glyph glyph-name="Idotaccent" unicode="&#x130;" horiz-adv-x="476" 
d="M299 0h-122v1365h122v-1365zM239 1744q48 0 82 -34.5t34 -82.5q0 -49 -34 -83t-83 -34t-83 34t-34 83t34.5 83t83.5 34z" />
    <glyph glyph-name="dotlessi" unicode="&#x131;" horiz-adv-x="424" 
d="M154 969h117v-969h-117v969z" />
    <glyph glyph-name="IJ" unicode="&#x132;" horiz-adv-x="1019" 
d="M299 0h-122v1365h122v-1365zM720 1365h122v-1089q0 -126 -5 -173.5t-23 -87.5q-35 -77 -117.5 -120t-195.5 -43q-12 0 -41 1v103q15 -1 21 -1q147 0 204 82q23 34 29 76t6 165v1087z" />
    <glyph glyph-name="ij" unicode="&#x133;" horiz-adv-x="916" 
d="M154 969h117v-969h-117v969zM213 1380q38 0 64 -26t26 -65q0 -38 -25.5 -63.5t-64.5 -25.5t-65 25t-26 63q0 39 26 65.5t65 26.5zM646 969h117v-903q0 -146 -9 -210.5t-36 -112.5q-75 -130 -292 -130q-20 0 -58 1v97q19 -2 38 -2q153 0 204 82q22 35 29 90t7 185v903z
M704 1380q38 0 64 -26t26 -65q0 -38 -25.5 -63.5t-64.5 -25.5t-65 25t-26 63q0 39 26 65.5t65 26.5z" />
    <glyph glyph-name="Jcircumflex" unicode="&#x134;" horiz-adv-x="557" 
d="M258 1365h122v-1089q0 -128 -5 -174t-23 -87q-35 -77 -117.5 -120t-196.5 -43q-12 0 -41 1v103q15 -1 20 -1q144 0 202 77q25 34 32 77t7 169v1087zM-21 1496l261 262h151l261 -262h-109l-228 188l-227 -188h-109z" />
    <glyph glyph-name="jcircumflex" unicode="&#x135;" horiz-adv-x="501" 
d="M230 969h117v-903q0 -146 -9 -210.5t-36 -112.5q-74 -130 -292 -130q-20 0 -58 1v97q19 -2 38 -2q153 0 204 82q22 35 29 90t7 185v903zM-17 1145l226 279h152l227 -279h-110l-193 199l-193 -199h-109z" />
    <glyph glyph-name="Kcommaaccent" unicode="&#x136;" horiz-adv-x="1099" 
d="M870 1365h147l-573 -650l633 -715h-169l-609 713zM180 1365h116v-1365h-116v1365zM553 -487h-87q113 105 132 194q-12 -2 -18 -2q-35 0 -60.5 27t-25.5 64q0 40 28.5 67.5t70.5 27.5q47 0 76 -33.5t29 -86.5q0 -118 -145 -258z" />
    <glyph glyph-name="kcommaaccent" unicode="&#x137;" horiz-adv-x="949" 
d="M690 969h131l-418 -432l448 -537h-151l-436 532zM154 1371h106v-1371h-106v1371zM434 -476h-85q109 101 128 188q-10 -1 -17 -1q-33 0 -58 26t-25 62q0 38 28 65t67 27q46 0 74 -32.5t28 -84.5q0 -115 -140 -250z" />
    <glyph glyph-name="kgreenlandic" unicode="&#x138;" horiz-adv-x="949" 
d="M690 969h131l-418 -432l448 -537h-151l-436 532zM154 969h106v-969h-106v969z" />
    <glyph glyph-name="Lacute" unicode="&#x139;" horiz-adv-x="946" 
d="M180 1365h122v-1263h581v-102h-703v1365zM153 1496l264 262h170l-315 -262h-119z" />
    <glyph glyph-name="lacute" unicode="&#x13a;" horiz-adv-x="424" 
d="M154 1371h117v-1371h-117v1371zM140 1496l210 262h163l-261 -262h-112z" />
    <glyph glyph-name="Lcommaaccent" unicode="&#x13b;" horiz-adv-x="946" 
d="M180 1365h122v-1263h581v-102h-703v1365zM496 -487h-87q113 105 131 194q-12 -2 -17 -2q-35 0 -60.5 27t-25.5 64q0 40 28.5 67.5t70.5 27.5q46 0 75.5 -33.5t29.5 -86.5q0 -118 -145 -258z" />
    <glyph glyph-name="lcommaaccent" unicode="&#x13c;" horiz-adv-x="424" 
d="M154 1371h117v-1371h-117v1371zM171 -476h-85q109 101 128 188q-10 -1 -17 -1q-33 0 -58 26t-25 62q0 38 28 65t67 27q46 0 74 -32.5t28 -84.5q0 -115 -140 -250z" />
    <glyph glyph-name="Lcaron" unicode="&#x13d;" horiz-adv-x="946" 
d="M180 1365h122v-1263h581v-102h-703v1365zM565 1015h-87q113 105 132 193q-12 -1 -18 -1q-35 0 -60.5 27t-25.5 63q0 40 28.5 67.5t70.5 27.5q46 0 75.5 -33.5t29.5 -86.5q0 -117 -145 -257z" />
    <glyph glyph-name="lcaron" unicode="&#x13e;" horiz-adv-x="536" 
d="M154 1371h117v-1371h-117v1371zM438 1026h-85q109 101 127 188q-11 -2 -16 -2q-34 0 -59 26t-25 62q0 38 28 65t68 27q45 0 73.5 -32.5t28.5 -84.5q0 -115 -140 -249z" />
    <glyph glyph-name="Ldot" unicode="&#x13f;" horiz-adv-x="946" 
d="M180 1365h122v-1263h581v-102h-703v1365zM698 806q49 0 84 -35t35 -83q0 -49 -35 -83.5t-85 -34.5q-49 0 -84 34.5t-35 82.5q0 50 35 84.5t85 34.5z" />
    <glyph glyph-name="ldot" unicode="&#x140;" horiz-adv-x="620" 
d="M153 1371h117v-1371h-117v1371zM514 818q43 0 74 -31t31 -74t-31 -73.5t-75 -30.5q-43 0 -74 30.5t-31 73.5q0 44 31 74.5t75 30.5z" />
    <glyph glyph-name="Lslash" unicode="&#x141;" horiz-adv-x="946" 
d="M180 694v671h122v-607l299 225v-117l-299 -224v-540h581v-102h-703v577l-137 -102v117z" />
    <glyph glyph-name="lslash" unicode="&#x142;" horiz-adv-x="424" 
d="M154 743v628h117v-570l148 108v-105l-148 -108v-696h-117v638l-149 -109v105z" />
    <glyph glyph-name="Nacute" unicode="&#x143;" horiz-adv-x="1285" 
d="M180 1365h129l688 -1195v1195h108v-1365h-135l-680 1191v-1191h-110v1365zM511 1496l265 262h170l-316 -262h-119z" />
    <glyph glyph-name="nacute" unicode="&#x144;" horiz-adv-x="1005" 
d="M131 969h103q19 -55 20 -146q96 173 298 173q105 0 178.5 -43t101.5 -121q17 -46 21 -89t4 -187v-556h-106v563q0 115 -5 158t-21 79q-47 100 -182 100q-147 0 -228 -119q-55 -82 -55 -225v-556h-106v645q0 176 -3 218t-20 106zM374 1144l196 263h170l-270 -263h-96z" />
    <glyph glyph-name="Ncommaaccent" unicode="&#x145;" horiz-adv-x="1285" 
d="M180 1365h129l688 -1195v1195h108v-1365h-135l-680 1191v-1191h-110v1365zM586 -487h-87q113 104 131 194q-11 -2 -17 -2q-35 0 -60.5 27t-25.5 64q0 40 29 67.5t70 27.5q46 0 75.5 -33.5t29.5 -86.5q0 -119 -145 -258z" />
    <glyph glyph-name="ncommaaccent" unicode="&#x146;" horiz-adv-x="1005" 
d="M131 969h103q19 -55 20 -146q96 173 298 173q105 0 178.5 -43t101.5 -121q17 -46 21 -89t4 -187v-556h-106v563q0 115 -5 158t-21 79q-47 100 -182 100q-147 0 -228 -119q-55 -82 -55 -225v-556h-106v645q0 176 -3 218t-20 106zM466 -476h-85q109 101 128 188
q-10 -1 -17 -1q-33 0 -58 26t-25 62q0 38 28 65t68 27q45 0 73.5 -32.5t28.5 -84.5q0 -114 -141 -250z" />
    <glyph glyph-name="Ncaron" unicode="&#x147;" horiz-adv-x="1285" 
d="M180 1365h129l688 -1195v1195h108v-1365h-135l-680 1191v-1191h-110v1365zM979 1758l-260 -262h-152l-261 262h109l228 -188l227 188h109z" />
    <glyph glyph-name="ncaron" unicode="&#x148;" horiz-adv-x="1005" 
d="M131 969h103q19 -55 20 -146q96 173 298 173q105 0 178.5 -43t101.5 -121q17 -46 21 -89t4 -187v-556h-106v563q0 115 -5 158t-21 79q-47 100 -182 100q-147 0 -228 -119q-55 -82 -55 -225v-556h-106v645q0 176 -3 218t-20 106zM782 1424l-226 -279h-152l-226 279h109
l193 -199l193 199h109z" />
    <glyph glyph-name="napostrophe" unicode="&#x149;" horiz-adv-x="1211" 
d="M208 938h-129q136 127 160 240q-12 -1 -20 -1q-39 0 -68 30.5t-29 72.5q0 45 32.5 76.5t78.5 31.5q54 0 87 -38.5t33 -99.5q0 -145 -145 -312zM337 969h104q18 -56 19 -146q96 173 298 173q104 0 177.5 -43t101.5 -121q17 -46 21 -88.5t4 -187.5v-556h-106v563
q0 115 -4.5 158t-21.5 79q-46 100 -182 100q-147 0 -227 -119q-55 -83 -55 -225v-556h-106v645q0 176 -3 218t-20 106z" />
    <glyph glyph-name="Eng" unicode="&#x14a;" horiz-adv-x="1164" 
d="M152 1388h111q25 -69 25 -172q110 172 342 172q109 0 193 -43.5t125 -121.5q42 -81 42 -274v-912q0 -129 -5 -174t-23 -87q-34 -76 -117 -119.5t-195 -43.5q-13 0 -42 1v103q15 -1 23 -1q150 0 208 82q24 35 30.5 76t6.5 165v916q0 153 -41 220q-66 108 -224 108
q-170 0 -258 -118q-32 -44 -45.5 -98t-13.5 -141v-926h-114v1038q0 187 -3.5 230t-24.5 120z" />
    <glyph glyph-name="eng" unicode="&#x14b;" horiz-adv-x="1002" 
d="M128 969h103q19 -55 20 -146q97 173 298 173q105 0 178.5 -43t101.5 -121q17 -46 21 -89t4 -187v-490q0 -146 -9 -210t-37 -113q-74 -130 -291 -130q-20 0 -58 1v97q21 -2 38 -2q160 0 213 82q23 35 30.5 90t7.5 185v497q0 115 -5 158t-21 79q-47 100 -182 100
q-147 0 -228 -119q-55 -82 -55 -225v-556h-106v645q0 176 -3 218t-20 106z" />
    <glyph glyph-name="Omacron" unicode="&#x14c;" horiz-adv-x="1305" 
d="M653 1388q154 0 278 -90q136 -99 204 -287q54 -148 54 -328q0 -312 -156 -516q-75 -98 -184 -148q-91 -42 -195 -42q-238 0 -382 190q-156 204 -156 525q0 204 74 369q79 178 224 263q108 64 239 64zM653 1283q-183 0 -293 -166q-117 -177 -117 -427q0 -264 117 -442
q110 -166 293 -166t292 166q117 179 117 435q0 260 -117 434q-112 166 -292 166zM367 1672h571v-92h-571v92z" />
    <glyph glyph-name="omacron" unicode="&#x14d;" horiz-adv-x="1010" 
d="M505 996q168 0 277 -122q128 -145 128 -389q0 -243 -128 -388q-108 -121 -276 -121q-170 0 -278 121q-128 145 -128 395q0 238 128 382q110 122 277 122zM506 899q-126 0 -202 -99q-92 -121 -92 -310q0 -199 92 -319q76 -98 202 -98t201 98q92 120 92 314q0 196 -92 315
q-77 99 -201 99zM220 1328h548v-95h-548v95z" />
    <glyph glyph-name="Obreve" unicode="&#x14e;" horiz-adv-x="1305" 
d="M653 1388q154 0 278 -90q136 -99 204 -287q54 -148 54 -328q0 -312 -156 -516q-75 -98 -184 -148q-91 -42 -195 -42q-238 0 -382 190q-156 204 -156 525q0 204 74 369q79 178 224 263q108 64 239 64zM653 1283q-183 0 -293 -166q-117 -177 -117 -427q0 -264 117 -442
q110 -166 293 -166t292 166q117 179 117 435q0 260 -117 434q-112 166 -292 166zM382 1761h76q18 -75 70.5 -119t125.5 -44q72 0 123.5 43.5t69.5 119.5h76q-7 -70 -33 -122q-71 -145 -234 -145q-113 0 -187 72t-87 195z" />
    <glyph glyph-name="obreve" unicode="&#x14f;" horiz-adv-x="1010" 
d="M505 996q168 0 277 -122q128 -145 128 -389q0 -243 -128 -388q-108 -121 -276 -121q-170 0 -278 121q-128 145 -128 395q0 238 128 382q110 122 277 122zM506 899q-126 0 -202 -99q-92 -121 -92 -310q0 -199 92 -319q76 -98 202 -98t201 98q92 120 92 314q0 196 -92 315
q-77 99 -201 99zM261 1409h78q16 -77 60.5 -121.5t106.5 -44.5t105.5 43.5t59.5 122.5h78q-7 -71 -30 -124q-62 -146 -210 -146q-102 0 -169.5 73.5t-78.5 196.5z" />
    <glyph glyph-name="Ohungarumlaut" unicode="&#x150;" horiz-adv-x="1305" 
d="M653 1388q153 0 279 -90q139 -99 205 -286q52 -146 52 -327q0 -321 -154 -520q-146 -188 -389 -188q-147 0 -273 89q-137 98 -205 287q-52 145 -52 330q0 322 154 517q149 188 383 188zM652 1283q-123 0 -223 -82q-102 -84 -150 -248q-36 -121 -36 -270q0 -267 112 -437
q51 -78 134 -123q76 -41 158 -41q130 0 230 82q100 83 149 248q36 120 36 273q0 268 -112 434q-53 79 -134 123q-77 41 -164 41zM489 1496l196 262h136l-230 -262h-102zM701 1496l196 262h136l-230 -262h-102z" />
    <glyph glyph-name="ohungarumlaut" unicode="&#x151;" horiz-adv-x="1010" 
d="M505 996q168 0 277 -122q128 -145 128 -389q0 -243 -128 -388q-108 -121 -276 -121q-170 0 -278 121q-128 145 -128 395q0 238 128 382q110 122 277 122zM506 899q-126 0 -202 -99q-92 -121 -92 -310q0 -199 92 -319q76 -98 202 -98t201 98q92 120 92 314q0 196 -92 315
q-77 99 -201 99zM354 1143l174 263h136l-208 -263h-102zM566 1143l173 263h136l-207 -263h-102z" />
    <glyph glyph-name="OE" unicode="&#x152;" horiz-adv-x="1881" 
d="M1066 1167v198h706v-102h-590l-1 -505h550v-102h-549v-554h599v-102h-715v200q-151 -223 -400 -223q-248 0 -398 191q-152 194 -152 511q0 356 184 556q142 153 367 153q241 0 399 -221zM655 1283q-149 0 -245 -100q-166 -171 -166 -493q0 -338 163 -506
q100 -103 253 -103q71 0 136 26.5t109 72.5q159 169 159 501q0 224 -75 377q-109 225 -334 225z" />
    <glyph glyph-name="oe" unicode="&#x153;" horiz-adv-x="1663" 
d="M1561 461h-655q6 -161 58 -251q80 -138 239 -138q171 0 240 161l103 -19q-93 -238 -343 -238q-245 0 -359 229q-121 -229 -339 -229q-187 0 -301 151q-104 137 -104 354q0 258 139 402q109 113 271 113q224 0 336 -238q39 85 96 140q103 98 245 98q218 0 320 -207
q57 -116 57 -262q0 -19 -3 -66zM1440 550q-2 141 -59 236q-68 113 -200 113t-209 -128q-51 -86 -66 -221h534zM507 899q-134 0 -215 -115q-80 -113 -80 -301q0 -184 80 -297q79 -113 211 -113q62 0 117 29.5t89 81.5q77 118 77 301q0 187 -78 301q-76 113 -201 113z" />
    <glyph glyph-name="Racute" unicode="&#x154;" horiz-adv-x="1130" 
d="M180 1365h207q158 0 227 -6.5t137 -29.5q114 -37 176 -138q53 -84 53 -200q0 -271 -294 -368l375 -623h-145l-367 606h-253v-606h-116v1365zM296 708h96q134 0 188.5 5t105.5 23q79 27 122.5 94t43.5 162q0 88 -37.5 150.5t-105.5 89.5q-49 19 -108.5 25t-205.5 6h-99
v-555zM396 1496l264 262h170l-315 -262h-119z" />
    <glyph glyph-name="racute" unicode="&#x155;" horiz-adv-x="635" 
d="M139 969h101q17 -77 17 -148q0 -20 -3 -62q51 124 109 180.5t135 56.5q66 0 130 -34v-106q-81 36 -125 36q-55 0 -106.5 -43t-86.5 -118q-47 -102 -47 -302v-428l-109 -1v623q-1 241 -15 346zM257 1144l196 263h170l-270 -263h-96z" />
    <glyph glyph-name="Rcommaaccent" unicode="&#x156;" horiz-adv-x="1130" 
d="M180 1365h207q158 0 227 -6.5t137 -29.5q114 -37 176 -138q53 -84 53 -200q0 -271 -294 -368l375 -623h-145l-367 606h-253v-606h-116v1365zM296 708h96q134 0 188.5 5t105.5 23q79 27 122.5 94t43.5 162q0 88 -37.5 150.5t-105.5 89.5q-49 19 -108.5 25t-205.5 6h-99
v-555zM550 -487h-87q112 103 132 194q-12 -2 -18 -2q-34 0 -59.5 27t-25.5 64q0 40 28.5 67.5t69.5 27.5q47 0 76 -33.5t29 -86.5q0 -119 -145 -258z" />
    <glyph glyph-name="rcommaaccent" unicode="&#x157;" horiz-adv-x="635" 
d="M138 969h101q17 -75 17 -148q0 -20 -3 -62q51 124 109 180.5t136 56.5q65 0 129 -34v-106q-81 36 -125 36q-55 0 -106.5 -43t-86.5 -118q-47 -102 -47 -302v-428l-109 -1v623q0 241 -15 346zM171 -476h-85q109 101 128 188q-10 -1 -17 -1q-33 0 -58 26t-25 62q0 38 28 65
t67 27q46 0 74 -32.5t28 -84.5q0 -115 -140 -250z" />
    <glyph glyph-name="Rcaron" unicode="&#x158;" horiz-adv-x="1130" 
d="M180 1365h207q158 0 227 -6.5t137 -29.5q114 -37 176 -138q53 -84 53 -200q0 -271 -294 -368l375 -623h-145l-367 606h-253v-606h-116v1365zM296 708h96q134 0 188.5 5t105.5 23q79 27 122.5 94t43.5 162q0 88 -37.5 150.5t-105.5 89.5q-49 19 -108.5 25t-205.5 6h-99
v-555zM868 1758l-260 -262h-152l-261 262h110l227 -188l227 188h109z" />
    <glyph glyph-name="rcaron" unicode="&#x159;" horiz-adv-x="635" 
d="M138 969h101q17 -77 17 -148q0 -20 -3 -62q51 124 109 180.5t136 56.5q65 0 129 -34v-106q-81 36 -125 36q-55 0 -106.5 -43t-86.5 -118q-47 -102 -47 -302v-428l-109 -1v623q0 241 -15 346zM672 1424l-227 -279h-152l-226 279h109l193 -199l193 199h110z" />
    <glyph glyph-name="Sacute" unicode="&#x15a;" horiz-adv-x="1109" 
d="M940 1028h-114q-12 112 -69 173q-76 82 -211 82q-107 0 -178 -55q-88 -67 -88 -171q0 -97 86 -159q34 -25 65 -41t184 -87q222 -103 287 -185q78 -96 78 -229q0 -189 -148 -296q-115 -83 -283 -83q-225 0 -341 142q-82 100 -92 281h116q7 -136 69 -212q41 -50 108 -78
t145 -28q132 0 218 74t86 193q0 107 -78 179q-53 49 -204 119q-220 102 -279 144q-136 98 -136 258q0 155 122 252q109 87 271 87q174 0 275.5 -94.5t110.5 -265.5zM420 1496l264 262h170l-315 -262h-119z" />
    <glyph glyph-name="sacute" unicode="&#x15b;" horiz-adv-x="865" 
d="M757 711h-104q-10 92 -54 134q-55 54 -159 54q-91 0 -146.5 -44.5t-55.5 -117.5q0 -63 45 -98t177 -75q118 -35 172.5 -60t85.5 -59q59 -63 59 -172q0 -128 -82 -207q-91 -90 -255 -90q-166 0 -255.5 82t-89.5 234l105 -1q20 -218 240 -218q96 0 157 47q67 51 67 143
q0 83 -60 125q-24 18 -55.5 29.5t-165.5 53.5q-147 45 -200 105q-56 64 -56 158q0 130 102 200q89 62 213 62q147 0 228 -73.5t87 -211.5zM336 1144l196 263h171l-270 -263h-97z" />
    <glyph glyph-name="Scircumflex" unicode="&#x15c;" horiz-adv-x="1109" 
d="M940 1028h-114q-12 112 -69 173q-76 82 -211 82q-107 0 -178 -55q-88 -67 -88 -171q0 -97 86 -159q34 -25 65 -41t184 -87q222 -103 287 -185q78 -96 78 -229q0 -189 -148 -296q-115 -83 -283 -83q-225 0 -341 142q-82 100 -92 281h116q7 -136 69 -212q41 -50 108 -78
t145 -28q132 0 218 74t86 193q0 107 -78 179q-53 49 -204 119q-220 102 -279 144q-136 98 -136 258q0 155 122 252q109 87 271 87q174 0 275.5 -94.5t110.5 -265.5zM218 1496l261 262h152l260 -262h-109l-227 188l-227 -188h-110z" />
    <glyph glyph-name="scircumflex" unicode="&#x15d;" horiz-adv-x="865" 
d="M757 711h-104q-10 92 -54 134q-55 54 -159 54q-91 0 -146.5 -44.5t-55.5 -117.5q0 -63 45 -98t177 -75q118 -35 172.5 -60t85.5 -59q59 -63 59 -172q0 -128 -82 -207q-91 -90 -255 -90q-166 0 -255.5 82t-89.5 234l105 -1q20 -218 240 -218q96 0 157 47q67 51 67 143
q0 83 -60 125q-24 18 -55.5 29.5t-165.5 53.5q-147 45 -200 105q-56 64 -56 158q0 130 102 200q89 62 213 62q147 0 228 -73.5t87 -211.5zM147 1145l226 279h152l226 -279h-109l-193 199l-193 -199h-109z" />
    <glyph glyph-name="Scedilla" unicode="&#x15e;" horiz-adv-x="1109" 
d="M562 -23l-51 -121q186 -18 186 -159q0 -77 -56 -123t-151 -46q-69 0 -146 26v77q64 -18 103 -18q55 0 87.5 26t32.5 70q0 48 -37.5 69t-129.5 24l76 180q-342 43 -360 418h116q6 -136 69 -212q40 -50 107.5 -78t145.5 -28q132 0 218 74q86 75 86 193q0 107 -78 180
q-53 48 -204 118q-219 101 -279 144q-136 98 -136 258q0 155 122 252q109 87 270 87q174 0 275.5 -94.5t111.5 -265.5h-115q-12 112 -68 173q-76 82 -211 82q-107 0 -178 -55q-88 -67 -88 -171q0 -97 86 -159q34 -25 65 -41t184 -87q222 -103 287 -184q78 -97 78 -230
q0 -165 -116 -270t-302 -109z" />
    <glyph glyph-name="scedilla" unicode="&#x15f;" horiz-adv-x="865" 
d="M461 -23l-50 -99q172 -21 172 -143q0 -71 -52.5 -114.5t-139.5 -43.5q-73 0 -143 28v71q66 -19 103 -19q52 0 81.5 24.5t29.5 66.5q0 45 -36 66t-122 26l73 140q-282 35 -282 312l105 -1q20 -218 240 -218q96 0 157 47q67 52 67 143q0 83 -60 125q-25 18 -56 29.5
t-165 53.5q-147 45 -200 105q-56 64 -56 158q0 130 101 200q90 62 214 62q147 0 228 -73.5t87 -211.5h-104q-10 92 -54 134q-55 54 -159 54q-91 0 -146.5 -44.5t-55.5 -117.5q0 -63 45 -98t177 -75q118 -35 172.5 -60t85.5 -59q59 -63 59 -171q0 -176 -145 -255
q-69 -37 -171 -42z" />
    <glyph glyph-name="Scaron" unicode="&#x160;" horiz-adv-x="1109" 
d="M940 1028h-114q-12 112 -69 173q-76 82 -211 82q-107 0 -178 -55q-88 -67 -88 -171q0 -97 86 -159q34 -25 65 -41t184 -87q222 -103 287 -185q78 -96 78 -229q0 -189 -148 -296q-115 -83 -283 -83q-225 0 -341 142q-82 100 -92 281h116q7 -136 69 -212q41 -50 108 -78
t145 -28q132 0 218 74t86 193q0 107 -78 179q-53 49 -204 119q-220 102 -279 144q-136 98 -136 258q0 155 122 252q109 87 271 87q174 0 275.5 -94.5t110.5 -265.5zM891 1758l-260 -262h-152l-261 262h110l227 -188l227 188h109z" />
    <glyph glyph-name="scaron" unicode="&#x161;" horiz-adv-x="865" 
d="M757 711h-104q-10 92 -54 134q-55 54 -159 54q-91 0 -146.5 -44.5t-55.5 -117.5q0 -63 45 -98t177 -75q118 -35 172.5 -60t85.5 -59q59 -63 59 -172q0 -128 -82 -207q-91 -90 -255 -90q-166 0 -255.5 82t-89.5 234l105 -1q20 -218 240 -218q96 0 157 47q67 51 67 143
q0 83 -60 125q-24 18 -55.5 29.5t-165.5 53.5q-147 45 -200 105q-56 64 -56 158q0 130 102 200q89 62 213 62q147 0 228 -73.5t87 -211.5zM749 1424l-227 -279h-152l-226 279h109l193 -199l193 199h110z" />
    <glyph glyph-name="Tcommaaccent" unicode="&#x162;" horiz-adv-x="921" 
d="M49 1365h824v-102h-354v-1263h-116v1263h-354v102zM418 -487h-87q113 104 131 194q-11 -2 -17 -2q-35 0 -60.5 27t-25.5 64q0 40 29 67.5t70 27.5q47 0 76 -33.5t29 -86.5q0 -119 -145 -258z" />
    <glyph glyph-name="tcommaaccent" unicode="&#x163;" horiz-adv-x="612" 
d="M310 969h242l-1 -89h-243l-9 -530q-2 -93 -2 -109q0 -106 22 -133q28 -34 90 -34q66 0 140 33l-2 -100q-76 -26 -156 -26q-110 0 -158 45.5t-48 148.5l6 180l12 525h-146l2 89h145l5 280h106zM298 -476h-85q109 101 127 188q-9 -1 -16 -1q-34 0 -59 26t-25 62q0 38 28 65
t68 27q45 0 73.5 -32.5t28.5 -84.5q0 -114 -140 -250z" />
    <glyph glyph-name="Tcaron" unicode="&#x164;" horiz-adv-x="921" 
d="M49 1365h824v-102h-354v-1263h-116v1263h-354v102zM797 1758l-260 -262h-152l-260 262h109l227 -188l227 188h109z" />
    <glyph glyph-name="tcaron" unicode="&#x165;" horiz-adv-x="579" 
d="M310 969h242l-1 -89h-243l-9 -530q-2 -93 -2 -109q0 -106 22 -133q28 -34 90 -34q66 0 140 33l-2 -100q-76 -26 -156 -26q-110 0 -158 45.5t-48 148.5l6 180l12 525h-146l2 89h145l5 280h106zM480 1079h-85q109 101 128 188q-10 -1 -17 -1q-33 0 -58 26t-25 62
q0 38 27.5 65t67.5 27q46 0 74 -32.5t28 -84.5q0 -115 -140 -250z" />
    <glyph glyph-name="Tbar" unicode="&#x166;" horiz-adv-x="921" 
d="M49 1365h824v-102h-354v-383h267v-96h-267v-784h-116v784h-267v96h267v383h-354v102z" />
    <glyph glyph-name="tbar" unicode="&#x167;" horiz-adv-x="612" 
d="M310 969h242l-1 -89h-243l-2 -161h242l-2 -89h-242l-5 -280v-87v-22q0 -106 22 -133q27 -34 89 -34q67 0 139 33l-2 -100q-76 -26 -155 -26q-109 0 -157.5 45t-48.5 146l5 183l7 275h-140v89h142l3 161h-146l2 89h145l5 280h106z" />
    <glyph glyph-name="Utilde" unicode="&#x168;" horiz-adv-x="1246" 
d="M159 1365h116v-810q1 -155 6 -200q11 -111 64 -170q42 -48 116 -75.5t161 -27.5q119 0 209 49q63 33 94 85.5t40 138.5q4 45 5 200v810h116v-812q0 -168 -4 -218t-23 -103q-43 -121 -156 -188q-114 -67 -281 -67q-194 0 -315 91q-82 61 -115 146.5t-33 238.5v100v812z
M375 1514l-79 34q15 64 35 103q47 89 146 89q68 0 156 -58q64 -43 88.5 -54.5t51.5 -11.5q83 0 99 131l77 -35q-8 -66 -28 -105q-22 -42 -63.5 -67.5t-87.5 -25.5q-38 0 -75 15.5t-102 59.5q-72 48 -115 48q-75 0 -103 -123z" />
    <glyph glyph-name="utilde" unicode="&#x169;" horiz-adv-x="979" 
d="M149 969h106v-605q0 -153 33 -206q54 -85 177 -85q136 0 209 115q46 72 46 223v558h106v-675q0 -169 3 -207t19 -87h-107q-20 62 -21 138q-42 -86 -101.5 -124t-153.5 -38q-117 0 -197 58q-94 66 -112 184q-7 45 -7 151v600zM266 1163l-76 16q35 211 170 211
q61 0 139 -60q87 -66 126 -66q72 0 88 131l80 -18q-9 -88 -44 -144q-46 -73 -122 -73q-64 0 -151 66q-81 61 -119 61q-67 0 -91 -124z" />
    <glyph glyph-name="Umacron" unicode="&#x16a;" horiz-adv-x="1246" 
d="M159 1365h116v-810q1 -155 6 -200q11 -111 64 -170q42 -48 116 -75.5t161 -27.5q119 0 209 49q63 33 94 85.5t40 138.5q4 45 5 200v810h116v-812q0 -168 -4 -218t-23 -103q-43 -121 -156 -188q-114 -67 -281 -67q-194 0 -315 91q-82 61 -115 146.5t-33 238.5v100v812z
M337 1672h571v-92h-571v92z" />
    <glyph glyph-name="umacron" unicode="&#x16b;" horiz-adv-x="979" 
d="M149 969h106v-605q0 -153 33 -206q54 -85 177 -85q136 0 209 115q46 72 46 223v558h106v-675q0 -169 3 -207t19 -87h-107q-20 62 -21 138q-42 -86 -101.5 -124t-153.5 -38q-117 0 -197 58q-94 66 -112 184q-7 45 -7 151v600zM211 1328h548v-95h-548v95z" />
    <glyph glyph-name="Ubreve" unicode="&#x16c;" horiz-adv-x="1246" 
d="M159 1365h116v-810q1 -155 6 -200q11 -111 64 -170q42 -48 116 -75.5t161 -27.5q119 0 209 49q63 33 94 85.5t40 138.5q4 45 5 200v810h116v-812q0 -168 -4 -218t-23 -103q-43 -121 -156 -188q-114 -67 -281 -67q-194 0 -315 91q-82 61 -115 146.5t-33 238.5v100v812z
M352 1761h77q17 -75 69.5 -119t125.5 -44q72 0 123.5 43.5t69.5 119.5h77q-8 -70 -33 -122q-72 -145 -235 -145q-113 0 -187 72t-87 195z" />
    <glyph glyph-name="ubreve" unicode="&#x16d;" horiz-adv-x="979" 
d="M149 969h106v-605q0 -153 33 -206q54 -85 177 -85q136 0 209 115q46 72 46 223v558h106v-675q0 -169 3 -207t19 -87h-107q-20 62 -21 138q-42 -86 -101.5 -124t-153.5 -38q-117 0 -197 58q-94 66 -112 184q-7 45 -7 151v600zM246 1409h79q15 -77 60 -121.5t106 -44.5
q63 0 106 43.5t59 122.5h78q-7 -71 -29 -124q-63 -146 -211 -146q-102 0 -169 73.5t-79 196.5z" />
    <glyph glyph-name="Uring" unicode="&#x16e;" horiz-adv-x="1246" 
d="M159 1365h116v-810q1 -155 6 -200q11 -111 64 -170q42 -48 116 -75.5t161 -27.5q119 0 209 49q63 33 94 85.5t40 138.5q4 45 5 200v810h116v-812q0 -168 -4 -218t-23 -103q-43 -121 -156 -188q-114 -67 -281 -67q-194 0 -315 91q-82 61 -115 146.5t-33 238.5v100v812z
M625 1828q75 0 128.5 -54t53.5 -130t-54 -130t-130 -54t-130 54t-54 130q0 77 54 130.5t132 53.5zM624 1746q-43 0 -73 -29.5t-30 -72.5q0 -41 30 -71t72 -30t72 29.5t30 71.5t-29.5 72t-71.5 30z" />
    <glyph glyph-name="uring" unicode="&#x16f;" horiz-adv-x="979" 
d="M149 969h106v-605q0 -153 33 -206q54 -85 177 -85q136 0 209 115q46 72 46 223v558h106v-675q0 -169 3 -207t19 -87h-107q-20 62 -21 138q-42 -86 -101.5 -124t-153.5 -38q-117 0 -197 58q-94 66 -112 184q-7 45 -7 151v600zM493 1480q74 0 127.5 -54t53.5 -130
t-53.5 -130t-130.5 -54q-76 0 -129 54q-54 54 -54 130q0 77 54 130.5t132 53.5zM492 1398q-43 0 -73 -29.5t-30 -72.5q0 -42 29.5 -72t72.5 -30q42 0 71.5 30t29.5 72t-29.5 72t-70.5 30z" />
    <glyph glyph-name="Uhungarumlaut" unicode="&#x170;" horiz-adv-x="1246" 
d="M159 1365h116v-810q1 -155 6 -200q11 -111 64 -170q42 -48 116 -75.5t161 -27.5q119 0 209 49q63 33 94 85.5t40 138.5q4 45 5 200v810h116v-812q0 -168 -4 -218t-23 -103q-43 -121 -156 -188q-114 -67 -281 -67q-194 0 -315 91q-82 61 -115 146.5t-33 238.5v100v812z
M439 1496l196 262h136l-230 -262h-102zM644 1496l196 262h136l-230 -262h-102z" />
    <glyph glyph-name="uhungarumlaut" unicode="&#x171;" horiz-adv-x="979" 
d="M149 969h106v-605q0 -153 33 -206q54 -85 177 -85q136 0 209 115q46 72 46 223v558h106v-675q0 -169 3 -207t19 -87h-107q-20 62 -21 138q-42 -86 -101.5 -124t-153.5 -38q-117 0 -197 58q-94 66 -112 184q-7 45 -7 151v600zM326 1143l173 263h136l-207 -263h-102z
M538 1143l173 263h136l-207 -263h-102z" />
    <glyph glyph-name="Uogonek" unicode="&#x172;" horiz-adv-x="1246" 
d="M967 -272v-88q-70 -21 -127 -21q-65 0 -114 28q-93 52 -93 148q0 55 31.5 95.5t128.5 110.5q-88 -24 -169 -24q-196 0 -317 91q-82 62 -115 147t-33 238v100v812h116v-810q1 -155 6 -200q11 -111 64 -170q42 -48 116 -75.5t161 -27.5q119 0 209 49q62 33 93.5 85.5
t39.5 138.5q6 55 6 200v810h116v-812q0 -163 -4.5 -217t-22.5 -103q-20 -57 -56 -103.5t-120 -125.5q-126 -119 -126 -184q0 -46 35 -74.5t90 -28.5q41 0 85 11z" />
    <glyph glyph-name="uogonek" unicode="&#x173;" horiz-adv-x="979" 
d="M848 0q-89 -67 -116.5 -99.5t-27.5 -69.5q0 -42 33 -68.5t85 -26.5q39 0 79 13v-85q-62 -18 -113 -18q-62 0 -112 26q-39 20 -62.5 58.5t-23.5 82.5q0 57 27 90.5t124 96.5q-20 62 -21 138q-42 -86 -101.5 -124t-153.5 -38q-117 0 -197 58q-94 66 -112 184q-7 45 -7 151
v600h106v-605q0 -153 33 -206q54 -85 177 -85q136 0 209 115q46 72 46 223v558h106v-675q1 -171 3.5 -207.5t18.5 -86.5z" />
    <glyph glyph-name="Wcircumflex" unicode="&#x174;" horiz-adv-x="1528" 
d="M43 1365h112l266 -1196l293 1196h101l294 -1196l268 1196h112l-319 -1376h-120l-285 1126l-286 -1126h-120zM431 1496l260 262h152l261 -262h-109l-228 188l-227 -188h-109z" />
    <glyph glyph-name="wcircumflex" unicode="&#x175;" horiz-adv-x="1293" 
d="M32 969h113l217 -796l236 796h97l236 -796l217 796h113l-279 -983h-97l-238 822l-239 -822h-97zM344 1145l227 279h152l226 -279h-109l-193 199l-193 -199h-110z" />
    <glyph glyph-name="Ycircumflex" unicode="&#x176;" horiz-adv-x="1014" 
d="M32 1365h137l340 -669l336 669h137l-420 -780l3 -585h-116l3 585zM171 1496l260 262h152l261 -262h-110l-227 188l-227 -188h-109z" />
    <glyph glyph-name="ycircumflex" unicode="&#x177;" horiz-adv-x="855" 
d="M33 969h115l279 -831l289 831h112l-316 -887q-66 -190 -92 -250t-64 -111q-95 -129 -268 -129q-16 0 -34 1v95q131 0 188 57q34 34 57.5 82t68.5 174zM128 1145l226 279h152l227 -279h-110l-193 199l-193 -199h-109z" />
    <glyph glyph-name="Ydieresis" unicode="&#x178;" horiz-adv-x="1014" 
d="M32 1365h137l340 -669l336 669h137l-420 -780l3 -585h-116l3 585zM329 1732q42 0 72.5 -30.5t30.5 -74.5q0 -43 -30.5 -73.5t-73.5 -30.5q-44 0 -74.5 30.5t-30.5 73.5q0 44 30.5 74.5t75.5 30.5zM689 1732q42 0 72.5 -30.5t30.5 -74.5q0 -43 -30.5 -73.5t-73.5 -30.5
q-44 0 -74.5 30.5t-30.5 73.5q0 44 30.5 74.5t75.5 30.5z" />
    <glyph glyph-name="Zacute" unicode="&#x179;" horiz-adv-x="1003" 
d="M106 1365h826v-79l-727 -1184h716v-102h-853v90l720 1173h-682v102zM383 1496l264 262h170l-315 -262h-119z" />
    <glyph glyph-name="zacute" unicode="&#x17a;" horiz-adv-x="796" 
d="M84 969h675v-77l-589 -803h572v-89h-698v85l581 795h-541v89zM307 1144l196 263h170l-270 -263h-96z" />
    <glyph glyph-name="Zdotaccent" unicode="&#x17b;" horiz-adv-x="1003" 
d="M106 1365h826v-79l-727 -1184h716v-102h-853v90l720 1173h-682v102zM519 1744q47 0 81 -34.5t34 -82.5q0 -49 -34 -83t-83 -34t-83 34t-34 83t34.5 83t84.5 34z" />
    <glyph glyph-name="zdotaccent" unicode="&#x17c;" horiz-adv-x="796" 
d="M84 969h675v-77l-589 -803h572v-89h-698v85l581 795h-541v89zM424 1378q40 0 68 -28.5t28 -69.5q0 -40 -28.5 -68.5t-68.5 -28.5q-41 0 -69.5 28.5t-28.5 68.5q0 42 28.5 70t70.5 28z" />
    <glyph glyph-name="Zcaron" unicode="&#x17d;" horiz-adv-x="1003" 
d="M106 1365h826v-79l-727 -1184h716v-102h-853v90l720 1173h-682v102zM854 1758l-261 -262h-152l-260 262h109l227 -188l228 188h109z" />
    <glyph glyph-name="zcaron" unicode="&#x17e;" horiz-adv-x="796" 
d="M84 969h675v-77l-589 -803h572v-89h-698v85l581 795h-541v89zM724 1424l-226 -279h-152l-226 279h109l193 -199l193 199h109z" />
    <glyph glyph-name="longs" unicode="&#x17f;" horiz-adv-x="552" 
d="M174 0v1032q0 121 6.5 162.5t30.5 83.5q64 110 207 110q57 0 131 -25v-108q-59 36 -123 36q-96 0 -122 -77q-13 -38 -13 -174v-1040h-117z" />
    <glyph glyph-name="uni018F" unicode="&#x18f;" horiz-adv-x="1305" 
d="M107 727h952v16q0 87 -32 190.5t-83 183.5q-60 94 -156 138q-60 28 -134 28q-174 0 -293 -166q-24 -33 -39 -70l-113 50q24 52 63 101q154 190 380 190q232 0 381 -190q150 -191 150 -508q0 -327 -150 -523q-145 -190 -380 -190q-154 0 -279 89q-149 106 -213 335
q-29 102 -54 326zM235 638q14 -167 82 -310q116 -246 336 -246q136 0 237 101q163 162 172 455h-827z" />
    <glyph glyph-name="florin" unicode="&#x192;" horiz-adv-x="1065" 
d="M687 967h204v-100h-221l-134 -761q-40 -226 -80 -293q-64 -109 -203 -109q-92 0 -215 60l22 110q97 -67 184 -67q52 0 81.5 22.5t49.5 75.5q18 48 48 221l131 742h-191v99h209l27 154q30 174 77 241q71 100 199 100q69 0 152 -34l-18 -105q-92 40 -140 40q-81 0 -119 -99
q-19 -51 -41 -173z" />
    <glyph glyph-name="Ohorn" unicode="&#x1a0;" horiz-adv-x="1305" 
d="M1086 1117q63 75 76 137q-10 -1 -17 -1q-35 0 -60.5 27t-25.5 63q0 40 28.5 67.5t70.5 27.5q46 0 75.5 -33.5t29.5 -85.5q0 -118 -145 -259h-3q74 -170 74 -377q0 -313 -156 -516q-145 -190 -381 -190q-235 0 -380 190q-156 204 -156 516q0 311 156 515q145 190 380 190
q277 0 434 -271zM653 1283q-183 0 -293 -166q-117 -177 -117 -427q0 -264 117 -442q110 -166 293 -166t292 166q117 179 117 435q0 260 -117 434q-112 166 -292 166z" />
    <glyph glyph-name="ohorn" unicode="&#x1a1;" horiz-adv-x="1010" 
d="M836 799q57 66 70 128q-12 -2 -17 -2q-33 0 -58 26t-25 62q0 39 28 66t67 27q46 0 74 -32.5t28 -84.5q0 -118 -139 -248q46 -112 46 -259q0 -240 -128 -385q-108 -121 -277 -121t-277 121q-128 145 -128 388t128 389q109 122 277 122q212 0 331 -197zM506 899
q-126 0 -202 -99q-92 -121 -92 -310q0 -199 92 -319q76 -98 202 -98t201 98q92 120 92 314q0 196 -92 315q-77 99 -201 99z" />
    <glyph glyph-name="Uhorn" unicode="&#x1af;" horiz-adv-x="1246" 
d="M159 1365h116v-810q1 -155 6 -200q11 -111 64 -170q42 -48 116 -75.5t161 -27.5q119 0 209 49q63 33 94 85.5t40 138.5q4 45 5 200v810h116v-812q0 -168 -4 -218t-23 -103q-43 -121 -156 -188q-114 -67 -281 -67q-194 0 -315 91q-82 61 -115 146.5t-33 238.5v100v812z
M1255 1099h-87q113 105 132 194q-12 -2 -18 -2q-34 0 -59.5 27t-25.5 64q0 40 28.5 67.5t70.5 27.5q46 0 75 -33.5t29 -86.5q0 -118 -145 -258z" />
    <glyph glyph-name="uhorn" unicode="&#x1b0;" horiz-adv-x="979" 
d="M149 969h106v-605q0 -153 33 -206q54 -85 177 -85q136 0 209 115q46 72 46 223v558h106v-675q0 -169 3 -207t19 -87h-107q-20 62 -21 138q-42 -86 -101.5 -124t-153.5 -38q-117 0 -197 58q-94 66 -112 184q-7 45 -7 151v600zM996 749h-85q109 101 128 187q-11 -1 -17 -1
q-33 0 -58 26t-25 62q0 38 27.5 65t67.5 27q46 0 74 -32.5t28 -84.5q0 -114 -140 -249z" />
    <glyph glyph-name="uni01CD" unicode="&#x1cd;" horiz-adv-x="1134" 
d="M522 1377h90l473 -1377h-122l-134 388h-524l-135 -388h-121zM795 490l-228 720l-229 -720h457zM904 1758l-261 -262h-152l-260 262h109l227 -188l227 188h110z" />
    <glyph glyph-name="uni01CE" unicode="&#x1ce;" horiz-adv-x="949" 
d="M244 727h-111q13 115 82 182q90 87 263 87q145 0 233 -69q53 -42 69 -99.5t16 -204.5v-355l-1 -78q0 -110 26 -190h-106q-18 59 -25 137q-89 -161 -286 -161q-126 0 -207 65q-97 77 -97 213q0 207 228 291q140 52 362 86v51q0 108 -37 152q-53 65 -178 65
q-201 0 -231 -172zM690 546q-215 -42 -318 -87q-160 -69 -160 -201q0 -83 55.5 -134t144.5 -51q156 0 231 123q47 75 47 240v110zM786 1424l-227 -279h-152l-226 279h109l193 -199l193 199h110z" />
    <glyph glyph-name="uni01D2" unicode="&#x1d2;" horiz-adv-x="1010" 
d="M505 996q168 0 277 -122q128 -145 128 -389q0 -243 -128 -388q-108 -121 -276 -121q-170 0 -278 121q-128 145 -128 395q0 238 128 382q110 122 277 122zM506 899q-126 0 -202 -99q-92 -121 -92 -310q0 -199 92 -319q76 -98 202 -98t201 98q92 120 92 314q0 196 -92 315
q-77 99 -201 99zM805 1424l-227 -279h-152l-226 279h109l193 -199l193 199h110z" />
    <glyph glyph-name="uni01D3" unicode="&#x1d3;" horiz-adv-x="1246" 
d="M159 1365h116v-810q1 -155 6 -200q11 -111 64 -170q42 -48 116 -75.5t161 -27.5q119 0 209 49q63 33 94 85.5t40 138.5q4 45 5 200v810h116v-812q0 -168 -4 -218t-23 -103q-43 -121 -156 -188q-114 -67 -281 -67q-194 0 -315 91q-82 61 -115 146.5t-33 238.5v100v812z
M959 1758l-260 -262h-152l-261 262h109l228 -188l227 188h109z" />
    <glyph glyph-name="uni01D4" unicode="&#x1d4;" horiz-adv-x="979" 
d="M149 969h106v-605q0 -153 33 -206q54 -85 177 -85q136 0 209 115q46 72 46 223v558h106v-675q0 -169 3 -207t19 -87h-107q-20 62 -21 138q-42 -86 -101.5 -124t-153.5 -38q-117 0 -197 58q-94 66 -112 184q-7 45 -7 151v600zM787 1424l-226 -279h-152l-227 279h110
l193 -199l193 199h109z" />
    <glyph glyph-name="uni01DD" unicode="&#x1dd;" horiz-adv-x="975" 
d="M101 501h662q-4 173 -62 270q-78 129 -233 129q-85 0 -140 -36.5t-99 -122.5l-104 18q91 237 341 237q186 0 296 -128q113 -131 113 -369q0 -276 -142 -420q-102 -103 -256 -103q-202 0 -306 176q-71 121 -71 311q0 12 1 38zM215 412q7 -117 48 -197q71 -142 218 -142
q115 0 187.5 88.5t90.5 250.5h-544z" />
    <glyph glyph-name="Gcaron" unicode="&#x1e6;" horiz-adv-x="1260" 
d="M734 669h392v-559q-184 -133 -432 -133q-234 0 -368 129q-210 200 -210 584q0 362 198 561q137 137 350 137q220 0 346 -143q74 -84 98 -235h-114q-34 128 -92 185q-89 88 -242 88q-163 0 -262 -107q-155 -170 -155 -489q0 -112 24 -220t65 -180q118 -205 363 -205
q159 0 319 88v388l-280 -1v112zM1005 1758l-261 -262h-152l-260 262h109l227 -188l227 188h110z" />
    <glyph glyph-name="gcaron" unicode="&#x1e7;" horiz-adv-x="958" 
d="M911 969v-85l-199 5q96 -83 96 -237q0 -143 -87 -218q-33 -28 -75 -44.5t-157 -46.5q-110 -30 -155.5 -56.5t-45.5 -62.5q0 -31 33.5 -43t154.5 -23q145 -14 202.5 -26t105.5 -37q130 -70 130 -223q0 -145 -129 -223q-114 -69 -298 -69q-198 0 -318 86q-102 72 -102 194
q0 88 49.5 146t158.5 96q-103 39 -103 112q0 49 39.5 84.5t134.5 71.5q-203 73 -203 281q0 170 122 262q87 65 219 65q69 0 140 -19zM485 889q-93 0 -157 -57q-73 -65 -73 -177q0 -101 62 -159q63 -59 160 -59q100 0 160 59.5t60 158.5q0 94 -53 158q-61 76 -159 76zM487 46
q-139 0 -219 -40q-98 -50 -98 -142q0 -85 87 -135.5t232 -50.5q183 0 265 72q54 47 54 115q0 88 -82 134.5t-239 46.5zM798 1424l-227 -279h-151l-227 279h109l194 -199l192 199h110z" />
    <glyph glyph-name="uni01F4" unicode="&#x1f4;" horiz-adv-x="1260" 
d="M734 669h392v-559q-184 -133 -432 -133q-234 0 -368 129q-210 200 -210 584q0 362 198 561q137 137 350 137q220 0 346 -143q74 -84 98 -235h-114q-34 128 -92 185q-89 88 -242 88q-163 0 -262 -107q-155 -170 -155 -489q0 -112 24 -220t65 -180q118 -205 363 -205
q159 0 319 88v388l-280 -1v112zM533 1496l264 262h170l-315 -262h-119z" />
    <glyph glyph-name="Aringacute" unicode="&#x1fa;" horiz-adv-x="1134" 
d="M522 1377h90l473 -1377h-122l-134 388h-524l-135 -388h-121zM795 490l-228 720l-229 -720h457zM566 1771q75 0 128.5 -54t53.5 -130t-54 -130t-130 -54t-130 54t-54 130q0 77 54 130.5t132 53.5zM565 1689q-43 0 -73 -29.5t-30 -72.5q0 -42 30 -71.5t72 -29.5t72 29.5
t30 71.5t-29.5 72t-71.5 30zM303 1747l264 262h171l-316 -262h-119z" />
    <glyph glyph-name="AEacute" unicode="&#x1fc;" horiz-adv-x="1702" 
d="M819 1365h783v-102h-594v-504h547v-103h-547v-554h594v-102h-715v390h-488l-218 -390h-133zM887 493v773l-431 -773h431zM942 1496l264 262h170l-315 -262h-119z" />
    <glyph glyph-name="aeacute" unicode="&#x1fd;" horiz-adv-x="1547" 
d="M1447 477h-658q2 -177 59 -269q83 -135 241 -135q160 0 240 159l103 -19q-34 -111 -125 -174t-218 -63q-118 0 -209 55.5t-139 156.5q-48 -86 -98 -128q-97 -84 -239 -84q-121 0 -204 61q-100 73 -100 199q0 124 100 209q106 89 295 112q76 9 181 9v67q0 146 -30 192
q-47 74 -171 74q-193 0 -245 -181h-100q19 115 92 186q95 92 254 92q122 0 197.5 -47t95.5 -137q104 184 303 184q129 0 223 -79q154 -129 152 -440zM1324 566q-3 134 -53 216q-71 117 -201 117q-111 0 -186 -90.5t-91 -242.5h531zM676 477q-142 1 -243 -23
q-221 -53 -221 -216q0 -74 54.5 -119.5t142.5 -45.5q155 0 227 124q40 68 40 196v84zM720 1144l196 263h170l-270 -263h-96z" />
    <glyph glyph-name="Oslashacute" unicode="&#x1fe;" horiz-adv-x="1305" 
d="M987 1260l71 105h101l-114 -170q144 -194 144 -493q0 -342 -173 -550q-69 -83 -166 -129t-205 -46q-188 0 -329 129l-71 -106h-100l113 170q-143 200 -143 492q0 342 173 551q69 84 166 129.5t206 45.5q181 0 327 -128zM923 1164q-111 119 -262 119q-119 0 -215 -75
q-103 -81 -158 -242q-46 -136 -46 -308q0 -221 87 -383zM380 202q110 -121 264 -121q137 0 242 99q83 78 129.5 218t46.5 312q0 220 -87 380zM569 1496l264 262h171l-316 -262h-119z" />
    <glyph glyph-name="oslashacute" unicode="&#x1ff;" horiz-adv-x="1010" 
d="M190 140q-90 144 -90 333q0 259 143 410q107 114 266 114q155 0 267 -112l64 82h91l-109 -140q89 -138 89 -332q0 -257 -143 -407q-108 -112 -268 -112q-155 0 -262 103l-62 -79h-96zM260 230l450 572q-80 98 -199 98q-167 0 -251 -180q-49 -104 -49 -254q0 -133 49 -236
zM751 737l-448 -575q75 -90 197 -90q166 0 250 177q49 103 49 252q0 134 -48 236zM452 1144l195 263h171l-270 -263h-96z" />
    <glyph glyph-name="Scommaaccent" unicode="&#x218;" horiz-adv-x="1109" 
d="M940 1028h-114q-12 112 -69 173q-76 82 -211 82q-107 0 -178 -55q-88 -67 -88 -171q0 -97 86 -159q34 -25 65 -41t184 -87q222 -103 287 -185q78 -96 78 -229q0 -189 -148 -296q-115 -83 -283 -83q-225 0 -341 142q-82 100 -92 281h116q7 -136 69 -212q41 -50 108 -78
t145 -28q132 0 218 74t86 193q0 107 -78 179q-53 49 -204 119q-220 102 -279 144q-136 98 -136 258q0 155 122 252q109 87 271 87q174 0 275.5 -94.5t110.5 -265.5zM506 -487h-88q114 105 132 194q-12 -2 -17 -2q-35 0 -60.5 27t-25.5 64q0 40 28.5 67.5t70.5 27.5
q46 0 75.5 -33.5t29.5 -86.5q0 -118 -145 -258z" />
    <glyph glyph-name="scommaaccent" unicode="&#x219;" horiz-adv-x="865" 
d="M757 711h-104q-10 92 -54 134q-55 54 -159 54q-91 0 -146.5 -44.5t-55.5 -117.5q0 -63 45 -98t177 -75q118 -35 172.5 -60t85.5 -59q59 -63 59 -172q0 -128 -82 -207q-91 -90 -255 -90q-166 0 -255.5 82t-89.5 234l105 -1q20 -218 240 -218q96 0 157 47q67 51 67 143
q0 83 -60 125q-24 18 -55.5 29.5t-165.5 53.5q-147 45 -200 105q-56 64 -56 158q0 130 102 200q89 62 213 62q147 0 228 -73.5t87 -211.5zM405 -476h-85q109 101 128 188q-10 -1 -17 -1q-34 0 -59 26t-25 62q0 38 28 65t68 27q45 0 73.5 -32.5t28.5 -84.5q0 -115 -140 -250z
" />
    <glyph glyph-name="uni021A" unicode="&#x21a;" horiz-adv-x="921" 
d="M49 1365h824v-102h-354v-1263h-116v1263h-354v102zM418 -487h-87q113 104 131 194q-11 -2 -17 -2q-35 0 -60.5 27t-25.5 64q0 40 29 67.5t70 27.5q47 0 76 -33.5t29 -86.5q0 -119 -145 -258z" />
    <glyph glyph-name="uni021B" unicode="&#x21b;" horiz-adv-x="612" 
d="M310 969h242l-1 -89h-243l-9 -530q-2 -93 -2 -109q0 -106 22 -133q28 -34 90 -34q66 0 140 33l-2 -100q-76 -26 -156 -26q-110 0 -158 45.5t-48 148.5l6 180l12 525h-146l2 89h145l5 280h106zM298 -476h-85q109 101 127 188q-9 -1 -16 -1q-34 0 -59 26t-25 62q0 38 28 65
t68 27q45 0 73.5 -32.5t28.5 -84.5q0 -114 -140 -250z" />
    <glyph glyph-name="uni0226" unicode="&#x226;" horiz-adv-x="1134" 
d="M522 1377h90l473 -1377h-122l-134 388h-524l-135 -388h-121zM795 490l-228 720l-229 -720h457zM568 1744q48 0 82 -34.5t34 -82.5q0 -49 -34 -83t-83 -34t-83 34t-34 83t34.5 83t83.5 34z" />
    <glyph glyph-name="uni0227" unicode="&#x227;" horiz-adv-x="949" 
d="M244 727h-111q13 115 82 182q90 87 263 87q145 0 233 -69q53 -42 69 -99.5t16 -204.5v-355l-1 -78q0 -110 26 -190h-106q-18 59 -25 137q-89 -161 -286 -161q-126 0 -207 65q-97 77 -97 213q0 207 228 291q140 52 362 86v51q0 108 -37 152q-53 65 -178 65
q-201 0 -231 -172zM690 546q-215 -42 -318 -87q-160 -69 -160 -201q0 -83 55.5 -134t144.5 -51q156 0 231 123q47 75 47 240v110zM483 1378q40 0 68 -28.5t28 -69.5q0 -40 -28.5 -68.5t-68.5 -28.5q-41 0 -69.5 28.5t-28.5 68.5q0 42 28.5 70t70.5 28z" />
    <glyph glyph-name="uni0237" unicode="&#x237;" horiz-adv-x="501" 
d="M230 969h117v-903q0 -146 -9 -210.5t-36 -112.5q-74 -130 -292 -130q-20 0 -58 1v97q19 -2 38 -2q153 0 204 82q22 35 29 90t7 185v903z" />
    <glyph glyph-name="uni0259" unicode="&#x259;" horiz-adv-x="975" 
d="M101 501h662q-4 173 -62 270q-78 129 -233 129q-85 0 -140 -36.5t-99 -122.5l-104 18q91 237 341 237q186 0 296 -128q113 -131 113 -369q0 -276 -142 -420q-102 -103 -256 -103q-202 0 -306 176q-71 121 -71 311q0 12 1 38zM215 412q7 -117 48 -197q71 -142 218 -142
q115 0 187.5 88.5t90.5 250.5h-544z" />
    <glyph glyph-name="afii57929" unicode="&#x2bc;" horiz-adv-x="480" 
d="M208 938h-129q136 127 160 240q-12 -1 -20 -1q-39 0 -68 30.5t-29 72.5q0 45 32.5 76.5t78.5 31.5q54 0 87 -38.5t33 -99.5q0 -145 -145 -312z" />
    <glyph glyph-name="circumflex" unicode="&#x2c6;" 
d="M210 1145l226 279h152l227 -279h-110l-193 199l-193 -199h-109z" />
    <glyph glyph-name="caron" unicode="&#x2c7;" 
d="M815 1424l-227 -279h-152l-226 279h109l193 -199l193 199h110z" />
    <glyph glyph-name="uni02C9" unicode="&#x2c9;" 
d="M238 1328h548v-95h-548v95z" />
    <glyph glyph-name="breve" unicode="&#x2d8;" 
d="M268 1409h78q16 -77 60.5 -121.5t106.5 -44.5t105.5 43.5t58.5 122.5h79q-7 -71 -30 -124q-62 -146 -211 -146q-101 0 -168.5 73.5t-78.5 196.5z" />
    <glyph glyph-name="dotaccent" unicode="&#x2d9;" 
d="M514 1378q40 0 68 -28.5t28 -69.5q0 -40 -28.5 -68.5t-68.5 -28.5q-41 0 -69.5 28.5t-28.5 68.5q0 42 28.5 70t70.5 28z" />
    <glyph glyph-name="ring" unicode="&#x2da;" 
d="M514 1480q75 0 128.5 -54t53.5 -130t-54 -130t-130 -54t-130 54t-54 130q0 77 54 130.5t132 53.5zM513 1398q-43 0 -73 -29.5t-30 -72.5q0 -42 30 -72t72 -30q43 0 72.5 30t29.5 72t-29.5 72t-71.5 30z" />
    <glyph glyph-name="ogonek" unicode="&#x2db;" 
d="M568 0h134q-195 -73 -195 -170q0 -41 33 -67.5t84 -26.5q39 0 79 13v-85q-61 -18 -112 -18q-62 0 -112 26q-39 20 -62.5 58.5t-23.5 82.5q0 94 103 156q33 19 72 31z" />
    <glyph glyph-name="tilde" unicode="&#x2dc;" 
d="M286 1163l-76 16q36 211 170 211q62 0 139 -60q87 -66 127 -66q71 0 88 131l80 -18q-10 -88 -45 -144q-46 -73 -121 -73q-65 0 -152 66q-80 61 -119 61q-66 0 -91 -124z" />
    <glyph glyph-name="hungarumlaut" unicode="&#x2dd;" 
d="M361 1143l173 263h136l-207 -263h-102zM573 1143l173 263h136l-207 -263h-102z" />
    <glyph glyph-name="uni037E" unicode="&#x37e;" horiz-adv-x="480" 
d="M229 967q43 0 74 -31t31 -74t-31 -73.5t-75 -30.5q-43 0 -74 30.5t-31 73.5q0 44 31 74.5t75 30.5zM208 -244h-129q136 128 160 241q-13 -2 -20 -2q-39 0 -68 30.5t-29 71.5q0 46 32.5 77.5t78.5 31.5q54 0 87 -38.5t33 -99.5q0 -143 -145 -312z" />
    <glyph glyph-name="tonos" unicode="&#x384;" horiz-adv-x="258" 
d="M174 1092h-90l-16 355h122z" />
    <glyph glyph-name="dieresistonos" unicode="&#x385;" horiz-adv-x="784" 
d="M167 1378q40 0 68 -28.5t28 -69.5q0 -40 -28.5 -68.5t-68.5 -28.5q-41 0 -69.5 28.5t-28.5 68.5q0 42 28.5 70t70.5 28zM620 1378q40 0 68 -28.5t28 -69.5q0 -40 -28.5 -68.5t-68.5 -28.5q-41 0 -69.5 28.5t-28.5 68.5q0 41 28.5 69.5t70.5 28.5zM437 1092h-90l-16 355
h122z" />
    <glyph glyph-name="Alphatonos" unicode="&#x386;" horiz-adv-x="1167" 
d="M555 1377h90l473 -1377h-122l-134 388h-524l-135 -388h-121zM828 490l-228 720l-229 -720h457zM270 1092h-90l-16 355h122z" />
    <glyph glyph-name="uni0387" unicode="&#x387;" horiz-adv-x="526" 
d="M263 616q43 0 74 -31t31 -74t-31 -73.5t-75 -30.5q-43 0 -74 30.5t-31 73.5q0 44 31 74.5t75 30.5z" />
    <glyph glyph-name="Epsilontonos" unicode="&#x388;" horiz-adv-x="1050" 
d="M343 758h558v-102h-558v-554h608v-102h-724v1365h714v-102h-598v-505zM113 1092h-90l-16 355h122z" />
    <glyph glyph-name="Etatonos" unicode="&#x389;" horiz-adv-x="1314" 
d="M343 763h675v602h116v-1365h-116v666h-675v-666h-116v1365h116v-602zM113 1092h-90l-16 355h122z" />
    <glyph glyph-name="Iotatonos" unicode="&#x38a;" horiz-adv-x="523" 
d="M346 0h-122v1365h122v-1365zM113 1092h-90l-16 355h122z" />
    <glyph glyph-name="Omicrontonos" unicode="&#x38c;" horiz-adv-x="1341" 
d="M689 1388q154 0 278 -90q136 -99 204 -287q54 -148 54 -328q0 -312 -156 -516q-145 -190 -380 -190q-237 0 -381 190q-156 204 -156 525q0 203 74 369q79 178 224 263q108 64 239 64zM689 1283q-183 0 -293 -166q-117 -177 -117 -427q0 -264 117 -442q110 -166 293 -166
t292 166q117 178 117 435q0 260 -117 434q-113 166 -292 166zM161 1092h-90l-16 355h122z" />
    <glyph glyph-name="Upsilontonos" unicode="&#x38e;" horiz-adv-x="1146" 
d="M164 1365h137l341 -669l336 669h137l-420 -780l3 -585h-117l3 585zM106 1092h-90l-16 355h122z" />
    <glyph glyph-name="Omegatonos" unicode="&#x38f;" horiz-adv-x="1397" 
d="M158 1092h-90l-16 355h122zM930 142v-40h365v-102h-487v212q114 15 195 82q165 138 165 438q0 334 -193 472q-110 79 -258 79q-165 0 -281 -98q-169 -142 -169 -453q0 -192 71 -320q96 -175 289 -200v-212h-487v102h365v40q-106 30 -185 103q-180 163 -180 484
q0 392 249 563q140 96 329 96q210 0 358 -118q219 -176 219 -541q0 -354 -216 -514q-66 -49 -149 -73z" />
    <glyph glyph-name="iotadieresistonos" unicode="&#x390;" horiz-adv-x="424" 
d="M153 969h117v-969h-117v969zM-13 1378q40 0 68 -28.5t28 -69.5q0 -40 -28.5 -68.5t-68.5 -28.5q-41 0 -69.5 28.5t-28.5 68.5q0 42 28.5 70t70.5 28zM440 1378q40 0 68 -28.5t28 -69.5q0 -40 -28.5 -68.5t-68.5 -28.5q-41 0 -69.5 28.5t-28.5 68.5q0 41 28.5 69.5
t70.5 28.5zM257 1092h-90l-16 355h122z" />
    <glyph glyph-name="Alpha" unicode="&#x391;" horiz-adv-x="1134" 
d="M522 1377h90l473 -1377h-122l-134 388h-524l-135 -388h-121zM795 490l-228 720l-229 -720h457z" />
    <glyph glyph-name="Beta" unicode="&#x392;" horiz-adv-x="1099" 
d="M180 1365h210q143 0 212.5 -6.5t127.5 -26.5q107 -36 163 -126q47 -75 47 -180q0 -230 -227 -300q104 -26 164 -68q134 -95 134 -282q0 -178 -113 -280q-65 -59 -164.5 -77.5t-343.5 -18.5h-210v1365zM296 765h134q110 0 172 11t109 38q107 63 107 210q0 78 -36 134
t-100 80q-71 25 -257 25h-129v-498zM296 102h143q129 0 197 8t118 30q60 25 94.5 90t34.5 153q0 122 -74 195q-50 50 -126 67.5t-246 17.5h-141v-561z" />
    <glyph glyph-name="Gamma" unicode="&#x393;" horiz-adv-x="924" 
d="M180 0v1365h703v-102h-581v-1263h-122z" />
    <glyph glyph-name="uni0394" unicode="&#x394;" horiz-adv-x="1068" 
d="M7 0l470 1377h115l469 -1377h-1054zM905 102l-375 1125l-369 -1125h744z" />
    <glyph glyph-name="Epsilon" unicode="&#x395;" horiz-adv-x="1004" 
d="M296 758h558v-102h-558v-554h608v-102h-724v1365h715v-102h-599v-505z" />
    <glyph glyph-name="Zeta" unicode="&#x396;" horiz-adv-x="1003" 
d="M106 1365h826v-79l-727 -1184h716v-102h-853v90l720 1173h-682v102z" />
    <glyph glyph-name="Eta" unicode="&#x397;" horiz-adv-x="1267" 
d="M296 763h676v602h116v-1365h-116v666h-676v-666h-116v1365h116v-602z" />
    <glyph glyph-name="Theta" unicode="&#x398;" horiz-adv-x="1305" 
d="M653 1388q154 0 278 -90q136 -99 204 -287q54 -148 54 -328q0 -312 -156 -516q-75 -98 -184 -148q-91 -42 -195 -42q-238 0 -382 190q-156 204 -156 525q0 204 74 369q79 178 224 263q108 64 239 64zM653 1283q-183 0 -293 -166q-117 -177 -117 -427q0 -264 117 -442
q110 -166 293 -166t292 166q117 179 117 435q0 260 -117 434q-112 166 -292 166zM406 739h494v-97h-494v97z" />
    <glyph glyph-name="Iota" unicode="&#x399;" horiz-adv-x="476" 
d="M299 0h-122v1365h122v-1365z" />
    <glyph glyph-name="Kappa" unicode="&#x39a;" horiz-adv-x="1099" 
d="M870 1365h147l-573 -650l633 -715h-169l-609 713zM180 1365h116v-1365h-116v1365z" />
    <glyph glyph-name="Lambda" unicode="&#x39b;" horiz-adv-x="1068" 
d="M1061 0h-122l-409 1227l-402 -1227h-121l470 1377h115z" />
    <glyph glyph-name="Mu" unicode="&#x39c;" horiz-adv-x="1560" 
d="M180 1365h188l412 -1234l412 1234h188v-1365h-116v1259l-425 -1259h-117l-426 1259v-1259h-116v1365z" />
    <glyph glyph-name="Nu" unicode="&#x39d;" horiz-adv-x="1285" 
d="M180 1365h129l688 -1195v1195h108v-1365h-135l-680 1191v-1191h-110v1365z" />
    <glyph glyph-name="Xi" unicode="&#x39e;" horiz-adv-x="1018" 
d="M131 656v102h756v-102h-756zM82 0v102h854v-102h-854zM91 1263v102h836v-102h-836z" />
    <glyph glyph-name="Omicron" unicode="&#x39f;" horiz-adv-x="1305" 
d="M653 1388q154 0 278 -90q136 -99 204 -287q54 -148 54 -328q0 -312 -156 -516q-75 -98 -184 -148q-91 -42 -195 -42q-238 0 -382 190q-156 204 -156 525q0 204 74 369q79 178 224 263q108 64 239 64zM653 1283q-183 0 -293 -166q-117 -177 -117 -427q0 -264 117 -442
q110 -166 293 -166t292 166q117 179 117 435q0 260 -117 434q-112 166 -292 166z" />
    <glyph glyph-name="Pi" unicode="&#x3a0;" horiz-adv-x="1267" 
d="M296 1268v-1268h-116v1365h908v-1365h-116v1268h-676z" />
    <glyph glyph-name="Rho" unicode="&#x3a1;" horiz-adv-x="1050" 
d="M180 1365h194q266 0 372 -35q118 -39 185 -151q53 -89 53 -215q0 -155 -82 -253q-89 -108 -255 -127q-87 -10 -245 -10h-106v-574h-116v1365zM296 676h102q173 0 258 18q200 41 200 272q0 97 -41 167t-114 98q-54 20 -113 26t-217 6h-75v-587z" />
    <glyph glyph-name="Sigma" unicode="&#x3a3;" horiz-adv-x="919" 
d="M517 671l-465 615v79h826v-102h-666l440 -592l-489 -569h704v-102h-853v90z" />
    <glyph glyph-name="Tau" unicode="&#x3a4;" horiz-adv-x="921" 
d="M49 1365h824v-102h-354v-1263h-116v1263h-354v102z" />
    <glyph glyph-name="Upsilon" unicode="&#x3a5;" horiz-adv-x="1014" 
d="M32 1365h137l340 -669l336 669h137l-420 -780l3 -585h-116l3 585z" />
    <glyph glyph-name="Phi" unicode="&#x3a6;" horiz-adv-x="1430" 
d="M774 0h-119v115q-197 9 -332 96q-241 155 -241 472q0 345 281 494q123 65 292 74v114h119v-114q197 -10 332 -97q241 -155 241 -471q0 -346 -281 -495q-123 -65 -292 -73v-115zM655 1149q-158 -6 -270 -84q-180 -128 -180 -382q0 -207 121.5 -333t328.5 -134v933z
M774 1149v-933q158 6 270 84q180 127 180 383q0 207 -121.5 332.5t-328.5 133.5z" />
    <glyph glyph-name="Chi" unicode="&#x3a7;" horiz-adv-x="1083" 
d="M68 1365h136l340 -557l340 557h136l-409 -649l429 -716h-132l-364 604l-363 -604h-133l429 716z" />
    <glyph glyph-name="Psi" unicode="&#x3a8;" horiz-adv-x="1241" 
d="M682 0h-122v310q-166 0 -281 72q-102 65 -142.5 161.5t-40.5 273.5v548h116v-546q0 -106 15 -178q33 -156 204 -208q63 -19 129 -18v950h122v-950q75 -1 144 23t113 65q50 47 70.5 117.5t20.5 198.5v546h116v-548q20 -494 -464 -507v-310z" />
    <glyph glyph-name="uni03A9" unicode="&#x3a9;" horiz-adv-x="1360" 
d="M892 142v-40h365v-102h-487v212q114 15 195 82q165 138 165 438q0 334 -193 472q-110 79 -257 79q-166 0 -282 -98q-169 -142 -169 -453q0 -192 71 -320q96 -175 289 -200v-212h-487v102h365v40q-105 30 -185 103q-180 163 -180 484q0 392 249 563q140 96 329 96
q210 0 358 -118q219 -176 219 -541q0 -354 -216 -514q-66 -49 -149 -73z" />
    <glyph glyph-name="Iotadieresis" unicode="&#x3aa;" horiz-adv-x="476" 
d="M299 0h-122v1365h122v-1365zM103 1730q41 0 71 -30t30 -73q0 -42 -30 -72t-72 -30q-43 0 -73 30t-30 72q0 43 30 73t74 30zM376 1730q41 0 71 -30t30 -73q0 -42 -30 -72t-72 -30q-43 0 -73 30t-30 72q0 44 30 73.5t74 29.5z" />
    <glyph glyph-name="Upsilondieresis" unicode="&#x3ab;" horiz-adv-x="1014" 
d="M32 1365h137l340 -669l336 669h137l-420 -780l3 -585h-116l3 585zM329 1732q42 0 72.5 -30.5t30.5 -74.5q0 -43 -30.5 -73.5t-73.5 -30.5q-44 0 -74.5 30.5t-30.5 73.5q0 44 30.5 74.5t75.5 30.5zM689 1732q42 0 72.5 -30.5t30.5 -74.5q0 -43 -30.5 -73.5t-73.5 -30.5
q-44 0 -74.5 30.5t-30.5 73.5q0 44 30.5 74.5t75.5 30.5z" />
    <glyph glyph-name="alphatonos" unicode="&#x3ac;" horiz-adv-x="1033" 
d="M552 1092h-90l-16 355h122zM798 306q-49 -154 -115 -231q-84 -99 -214 -99q-119 0 -208 79q-74 66 -117 177q-44 114 -44 254q0 240 122 389q99 121 260 121q250 0 318 -322l42 295h116l-98 -483l105 -486h-116zM753 486q-36 209 -104.5 311t-171.5 102q-89 0 -155 -66
q-110 -111 -110 -350q0 -231 110 -344q64 -66 149 -66q118 0 196 147q59 111 86 266z" />
    <glyph glyph-name="epsilontonos" unicode="&#x3ad;" horiz-adv-x="918" 
d="M482 1447l-31 -354h-75l-32 354h138zM482 533v-89h-23q-101 0 -132 -5q-152 -27 -152 -170q0 -90 62.5 -143t168.5 -53q108 0 164.5 49t85.5 167l108 -14q-21 -90 -47 -138.5t-74 -89.5q-46 -38 -101.5 -54.5t-140.5 -16.5q-142 0 -228 61q-111 79 -111 220
q0 182 193 233q-171 60 -171 234q0 121 90 197t233 76q150 0 241 -84q43 -39 65.5 -83.5t41.5 -127.5l-106 -13q-28 104 -79 153q-61 58 -168 58q-94 0 -150 -51t-56 -136q0 -60 33 -105.5t90 -62.5q41 -12 140 -12h23z" />
    <glyph glyph-name="etatonos" unicode="&#x3ae;" horiz-adv-x="1005" 
d="M131 969h103q19 -55 20 -146q96 173 298 173q105 0 178.5 -43t101.5 -121q17 -46 21 -89t4 -187v-960h-106v967q0 115 -5 158t-21 79q-47 100 -182 100q-147 0 -228 -119q-55 -82 -55 -225v-556h-106v645q0 176 -3 218t-20 106zM569 1092h-90l-16 355h122z" />
    <glyph glyph-name="iotatonos" unicode="&#x3af;" horiz-adv-x="424" 
d="M153 969h117v-969h-117v969zM257 1092h-90l-16 355h122z" />
    <glyph glyph-name="upsilondieresistonos" unicode="&#x3b0;" horiz-adv-x="974" 
d="M149 969h106v-631q0 -265 232 -265q233 0 233 265v631h106v-633q0 -360 -339 -360q-338 0 -338 360v633zM263 1378q40 0 68 -28.5t28 -69.5q0 -40 -28.5 -68.5t-68.5 -28.5q-41 0 -69.5 28.5t-28.5 68.5q0 42 28.5 70t70.5 28zM716 1378q40 0 68 -28.5t28 -69.5
q0 -40 -28.5 -68.5t-68.5 -28.5q-41 0 -69.5 28.5t-28.5 68.5q0 41 28.5 69.5t70.5 28.5zM532 1092h-89l-16 355h121z" />
    <glyph glyph-name="alpha" unicode="&#x3b1;" horiz-adv-x="1033" 
d="M798 306q-49 -154 -115 -231q-84 -99 -214 -99q-119 0 -208 79q-74 66 -117 177q-44 114 -44 254q0 240 122 389q99 121 260 121q250 0 318 -322l42 295h116l-98 -483l105 -486h-116zM753 486q-36 209 -104.5 311t-171.5 102q-89 0 -155 -66q-110 -111 -110 -350
q0 -231 110 -344q64 -66 149 -66q118 0 196 147q59 111 86 266z" />
    <glyph glyph-name="beta" unicode="&#x3b2;" horiz-adv-x="1012" 
d="M154 -404v1344q0 163 46 256q45 90 133 141t200 51q156 0 249 -91q103 -102 103 -266q0 -149 -85 -240q-46 -50 -131 -71q100 -27 154 -87q89 -98 89 -259q0 -181 -95.5 -289.5t-253.5 -108.5q-200 0 -300 165v-545h-109zM482 671v89h52q105 0 164 61q75 77 75 207
q0 107 -56 177q-69 86 -189 86q-127 0 -196 -92t-69 -264v-426q0 -203 57 -299q38 -64 100.5 -100.5t134.5 -36.5q113 0 180 84q66 83 66 220q0 136 -69 215t-188 79h-62z" />
    <glyph glyph-name="gamma" unicode="&#x3b3;" horiz-adv-x="834" 
d="M362 -14l-342 983h112l286 -852l286 852h110l-343 -983v-390h-109v390z" />
    <glyph glyph-name="delta" unicode="&#x3b4;" horiz-adv-x="1010" 
d="M530 981l-324 313v77h660v-89h-498l338 -330q93 -90 137 -170q67 -124 67 -300q0 -240 -128 -385q-108 -121 -277 -121q-168 0 -277 121q-128 145 -128 395q0 259 141 394q104 100 235 100q23 0 54 -5zM506 900q-126 0 -202 -99q-92 -121 -92 -310q0 -200 92 -320
q76 -98 202 -98t201 98q92 121 92 314q0 197 -92 316q-77 99 -201 99z" />
    <glyph glyph-name="epsilon" unicode="&#x3b5;" horiz-adv-x="918" 
d="M482 533v-89h-23q-101 0 -132 -5q-152 -27 -152 -170q0 -90 62.5 -143t168.5 -53q108 0 164.5 49t85.5 167l108 -14q-21 -90 -47 -138.5t-74 -89.5q-46 -38 -101.5 -54.5t-140.5 -16.5q-142 0 -228 61q-111 79 -111 220q0 182 193 233q-171 60 -171 234q0 121 90 197
t233 76q150 0 241 -84q43 -39 65.5 -83.5t41.5 -127.5l-106 -13q-28 104 -79 153q-61 58 -168 58q-94 0 -150 -51t-56 -136q0 -60 33 -105.5t90 -62.5q41 -12 140 -12h23z" />
    <glyph glyph-name="zeta" unicode="&#x3b6;" horiz-adv-x="767" 
d="M808 1294q-290 -230 -405 -366q-120 -143 -162 -275q-29 -90 -29 -192q0 -202 101 -310q40 -43 83 -59t167 -35q111 -17 144 -40q52 -36 52 -104q0 -117 -131 -317h-109q79 138 102.5 192.5t23.5 100.5q0 40 -24.5 55.5t-102.5 25.5q-105 14 -155.5 31t-99.5 56
q-163 129 -163 398q0 222 117 395.5t441 431.5h-493v89h643v-77z" />
    <glyph glyph-name="eta" unicode="&#x3b7;" horiz-adv-x="1005" 
d="M131 969h103q19 -55 20 -146q96 173 298 173q105 0 178.5 -43t101.5 -121q17 -46 21 -89t4 -187v-960h-106v967q0 115 -5 158t-21 79q-47 100 -182 100q-147 0 -228 -119q-55 -82 -55 -225v-556h-106v645q0 176 -3 218t-20 106z" />
    <glyph glyph-name="theta" unicode="&#x3b8;" horiz-adv-x="1010" 
d="M212 727h586q-8 199 -54 330q-82 234 -239 234q-98 0 -171 -98q-109 -145 -122 -466zM798 638h-586q8 -204 54 -333q82 -232 239 -232q98 0 171 97q109 143 122 468zM505 1388q116 0 210 -88q102 -96 153 -280q42 -149 42 -339q0 -330 -128 -536q-48 -76 -122 -124
q-69 -44 -154 -44q-118 0 -211 87q-94 87 -144.5 249.5t-50.5 377.5q0 325 128 528q108 169 277 169z" />
    <glyph glyph-name="iota" unicode="&#x3b9;" horiz-adv-x="424" 
d="M154 969h117v-969h-117v969z" />
    <glyph glyph-name="kappa" unicode="&#x3ba;" horiz-adv-x="885" 
d="M690 969h131l-418 -445l448 -524h-151l-436 518zM154 969h106v-969h-106v969z" />
    <glyph glyph-name="lambda" unicode="&#x3bb;" horiz-adv-x="828" 
d="M358 966l-144 405h117l140 -388h1l343 -983h-113l-285 852l-286 -852h-110z" />
    <glyph glyph-name="uni03BC" unicode="&#x3bc;" horiz-adv-x="979" 
d="M258 41v-445h-109v1373h106v-605q0 -153 34 -206q53 -85 176 -85q136 0 209 115q46 72 46 223v558h106v-675q0 -169 3 -207t19 -87h-107q-20 62 -21 138q-42 -86 -101.5 -124t-153.5 -38q-121 0 -207 65z" />
    <glyph glyph-name="nu" unicode="&#x3bd;" horiz-adv-x="835" 
d="M21 969h112l286 -852l286 852h110l-343 -983h-108z" />
    <glyph glyph-name="xi" unicode="&#x3be;" horiz-adv-x="801" 
d="M407 1279h-272v86h633v-86h-143q-125 0 -190 -60q-80 -72 -80 -177q0 -97 70.5 -154.5t189.5 -57.5h35v-97h-41q-144 0 -226 -43q-76 -40 -115 -120q-39 -79 -39 -180q0 -207 139 -284q47 -26 199 -49q111 -17 145 -41q51 -36 51 -103q0 -118 -140 -317h-108
q85 138 110 192.5t25 99.5q0 41 -24.5 56.5t-102.5 25.5q-159 20 -233 66q-82 50 -127 142t-45 209q0 172 82 272.5t248 133.5q-98 28 -151 91.5t-53 154.5q0 80 42 141.5t121 98.5z" />
    <glyph glyph-name="omicron" unicode="&#x3bf;" horiz-adv-x="1010" 
d="M505 996q168 0 277 -122q128 -145 128 -389q0 -243 -128 -388q-108 -121 -276 -121q-170 0 -278 121q-128 145 -128 395q0 238 128 382q110 122 277 122zM506 899q-126 0 -202 -99q-92 -121 -92 -310q0 -199 92 -319q76 -98 202 -98t201 98q92 120 92 314q0 196 -92 315
q-77 99 -201 99z" />
    <glyph glyph-name="pi" unicode="&#x3c0;" horiz-adv-x="970" 
d="M806 880v-880h-106v880h-430v-880h-106v880h-137v89h915v-89h-136z" />
    <glyph glyph-name="rho" unicode="&#x3c1;" horiz-adv-x="1002" 
d="M143 -404v852q0 241 73 369q49 87 129.5 133t180.5 46q195 0 295 -168q81 -134 81 -347q0 -259 -126 -403q-89 -102 -238 -102q-186 0 -286 165v-545h-109zM522 899q-149 0 -221 -144q-54 -107 -54 -269q0 -161 61 -271q79 -142 220 -142q116 0 176 82q87 117 87 322
q0 196 -72 309t-197 113z" />
    <glyph glyph-name="uni03C2" unicode="&#x3c2;" horiz-adv-x="913" 
d="M845 656h-106q-14 96 -58 155q-64 88 -180 88q-122 0 -194 -93q-95 -123 -95 -323q0 -122 38.5 -219t105.5 -146q33 -23 70 -34t143 -27q111 -17 144 -40q52 -36 52 -104q0 -116 -134 -313h-108q81 137 104.5 190.5t23.5 98.5q0 41 -24.5 56.5t-102.5 25.5
q-144 18 -210 56q-214 123 -214 456q0 277 156 420q101 93 248 93t236.5 -89t104.5 -251z" />
    <glyph glyph-name="sigma" unicode="&#x3c3;" horiz-adv-x="1003" 
d="M986 969v-89h-57q-87 0 -183 11q164 -140 164 -410q0 -239 -128 -384q-108 -121 -277 -121t-277 121q-128 145 -128 388t128 389q109 122 276 122q45 0 191 -17q88 -10 291 -10zM506 899q-126 0 -202 -99q-92 -121 -92 -310q0 -199 92 -319q76 -98 202 -98t201 98
q92 120 92 314q0 196 -92 315q-77 99 -201 99z" />
    <glyph glyph-name="tau" unicode="&#x3c4;" horiz-adv-x="693" 
d="M400 880v-880h-106v880h-287v89h679v-89h-286z" />
    <glyph glyph-name="upsilon" unicode="&#x3c5;" horiz-adv-x="974" 
d="M149 969h106v-631q0 -265 232 -265q233 0 233 265v631h106v-633q0 -360 -339 -360q-338 0 -338 360v633z" />
    <glyph glyph-name="phi" unicode="&#x3c6;" horiz-adv-x="1191" 
d="M654 -404h-117v380q-141 3 -246 79q-191 138 -191 428q0 156 53.5 264.5t166.5 184.5l55 -73q-70 -64 -100 -114q-63 -106 -63 -262q0 -150 64 -256q88 -148 261 -154v923q25 1 40 1q221 0 344 -97q170 -136 170 -417q0 -190 -87 -320q-122 -182 -350 -187v-380zM654 899
v-826q107 4 183 63q67 52 104.5 144t37.5 205q0 152 -64 258q-89 150 -261 156z" />
    <glyph glyph-name="chi" unicode="&#x3c7;" horiz-adv-x="796" 
d="M463 326l340 -730h-119l-286 628l-289 -628h-116l343 730l-292 643h114l243 -542l245 542h121z" />
    <glyph glyph-name="psi" unicode="&#x3c8;" horiz-adv-x="1225" 
d="M668 -404h-109v380q-410 25 -410 424v569h106v-566q0 -318 304 -330v896h109v-896q303 12 303 330v566h106v-569q0 -399 -409 -424v-380z" />
    <glyph glyph-name="omega" unicode="&#x3c9;" horiz-adv-x="1232" 
d="M616 113q-5 -7 -17 -29q-60 -108 -186 -108q-163 0 -249 168q-64 127 -64 339q0 206 68 345q30 62 110 129l57 -88q-43 -45 -60.5 -73t-31.5 -75q-31 -105 -31 -242q0 -199 63 -310q55 -96 134 -96q73 0 112 71.5t39 207.5v227h112v-227q0 -145 43 -214q40 -65 108 -65
q88 0 142.5 112.5t54.5 292.5q0 165 -48 279q-22 50 -82 111l64 87q83 -73 120 -157q58 -132 58 -316q0 -230 -76 -360q-86 -146 -237 -146q-111 0 -174 89z" />
    <glyph glyph-name="iotadieresis" unicode="&#x3ca;" horiz-adv-x="424" 
d="M153 969h117v-969h-117v969zM83 1377q39 0 67 -28.5t28 -67.5q0 -41 -28 -69t-68 -28q-41 0 -69 28t-28 68q0 41 28.5 69t69.5 28zM344 1377q39 0 67 -28.5t28 -67.5q0 -41 -28 -69t-68 -28t-68.5 28t-28.5 68q0 41 28.5 69t69.5 28z" />
    <glyph glyph-name="upsilondieresis" unicode="&#x3cb;" horiz-adv-x="974" 
d="M149 969h106v-631q0 -265 232 -265q233 0 233 265v631h106v-633q0 -360 -339 -360q-338 0 -338 360v633zM315 1378q40 0 68 -28.5t28 -69.5q0 -40 -28.5 -68.5t-68.5 -28.5q-41 0 -69.5 28.5t-28.5 68.5q0 42 28.5 70t70.5 28zM663 1378q40 0 68 -28.5t28 -69.5
q0 -40 -28.5 -68.5t-68.5 -28.5q-41 0 -69.5 28.5t-28.5 68.5q0 41 28.5 69.5t70.5 28.5z" />
    <glyph glyph-name="omicrontonos" unicode="&#x3cc;" horiz-adv-x="1010" 
d="M505 996q168 0 277 -122q128 -145 128 -389q0 -243 -128 -388q-108 -121 -276 -121q-170 0 -278 121q-128 145 -128 395q0 238 128 382q110 122 277 122zM506 899q-126 0 -202 -99q-92 -121 -92 -310q0 -199 92 -319q76 -98 202 -98t201 98q92 120 92 314q0 196 -92 315
q-77 99 -201 99zM550 1092h-90l-16 355h122z" />
    <glyph glyph-name="upsilontonos" unicode="&#x3cd;" horiz-adv-x="974" 
d="M149 969h106v-631q0 -265 232 -265q233 0 233 265v631h106v-633q0 -360 -339 -360q-338 0 -338 360v633zM541 1092h-89l-16 355h122z" />
    <glyph glyph-name="omegatonos" unicode="&#x3ce;" horiz-adv-x="1232" 
d="M661 1092h-90l-16 355h122zM616 113q-5 -7 -17 -29q-60 -108 -186 -108q-163 0 -249 168q-64 127 -64 339q0 206 68 345q30 62 110 129l57 -88q-43 -45 -60.5 -73t-31.5 -75q-31 -105 -31 -242q0 -199 63 -310q55 -96 134 -96q73 0 112 71.5t39 207.5v227h112v-227
q0 -145 43 -214q40 -65 108 -65q88 0 142.5 112.5t54.5 292.5q0 165 -48 279q-22 50 -82 111l64 87q83 -73 120 -157q58 -132 58 -316q0 -230 -76 -360q-86 -146 -237 -146q-111 0 -174 89z" />
    <glyph glyph-name="theta1" unicode="&#x3d1;" horiz-adv-x="1011" 
d="M883 811q5 -66 5 -118q0 -337 -137 -549q-108 -168 -299 -168q-103 0 -182 56q-63 46 -92 118t-29 186v48h-115v90h221v-136q0 -111 33 -167q57 -98 174 -98q99 0 172 82q143 161 143 540q0 64 -5 116q-181 0 -238.5 4.5t-120.5 22.5q-110 32 -170 107.5t-60 179.5
q0 119 75.5 191t200.5 72q202 0 313 -184q77 -127 101 -304h111v-89h-101zM762 900q-20 131 -73 228q-89 161 -237 161q-69 0 -113 -45t-44 -116q0 -81 52 -137t145 -76q65 -15 270 -15z" />
    <glyph glyph-name="Upsilon1" unicode="&#x3d2;" horiz-adv-x="943" 
d="M530 0h-116v303q6 726 -441 991l75 95q148 -90 260 -240q136 -186 167 -436l1 8q64 435 420 668l75 -95q-447 -280 -441 -991v-303z" />
    <glyph glyph-name="phi1" unicode="&#x3d5;" horiz-adv-x="1188" 
d="M651 -404h-114v380q-141 3 -246 79q-191 138 -191 430q0 192 87 323q120 180 350 188v375h114v-375q139 -5 245 -79q192 -136 192 -432q0 -192 -87 -322q-122 -182 -350 -187v-380zM537 902q-107 -4 -185 -64q-68 -53 -105.5 -146t-37.5 -207q0 -153 64 -260
q89 -149 264 -155v832zM651 902v-832q108 4 185 64q143 111 143 351q0 153 -64 260q-90 151 -264 157z" />
    <glyph glyph-name="uni0400" unicode="&#x400;" horiz-adv-x="1004" 
d="M296 758h558v-102h-558v-554h608v-102h-724v1365h715v-102h-599v-505zM629 1496h-119l-315 262h170z" />
    <glyph glyph-name="afii10023" unicode="&#x401;" horiz-adv-x="1004" 
d="M296 758h558v-102h-558v-554h608v-102h-724v1365h715v-102h-599v-505zM363 1732q42 0 72.5 -31t30.5 -74t-30.5 -73.5t-74.5 -30.5q-43 0 -73.5 30.5t-30.5 73.5q0 44 30.5 74.5t75.5 30.5zM723 1732q42 0 72.5 -30.5t30.5 -74.5q0 -43 -30.5 -73.5t-74.5 -30.5
q-43 0 -73.5 30.5t-30.5 73.5q0 44 30.5 74.5t75.5 30.5z" />
    <glyph glyph-name="afii10051" unicode="&#x402;" horiz-adv-x="1278" 
d="M440 780q135 111 347 111t304 -126q35 -48 46 -108t11 -206v-385q0 -146 -9 -210.5t-37 -112.5q-74 -130 -290 -130q-20 0 -59 1v97q22 -2 39 -2q160 0 213 82q22 35 29.5 90.5t7.5 184.5v391q0 185 -66 264q-60 73 -198 73q-110 0 -199 -41t-139 -115v-638h-116v1263
h-275v102h824v-102h-433v-483z" />
    <glyph glyph-name="afii10052" unicode="&#x403;" horiz-adv-x="924" 
d="M180 0v1365h703v-102h-581v-1263h-122zM470 1496l264 262h171l-316 -262h-119z" />
    <glyph glyph-name="afii10053" unicode="&#x404;" horiz-adv-x="1233" 
d="M245 737h515v-102h-515q8 -207 85 -347q114 -206 335 -206q202 0 294 164q47 84 61 203h113q-17 -173 -90 -283q-127 -189 -372 -189q-249 0 -396 179q-159 193 -159 525q0 371 193 564q142 143 355 143q221 0 347 -146q76 -90 98 -233h-115q-66 274 -332 274
q-182 0 -294.5 -147t-122.5 -399z" />
    <glyph glyph-name="afii10054" unicode="&#x405;" horiz-adv-x="1109" 
d="M940 1028h-114q-12 112 -69 173q-76 82 -211 82q-107 0 -178 -55q-88 -67 -88 -171q0 -97 86 -159q34 -25 65 -41t184 -87q222 -103 287 -185q78 -96 78 -229q0 -189 -148 -296q-115 -83 -283 -83q-225 0 -341 142q-82 100 -92 281h116q7 -136 69 -212q41 -50 108 -78
t145 -28q132 0 218 74t86 193q0 107 -78 179q-53 49 -204 119q-220 102 -279 144q-136 98 -136 258q0 155 122 252q109 87 271 87q174 0 275.5 -94.5t110.5 -265.5z" />
    <glyph glyph-name="afii10055" unicode="&#x406;" horiz-adv-x="476" 
d="M299 0h-122v1365h122v-1365z" />
    <glyph glyph-name="afii10056" unicode="&#x407;" horiz-adv-x="476" 
d="M299 0h-122v1365h122v-1365zM103 1730q41 0 71 -30t30 -73q0 -42 -30 -72t-72 -30q-43 0 -73 30t-30 72q0 43 30 73t74 30zM376 1730q41 0 71 -30t30 -73q0 -42 -30 -72t-72 -30q-43 0 -73 30t-30 72q0 44 30 73.5t74 29.5z" />
    <glyph glyph-name="afii10057" unicode="&#x408;" horiz-adv-x="557" 
d="M258 1365h122v-1089q0 -128 -5 -174t-23 -87q-35 -77 -117.5 -120t-195.5 -43q-12 0 -41 1v103q14 -1 20 -1q144 0 201 77q25 33 32 76.5t7 169.5v1087z" />
    <glyph glyph-name="afii10058" unicode="&#x409;" horiz-adv-x="1697" 
d="M851 0v1268h-457l-95 -965q-10 -105 -31 -159t-65 -91q-69 -60 -203 -60v103q53 -1 82.5 10.5t54.5 41.5q40 49 54 200l91 1017h685v-573h106q166 0 244.5 -10t142.5 -40q93 -43 144 -132t51 -208q0 -183 -113 -290q-71 -68 -169 -90t-328 -22h-194zM967 690v-588h75
q157 0 216.5 6t113.5 26q73 28 114 98t41 168q0 231 -200 272q-85 18 -258 18h-102z" />
    <glyph glyph-name="afii10059" unicode="&#x40a;" horiz-adv-x="1817" 
d="M971 777v588h116v-588h106q166 0 243.5 -10t143.5 -39q93 -42 144 -129.5t51 -204.5q0 -179 -113 -284q-70 -66 -169 -88t-328 -22h-194v680h-675v-680h-116v1365h116v-588h675zM1087 680v-578h75q157 0 216.5 6t113.5 26q73 27 114 96t41 165q0 227 -200 268
q-86 17 -258 17h-102z" />
    <glyph glyph-name="afii10060" unicode="&#x40b;" horiz-adv-x="1286" 
d="M440 730l23 18q131 105 325 105q105 0 187.5 -39.5t128.5 -112.5q30 -47 41 -105.5t11 -169.5v-426h-122v400q0 133 -18 189q-24 71 -90 111t-160 40q-148 0 -251 -77q-31 -24 -75 -74v-589h-116v1263h-275v102h824v-102h-433v-533z" />
    <glyph glyph-name="afii10061" unicode="&#x40c;" horiz-adv-x="1099" 
d="M870 1365h147l-573 -650l633 -715h-169l-609 713zM180 1365h116v-1365h-116v1365zM524 1496l265 262h170l-316 -262h-119z" />
    <glyph glyph-name="uni040D" unicode="&#x40d;" horiz-adv-x="1285" 
d="M687 1496h-119l-316 262h171zM180 0v1365h110v-1123l707 1014v109h108v-1365h-108v1087l-707 -1005v-82h-110z" />
    <glyph glyph-name="afii10062" unicode="&#x40e;" horiz-adv-x="983" 
d="M725 1761h65q-7 -72 -34 -124q-34 -68 -92 -106q-65 -43 -145 -43q-110 0 -183.5 74t-87.5 199h66q18 -72 74 -114.5t131 -42.5q76 0 131.5 42.5t74.5 114.5zM32 1365h137l346 -796l330 796h131l-605 -1365h-116l201 448z" />
    <glyph glyph-name="afii10145" unicode="&#x40f;" horiz-adv-x="1267" 
d="M692 0v-205h-116v205h-396v1365h116v-1268h676v1268h116v-1365h-396z" />
    <glyph glyph-name="afii10017" unicode="&#x410;" horiz-adv-x="1134" 
d="M522 1377h90l473 -1377h-122l-134 388h-524l-135 -388h-121zM795 490l-228 720l-229 -720h457z" />
    <glyph glyph-name="afii10018" unicode="&#x411;" horiz-adv-x="1039" 
d="M296 1263v-471h105q167 0 244.5 -10t143.5 -40q93 -42 144 -131.5t51 -208.5q0 -183 -113 -290q-71 -68 -169.5 -90t-327.5 -22h-194v1365h690v-102h-574zM296 690v-588h75q157 0 216.5 6t113.5 26q73 28 114 98t41 168q0 231 -200 272q-85 18 -258 18h-102z" />
    <glyph glyph-name="afii10019" unicode="&#x412;" horiz-adv-x="1099" 
d="M180 1365h210q143 0 212.5 -6.5t127.5 -26.5q107 -36 163 -126q47 -75 47 -180q0 -230 -227 -300q104 -26 164 -68q134 -95 134 -282q0 -178 -113 -280q-65 -59 -164.5 -77.5t-343.5 -18.5h-210v1365zM296 765h134q110 0 172 11t109 38q107 63 107 210q0 78 -36 134
t-100 80q-71 25 -257 25h-129v-498zM296 102h143q129 0 197 8t118 30q60 25 94.5 90t34.5 153q0 122 -74 195q-50 50 -126 67.5t-246 17.5h-141v-561z" />
    <glyph glyph-name="afii10020" unicode="&#x413;" horiz-adv-x="924" 
d="M180 0v1365h703v-102h-581v-1263h-122z" />
    <glyph glyph-name="afii10021" unicode="&#x414;" horiz-adv-x="1164" 
d="M297 1365h685v-1268h103v-302h-116v205h-846v-205h-116v302h38q75 0 111.5 57t49.5 194zM240 97h626v1171h-457l-95 -965q-14 -146 -74 -206z" />
    <glyph glyph-name="afii10022" unicode="&#x415;" horiz-adv-x="1004" 
d="M296 758h558v-102h-558v-554h608v-102h-724v1365h715v-102h-599v-505z" />
    <glyph glyph-name="afii10024" unicode="&#x416;" horiz-adv-x="1514" 
d="M699 1365h116v-602h123l409 602h133l-442 -645l482 -720h-135l-447 666h-123v-666h-116v666h-124l-447 -666h-135l483 720l-443 645h133l409 -602h124v602z" />
    <glyph glyph-name="afii10025" unicode="&#x417;" horiz-adv-x="1110" 
d="M473 737h88l37 -1q114 0 192 66q90 76 90 207q0 126 -80.5 200t-218.5 74q-189 0 -277 -120q-42 -58 -65 -154h-115q25 162 122 258q122 119 336 119q195 0 306 -98q118 -104 118 -274q0 -131 -72.5 -217t-199.5 -105q107 -20 165 -69q108 -91 108 -249q0 -165 -111 -278
q-117 -119 -317 -119q-285 0 -408 222q-58 103 -71 250h113q16 -137 76 -228q92 -139 274 -139q149 0 238 92q80 83 80 209q0 161 -128 223q-59 29 -166 29h-114v102z" />
    <glyph glyph-name="afii10026" unicode="&#x418;" horiz-adv-x="1285" 
d="M180 0v1365h110v-1123l707 1014v109h108v-1365h-108v1087l-707 -1005v-82h-110z" />
    <glyph glyph-name="afii10027" unicode="&#x419;" horiz-adv-x="1285" 
d="M396 1761h77q17 -75 70 -119t125 -44q73 0 124 43.5t69 119.5h77q-8 -70 -33 -122q-72 -145 -235 -145q-113 0 -187 72t-87 195zM180 0v1365h110v-1123l707 1014v109h108v-1365h-108v1087l-707 -1005v-82h-110z" />
    <glyph glyph-name="afii10028" unicode="&#x41a;" horiz-adv-x="1099" 
d="M870 1365h147l-573 -650l633 -715h-169l-609 713zM180 1365h116v-1365h-116v1365z" />
    <glyph glyph-name="afii10029" unicode="&#x41b;" horiz-adv-x="1147" 
d="M394 1268l-95 -965q-10 -104 -31 -158t-65 -92q-74 -61 -203 -60v103q52 0 82 11.5t55 40.5q40 49 54 200l91 1017h685v-1365h-116v1268h-457z" />
    <glyph glyph-name="afii10030" unicode="&#x41c;" horiz-adv-x="1560" 
d="M180 1365h188l412 -1234l412 1234h188v-1365h-116v1259l-425 -1259h-117l-426 1259v-1259h-116v1365z" />
    <glyph glyph-name="afii10031" unicode="&#x41d;" horiz-adv-x="1267" 
d="M296 763h676v602h116v-1365h-116v666h-676v-666h-116v1365h116v-602z" />
    <glyph glyph-name="afii10032" unicode="&#x41e;" horiz-adv-x="1305" 
d="M653 1388q154 0 278 -90q136 -99 204 -287q54 -148 54 -328q0 -312 -156 -516q-75 -98 -184 -148q-91 -42 -195 -42q-238 0 -382 190q-156 204 -156 525q0 204 74 369q79 178 224 263q108 64 239 64zM653 1283q-183 0 -293 -166q-117 -177 -117 -427q0 -264 117 -442
q110 -166 293 -166t292 166q117 179 117 435q0 260 -117 434q-112 166 -292 166z" />
    <glyph glyph-name="afii10033" unicode="&#x41f;" horiz-adv-x="1267" 
d="M296 1268v-1268h-116v1365h908v-1365h-116v1268h-676z" />
    <glyph glyph-name="afii10034" unicode="&#x420;" horiz-adv-x="1050" 
d="M180 1365h194q266 0 372 -35q118 -39 185 -151q53 -89 53 -215q0 -155 -82 -253q-89 -108 -255 -127q-87 -10 -245 -10h-106v-574h-116v1365zM296 676h102q173 0 258 18q200 41 200 272q0 97 -41 167t-114 98q-54 20 -113 26t-217 6h-75v-587z" />
    <glyph glyph-name="afii10035" unicode="&#x421;" horiz-adv-x="1233" 
d="M1108 1009h-114q-67 274 -332 274q-186 0 -297 -150q-122 -167 -122 -450q0 -307 145 -481q101 -120 276 -120q202 0 294 164q48 84 61 203h114q-17 -173 -91 -283q-126 -189 -371 -189q-249 0 -396 179q-159 193 -159 524q0 372 193 565q142 143 354 143q222 0 347 -146
q77 -90 98 -233z" />
    <glyph glyph-name="afii10036" unicode="&#x422;" horiz-adv-x="921" 
d="M49 1365h824v-102h-354v-1263h-116v1263h-354v102z" />
    <glyph glyph-name="afii10037" unicode="&#x423;" horiz-adv-x="980" 
d="M32 1365h137l333 -814l343 814h128l-596 -1365h-122l192 430z" />
    <glyph glyph-name="afii10038" unicode="&#x424;" horiz-adv-x="1430" 
d="M774 0h-119v115q-197 9 -332 96q-241 155 -241 472q0 345 281 494q123 65 292 74v114h119v-114q197 -10 332 -97q241 -155 241 -471q0 -346 -281 -495q-123 -65 -292 -73v-115zM655 1149q-158 -6 -270 -84q-180 -128 -180 -382q0 -207 121.5 -333t328.5 -134v933z
M774 1149v-933q158 6 270 84q180 127 180 383q0 207 -121.5 332.5t-328.5 133.5z" />
    <glyph glyph-name="afii10039" unicode="&#x425;" horiz-adv-x="1083" 
d="M68 1365h136l340 -557l340 557h136l-409 -649l429 -716h-132l-364 604l-363 -604h-133l429 716z" />
    <glyph glyph-name="afii10040" unicode="&#x426;" horiz-adv-x="1269" 
d="M1088 97h102v-302h-116v205h-894v1365h116v-1268h676v1268h116v-1268z" />
    <glyph glyph-name="afii10041" unicode="&#x427;" horiz-adv-x="1122" 
d="M823 617q-131 -105 -325 -105q-105 0 -187.5 39.5t-128.5 112.5q-30 48 -41 106t-11 169v426h122v-400q0 -133 18 -189q24 -72 90.5 -112t160.5 -40q91 0 172 34t130 93v614h122v-1365h-122v617z" />
    <glyph glyph-name="afii10042" unicode="&#x428;" horiz-adv-x="1777" 
d="M947 97h534v1268h116v-1365h-1417v1365h116v-1268h535v1268h116v-1268z" />
    <glyph glyph-name="afii10043" unicode="&#x429;" horiz-adv-x="1779" 
d="M1584 0h-1404v1365h116v-1269h535v1269h116v-1269h534v1269h116v-1269h103v-301h-116v205z" />
    <glyph glyph-name="afii10044" unicode="&#x42a;" horiz-adv-x="1222" 
d="M0 1365h492v-573h106q166 0 244.5 -10t142.5 -40q93 -43 144 -132t51 -208q0 -183 -113 -290q-71 -68 -169 -90t-328 -22h-194v1263h-376v102zM492 690v-588h75q157 0 216.5 6t113.5 26q73 28 114 98t41 168q0 231 -200 272q-85 18 -258 18h-102z" />
    <glyph glyph-name="afii10045" unicode="&#x42b;" horiz-adv-x="1449" 
d="M180 0v1365h116v-573h106q166 0 244.5 -10t142.5 -40q93 -43 144 -132t51 -208q0 -183 -113 -290q-71 -68 -169 -90t-328 -22h-194zM296 690v-588h75q157 0 216.5 6t113.5 26q73 28 114 98t41 168q0 231 -200 272q-85 18 -258 18h-102zM1272 0h-122v1365h122v-1365z" />
    <glyph glyph-name="afii10046" unicode="&#x42c;" horiz-adv-x="1025" 
d="M180 0v1365h116v-573h106q166 0 244.5 -10t142.5 -40q93 -43 144 -132t51 -208q0 -183 -113 -290q-71 -68 -169 -90t-328 -22h-194zM296 690v-588h75q157 0 216.5 6t113.5 26q73 28 114 98t41 168q0 231 -200 272q-85 18 -258 18h-102z" />
    <glyph glyph-name="afii10047" unicode="&#x42d;" horiz-adv-x="1233" 
d="M988 737q-8 198 -83 335q-114 211 -334 211q-266 0 -332 -274h-115q25 163 122 258q124 121 323 121q213 0 355 -143q193 -193 193 -564q0 -332 -159 -525q-147 -179 -396 -179q-198 0 -320 124.5t-142 347.5h113q16 -137 76 -228q93 -139 279 -139q247 0 358 253
q55 126 62 300h-515v102h515z" />
    <glyph glyph-name="afii10048" unicode="&#x42e;" horiz-adv-x="1718" 
d="M533 763q16 201 94 345q79 145 200 216q109 64 239 64q235 0 380 -190q156 -204 156 -516t-156 -515q-144 -190 -380 -190q-182 0 -316 120q-103 92 -159.5 238.5t-60.5 330.5h-234v-666h-116v1365h116v-602h237zM1066 1283q-182 0 -292 -166q-117 -178 -117 -428
q0 -263 117 -441q109 -166 293 -166q182 0 291 166q117 178 117 434q0 261 -117 435q-112 166 -292 166z" />
    <glyph glyph-name="afii10049" unicode="&#x42f;" horiz-adv-x="1130" 
d="M950 1365v-1365h-116v606h-253l-367 -606h-145l375 623q-294 97 -294 368q0 164 103 263q71 67 167.5 89t321.5 22h208zM834 708v555h-99q-147 0 -206 -6t-109 -25q-68 -27 -105 -89.5t-37 -150.5q0 -126 73 -199q52 -52 127 -68.5t260 -16.5h96z" />
    <glyph glyph-name="afii10065" unicode="&#x430;" horiz-adv-x="949" 
d="M244 727h-111q13 115 82 182q90 87 263 87q145 0 233 -69q53 -42 69 -99.5t16 -204.5v-355l-1 -78q0 -110 26 -190h-106q-18 59 -25 137q-89 -161 -286 -161q-126 0 -207 65q-97 77 -97 213q0 207 228 291q140 52 362 86v51q0 108 -37 152q-53 65 -178 65
q-201 0 -231 -172zM690 546q-215 -42 -318 -87q-160 -69 -160 -201q0 -83 55.5 -134t144.5 -51q156 0 231 123q47 75 47 240v110z" />
    <glyph glyph-name="afii10066" unicode="&#x431;" horiz-adv-x="1010" 
d="M814 1388v-97q-37 -30 -101 -30q-24 0 -65 9q-68 16 -115 16q-154 0 -228 -155q-64 -132 -89 -306q110 171 295 171q164 0 271 -122q128 -147 128 -389q0 -243 -128 -388q-108 -121 -277 -121q-134 0 -232 79q-91 73 -133 198.5t-42 322.5q0 231 46.5 414t130.5 283
q93 110 244 110q34 0 152 -18q37 -5 60 -5q45 0 83 28zM506 899q-126 0 -202 -99q-92 -121 -92 -310q0 -199 92 -319q76 -98 202 -98t201 98q92 120 92 314q0 196 -92 315q-77 99 -201 99z" />
    <glyph glyph-name="afii10067" unicode="&#x432;" horiz-adv-x="848" 
d="M154 969h291q125 0 193 -43q101 -64 101 -199q0 -167 -167 -225q195 -54 195 -231q0 -149 -124 -225q-45 -27 -89.5 -36.5t-126.5 -9.5h-273v969zM260 450v-361h159q113 0 161 33q75 52 75 153q0 130 -126 165q-36 10 -132 10h-137zM260 880v-341h125q242 0 242 183
q0 102 -87 140q-40 18 -123 18h-157z" />
    <glyph glyph-name="afii10068" unicode="&#x433;" horiz-adv-x="684" 
d="M260 880v-880h-106v969h517v-89h-411z" />
    <glyph glyph-name="afii10069" unicode="&#x434;" horiz-adv-x="944" 
d="M791 89h92v-294h-106v205h-668v-205h-106v294h21q81 0 117 51.5t48 185.5l58 643h544v-880zM685 89v791h-336l-59 -596q-15 -149 -70 -195h465z" />
    <glyph glyph-name="afii10070" unicode="&#x435;" horiz-adv-x="975" 
d="M874 472h-662q4 -174 62 -271q77 -129 233 -129q84 0 138.5 36.5t100.5 123.5l103 -19q-90 -237 -341 -237q-186 0 -295 128q-113 131 -113 369q0 276 142 420q101 103 255 103q202 0 306 -176q71 -122 71 -310v-38zM760 561q-8 116 -48 197q-72 141 -219 141
q-115 0 -187.5 -88.5t-89.5 -249.5h544z" />
    <glyph glyph-name="afii10072" unicode="&#x436;" horiz-adv-x="1151" 
d="M523 969h106v-409h107l275 409h124l-309 -446l332 -523h-126l-299 471h-104v-471h-106v471h-104l-300 -471h-126l332 523l-309 446h125l275 -409h107v409z" />
    <glyph glyph-name="afii10073" unicode="&#x437;" horiz-adv-x="880" 
d="M398 533h22q100 0 140 12q57 18 90.5 63t33.5 105q0 85 -56 136t-150 51q-216 0 -253 -244h-106q13 134 75 216q94 125 278 125q124 0 208 -58q116 -79 116 -215q0 -174 -172 -234q194 -51 194 -232q0 -130 -92 -206t-247 -76q-129 0 -201 42q-147 86 -169 310h110
q25 -255 255 -255q86 0 140 33q91 54 91 163q0 152 -170 172q-24 3 -115 3h-22v89z" />
    <glyph glyph-name="afii10074" unicode="&#x438;" horiz-adv-x="997" 
d="M741 971h106v-971h-106v737l-485 -671v-66h-106v971h106v-747l485 677v70z" />
    <glyph glyph-name="afii10075" unicode="&#x439;" horiz-adv-x="1010" 
d="M726 1430h65q-8 -76 -34 -132q-34 -72 -93 -113q-64 -45 -144 -45q-110 0 -184 78.5t-87 211.5h66q14 -62 50 -103q63 -71 155 -71q76 0 131.5 47t74.5 127zM741 971h106v-971h-106v737l-485 -671v-66h-106v971h106v-747l485 677v70z" />
    <glyph glyph-name="afii10076" unicode="&#x43a;" horiz-adv-x="885" 
d="M690 969h131l-418 -445l448 -524h-151l-436 518zM154 969h106v-969h-106v969z" />
    <glyph glyph-name="afii10077" unicode="&#x43b;" horiz-adv-x="940" 
d="M344 880l-59 -597q-9 -97 -28.5 -147t-60.5 -85q-65 -55 -189 -56v96q50 0 77 10.5t50 38.5q38 46 50 185l58 644h544v-969h-106v880h-336z" />
    <glyph glyph-name="afii10078" unicode="&#x43c;" horiz-adv-x="1231" 
d="M611 129l313 840h154v-969h-106v838l-314 -838h-98l-300 838v-838h-106v969h157z" />
    <glyph glyph-name="afii10079" unicode="&#x43d;" horiz-adv-x="1010" 
d="M751 471h-491v-471h-106v969h106v-409h491v409h106v-969h-106v471z" />
    <glyph glyph-name="afii10080" unicode="&#x43e;" horiz-adv-x="1010" 
d="M505 996q168 0 277 -122q128 -145 128 -389q0 -243 -128 -388q-108 -121 -276 -121q-170 0 -278 121q-128 145 -128 395q0 238 128 382q110 122 277 122zM506 899q-126 0 -202 -99q-92 -121 -92 -310q0 -199 92 -319q76 -98 202 -98t201 98q92 120 92 314q0 196 -92 315
q-77 99 -201 99z" />
    <glyph glyph-name="afii10081" unicode="&#x43f;" horiz-adv-x="1010" 
d="M751 880h-491v-880h-106v969h703v-969h-106v880z" />
    <glyph glyph-name="afii10082" unicode="&#x440;" horiz-adv-x="1012" 
d="M154 -404v1091q0 214 -20 282h110q15 -48 18 -151q41 76 86 113q79 66 193 66q144 0 237 -104q135 -150 135 -413q0 -258 -126 -402q-89 -102 -238 -102q-186 0 -286 165v-545h-109zM539 901q-116 0 -187 -95q-94 -126 -94 -320q0 -195 88 -313q76 -100 193 -100
q116 0 176 82q87 118 87 324q0 216 -94 339q-63 83 -169 83z" />
    <glyph glyph-name="afii10083" unicode="&#x441;" horiz-adv-x="955" 
d="M845 656h-106q-14 96 -58 155q-64 88 -180 88q-122 0 -194 -93q-95 -123 -95 -322q0 -215 107 -333q72 -78 187 -78q103 0 165 66t74 189h110q-14 -147 -84 -235q-91 -117 -260 -117q-161 0 -270 105q-141 137 -141 401q0 278 156 421q101 93 248 93t236.5 -89
t104.5 -251z" />
    <glyph glyph-name="afii10084" unicode="&#x442;" horiz-adv-x="693" 
d="M400 880v-880h-106v880h-287v89h679v-89h-286z" />
    <glyph glyph-name="afii10085" unicode="&#x443;" horiz-adv-x="855" 
d="M33 969h115l279 -831l289 831h112l-316 -887q-66 -190 -92 -250t-64 -111q-95 -129 -268 -129q-16 0 -34 1v95q131 0 188 57q34 34 57.5 82t68.5 174z" />
    <glyph glyph-name="afii10086" unicode="&#x444;" horiz-adv-x="1346" 
d="M619 1371h109v-536q26 76 82 118.5t130 42.5q134 0 210 -115q97 -145 97 -392q0 -254 -98 -399q-77 -114 -211 -114q-74 0 -129 42t-81 119v-541h-109v541q-26 -77 -81 -119t-129 -42q-134 0 -211 114q-98 145 -98 399q0 247 97 392q76 115 210 115q74 0 130 -42.5
t82 -118.5v536zM930 899q-98 0 -150 -105t-52 -301q0 -209 52 -314q53 -106 152 -106q93 0 149.5 114t56.5 299q0 203 -69 322q-53 91 -139 91zM417 899q-87 0 -139 -91q-69 -123 -69 -322t69 -322q52 -91 137 -91q100 0 152 106t52 314q0 196 -52 300q-53 106 -150 106z
" />
    <glyph glyph-name="afii10087" unicode="&#x445;" horiz-adv-x="863" 
d="M67 969h123l243 -371l246 371h132l-312 -454l348 -515h-128l-286 428l-289 -428h-128l352 515z" />
    <glyph glyph-name="afii10088" unicode="&#x446;" horiz-adv-x="1010" 
d="M843 0h-689v969h106v-880h491v880h106v-880h92v-294h-106v205z" />
    <glyph glyph-name="afii10089" unicode="&#x447;" horiz-adv-x="939" 
d="M680 969h106v-969h-106v462q-97 -142 -269 -142q-185 0 -263 136q-39 68 -39 183v330h106v-317q0 -235 204 -235q123 0 192 82.5t69 229.5v240z" />
    <glyph glyph-name="afii10090" unicode="&#x448;" horiz-adv-x="1389" 
d="M1129 89v880h106v-969h-1081v969h106v-880h382v880h106v-880h381z" />
    <glyph glyph-name="afii10091" unicode="&#x449;" horiz-adv-x="1389" 
d="M1222 0h-1068v969h106v-880h382v880h106v-880h381v880h106v-880h93v-294h-106v205z" />
    <glyph glyph-name="afii10092" unicode="&#x44a;" horiz-adv-x="917" 
d="M0 969h370v-408h202q130 0 202 -51q103 -72 103 -218q0 -168 -128 -248q-46 -28 -86 -36t-140 -8h-259v880h-264v89zM370 472v-383h146q75 0 115 9.5t71 35.5q63 53 63 150t-55.5 142.5t-175.5 45.5h-164z" />
    <glyph glyph-name="afii10093" unicode="&#x44b;" horiz-adv-x="1177" 
d="M154 969h106v-408h202q130 0 202 -51q103 -72 103 -218q0 -168 -128 -248q-46 -28 -86 -36t-140 -8h-259v969zM260 472v-383h146q75 0 115 9.5t71 35.5q63 52 63 150t-55.5 143t-175.5 45h-164zM918 969h106v-969h-106v969z" />
    <glyph glyph-name="afii10094" unicode="&#x44c;" horiz-adv-x="807" 
d="M154 969h106v-408h202q130 0 202 -51q103 -72 103 -218q0 -168 -128 -248q-46 -28 -86 -36t-140 -8h-259v969zM260 472v-383h146q75 0 115 9.5t71 35.5q63 52 63 150t-55.5 143t-175.5 45h-164z" />
    <glyph glyph-name="afii10095" unicode="&#x44d;" horiz-adv-x="955" 
d="M742 533q-10 128 -57 217q-79 149 -231 149q-98 0 -159 -62.5t-79 -180.5h-106q13 135 75 216q94 124 266 124q148 0 249 -93q156 -143 156 -422q0 -263 -142 -400q-109 -105 -270 -105q-150 0 -238.5 90.5t-105.5 261.5h110q12 -122 74 -188.5t165 -66.5q127 0 203.5 96
t90.5 275h-354v89h353z" />
    <glyph glyph-name="afii10096" unicode="&#x44e;" horiz-adv-x="1348" 
d="M442 560q14 145 75 247q114 189 326 189q168 0 277 -122q128 -146 128 -390q0 -243 -128 -387q-108 -121 -277 -121q-133 0 -232 79q-167 134 -173 416h-178v-471h-106v969h106v-409h182zM843 899q-125 0 -201 -99q-92 -121 -92 -310q0 -199 92 -319q76 -98 202 -98
t201 98q92 120 92 313q0 197 -92 316q-77 99 -202 99z" />
    <glyph glyph-name="afii10097" unicode="&#x44f;" horiz-adv-x="861" 
d="M409 408l-239 -408h-113l242 416q-97 21 -151 89.5t-54 171.5q0 168 128 248q45 28 85.5 36t139.5 8h260v-969h-106v408h-192zM601 497v383h-146q-75 0 -115 -9.5t-71 -35.5q-63 -53 -63 -150t55.5 -142.5t175.5 -45.5h164z" />
    <glyph glyph-name="uni0450" unicode="&#x450;" horiz-adv-x="975" 
d="M874 472h-662q4 -174 62 -271q77 -129 233 -129q84 0 138.5 36.5t100.5 123.5l103 -19q-90 -237 -341 -237q-186 0 -295 128q-113 131 -113 369q0 276 142 420q101 103 255 103q202 0 306 -176q71 -122 71 -310v-38zM760 561q-8 116 -48 197q-72 141 -219 141
q-115 0 -187.5 -88.5t-89.5 -249.5h544zM619 1144h-96l-270 263h170z" />
    <glyph glyph-name="afii10071" unicode="&#x451;" horiz-adv-x="975" 
d="M874 472h-662q4 -174 62 -271q77 -129 233 -129q84 0 138.5 36.5t100.5 123.5l103 -19q-90 -237 -341 -237q-186 0 -295 128q-113 131 -113 369q0 276 142 420q101 103 255 103q202 0 306 -176q71 -122 71 -310v-38zM760 561q-8 116 -48 197q-72 141 -219 141
q-115 0 -187.5 -88.5t-89.5 -249.5h544zM335 1378q40 0 68 -28.5t28 -69.5q0 -40 -28.5 -68.5t-68.5 -28.5q-41 0 -69.5 28.5t-28.5 68.5q0 42 28.5 70t70.5 28zM684 1378q40 0 68 -28.5t28 -69.5q0 -40 -28.5 -68.5t-68.5 -28.5q-41 0 -69.5 28.5t-28.5 68.5
q0 41 28.5 69.5t70.5 28.5z" />
    <glyph glyph-name="afii10099" unicode="&#x452;" horiz-adv-x="992" 
d="M271 862q106 142 279 142q87 0 157 -35t108 -98q29 -47 38 -110t9 -215v-546q0 -145 -17 -203.5t-72 -101.5q-92 -72 -234 -72h-70v105h61q67 0 109 13.5t79 46.5q26 22 32 54.5t6 149.5v581q0 108 -6 153t-24 78q-54 99 -184 99q-148 0 -222 -119q-49 -77 -49 -226v-558
h-106v1137h-129v89h129v146h106v-146h303v-89h-303v-275z" />
    <glyph glyph-name="afii10100" unicode="&#x453;" horiz-adv-x="684" 
d="M260 880v-880h-106v969h517v-89h-411zM364 1144l196 263h170l-269 -263h-97z" />
    <glyph glyph-name="afii10101" unicode="&#x454;" horiz-adv-x="955" 
d="M213 533h354v-89h-354q12 -153 67 -242q81 -129 226 -129q103 0 165.5 66.5t74.5 188.5h110q-15 -147 -84 -235q-92 -117 -261 -117q-161 0 -270 105q-141 137 -141 400q0 279 156 422q101 93 249 93q147 0 236 -89t104 -251h-106q-14 96 -58 155q-64 88 -180 88
q-167 0 -245 -180q-34 -77 -43 -186z" />
    <glyph glyph-name="afii10102" unicode="&#x455;" horiz-adv-x="865" 
d="M757 711h-104q-10 92 -54 134q-55 54 -159 54q-91 0 -146.5 -44.5t-55.5 -117.5q0 -63 45 -98t177 -75q118 -35 172.5 -60t85.5 -59q59 -63 59 -172q0 -128 -82 -207q-91 -90 -255 -90q-166 0 -255.5 82t-89.5 234l105 -1q20 -218 240 -218q96 0 157 47q67 51 67 143
q0 83 -60 125q-24 18 -55.5 29.5t-165.5 53.5q-147 45 -200 105q-56 64 -56 158q0 130 102 200q89 62 213 62q147 0 228 -73.5t87 -211.5z" />
    <glyph glyph-name="afii10103" unicode="&#x456;" horiz-adv-x="424" 
d="M154 969h117v-969h-117v969zM213 1380q38 0 64 -26t26 -65q0 -38 -25.5 -63.5t-64.5 -25.5t-65 25t-26 63q0 39 26 65.5t65 26.5z" />
    <glyph glyph-name="afii10104" unicode="&#x457;" horiz-adv-x="424" 
d="M153 969h117v-969h-117v969zM83 1377q39 0 67 -28.5t28 -67.5q0 -41 -28 -69t-68 -28q-41 0 -69 28t-28 68q0 41 28.5 69t69.5 28zM344 1377q39 0 67 -28.5t28 -67.5q0 -41 -28 -69t-68 -28t-68.5 28t-28.5 68q0 41 28.5 69t69.5 28z" />
    <glyph glyph-name="afii10105" unicode="&#x458;" horiz-adv-x="501" 
d="M230 969h117v-903q0 -146 -9 -210.5t-36 -112.5q-74 -130 -292 -130q-20 0 -58 1v97q19 -2 38 -2q153 0 204 82q22 35 29 90t7 185v903zM288 1380q38 0 64 -26t26 -65q0 -38 -25.5 -63.5t-64.5 -25.5t-65 25t-26 63q0 39 26 65.5t65 26.5z" />
    <glyph glyph-name="afii10106" unicode="&#x459;" horiz-adv-x="1334" 
d="M786 969v-408h202q130 0 202 -51q103 -72 103 -218q0 -168 -128 -248q-46 -28 -86 -36t-139 -8h-260v880h-336l-59 -596q-9 -97 -28.5 -147t-60.5 -86q-69 -57 -189 -56v96q49 0 76.5 10.5t50.5 38.5q38 46 50 185l58 644h544zM786 472v-383h146q75 0 115 9.5t71 35.5
q63 53 63 150t-55.5 142.5t-175.5 45.5h-164z" />
    <glyph glyph-name="afii10107" unicode="&#x45a;" horiz-adv-x="1404" 
d="M751 0v472h-491v-472h-106v969h106v-408l491 -1v409h106v-408h202q130 0 202 -51q103 -72 103 -218q0 -168 -128 -248q-46 -28 -86 -36t-140 -8h-259zM857 472v-383h146q75 0 115 9.5t71 35.5q63 53 63 150t-55.5 142.5t-175.5 45.5h-164z" />
    <glyph glyph-name="afii10108" unicode="&#x45b;" horiz-adv-x="992" 
d="M154 1371h106v-147h273v-89h-273v-281q56 75 121.5 108.5t157.5 33.5q179 0 259 -124q28 -44 37 -104.5t9 -211.5v-556h-106v563q0 113 -5.5 158.5t-22.5 79.5q-52 99 -181 99q-145 0 -219 -119q-50 -82 -50 -236v-545h-106v1135h-123v89h123v147z" />
    <glyph glyph-name="afii10109" unicode="&#x45c;" horiz-adv-x="885" 
d="M690 969h131l-418 -445l448 -524h-151l-436 518zM154 969h106v-969h-106v969zM434 1144l196 263h170l-270 -263h-96z" />
    <glyph glyph-name="uni045D" unicode="&#x45d;" horiz-adv-x="997" 
d="M619 1144h-96l-270 263h170zM741 971h106v-971h-106v737l-485 -671v-66h-106v971h106v-747l485 677v70z" />
    <glyph glyph-name="afii10110" unicode="&#x45e;" horiz-adv-x="855" 
d="M33 969h115l279 -831l289 831h112l-316 -887q-66 -190 -92 -250t-64 -111q-95 -129 -268 -129q-16 0 -34 1v95q131 0 188 57q34 34 57.5 82t68.5 174zM210 1409h78q16 -77 60.5 -121.5t106.5 -44.5t105.5 43.5t59.5 122.5h78q-7 -71 -30 -124q-62 -146 -211 -146
q-101 0 -168.5 73.5t-78.5 196.5z" />
    <glyph glyph-name="afii10193" unicode="&#x45f;" horiz-adv-x="1010" 
d="M452 0h-298v969h106v-880h491v880h106v-969h-299v-205h-106v205z" />
    <glyph glyph-name="uni0462" unicode="&#x462;" horiz-adv-x="1025" 
d="M296 1060v-268h105q167 0 245.5 -10t142.5 -40q93 -43 144 -131.5t51 -208.5q0 -183 -113 -290q-71 -68 -169.5 -90t-327.5 -22h-194v1060h-204v111h204v194h116v-194h378v-111h-378zM296 690v-588h75q157 0 216.5 6t113.5 26q73 28 114 98t41 168q0 231 -200 272
q-85 18 -258 18h-102z" />
    <glyph glyph-name="uni0463" unicode="&#x463;" horiz-adv-x="807" 
d="M260 1040h390v-101h-390v-378h201q130 0 202 -51q103 -72 103 -218q0 -168 -128 -248q-46 -28 -85.5 -36t-139.5 -8h-259v939h-183v101h183v325h106v-325zM260 472v-383h145q76 0 115.5 9.5t70.5 35.5q63 53 63 150q0 98 -55.5 143t-174.5 45h-164z" />
    <glyph glyph-name="uni0472" unicode="&#x472;" horiz-adv-x="1305" 
d="M653 1388q154 0 278 -90q136 -99 204 -287q54 -148 54 -328q0 -312 -156 -516q-75 -98 -184 -148q-91 -42 -195 -42q-238 0 -382 190q-156 204 -156 525q0 204 74 369q79 178 224 263q108 64 239 64zM245 730l9 3q161 43 246 43q87 0 161 -38l59 -30q41 -21 92 -21
q87 0 238 45l10 3q-10 173 -71 303q-116 245 -337 245q-241 0 -354 -288q-48 -123 -53 -265zM1060 637l-7 -2q-19 -5 -40 -10q-159 -44 -237 -44q-40 0 -64 8t-96 45q-72 36 -152 36q-77 0 -205 -33l-14 -4q10 -176 71 -306q115 -245 336 -245q242 0 354 287q48 124 54 268z
" />
    <glyph glyph-name="uni0473" unicode="&#x473;" horiz-adv-x="1010" 
d="M505 996q168 0 277 -122q128 -145 128 -389q0 -243 -128 -388q-108 -121 -276 -121q-170 0 -278 121q-128 145 -128 395q0 238 128 382q110 122 277 122zM213 524q6 2 17 5q121 36 184 36q52 0 126 -37q56 -27 84 -27q25 0 124 26l48 13q-9 116 -53 202q-81 157 -238 157
q-173 0 -252 -187q-34 -80 -40 -188zM798 445l-72 -19q-104 -27 -144 -27q-39 0 -100 31t-105 31q-45 0 -163 -31q9 -117 53 -202q82 -155 238 -155q173 0 252 186q34 80 41 186z" />
    <glyph glyph-name="uni0474" unicode="&#x474;" horiz-adv-x="1117" 
d="M1217 1362v-90q-27 5 -49 5q-113 0 -141 -80l-425 -1208h-100l-470 1376h123l409 -1227l350 1080q24 76 81 116.5t138 40.5q40 0 84 -13z" />
    <glyph glyph-name="uni0475" unicode="&#x475;" horiz-adv-x="835" 
d="M913 969v-76q-25 3 -41 3q-94 0 -125 -91l-286 -819h-97l-343 983h112l286 -852l236 706q0 1 2 8q45 144 195 144q27 0 61 -6z" />
    <glyph glyph-name="afii10050" unicode="&#x490;" horiz-adv-x="924" 
d="M883 1532v-269h-581v-1263h-122v1365h581v167h122z" />
    <glyph glyph-name="afii10098" unicode="&#x491;" horiz-adv-x="684" 
d="M671 1083v-203h-411v-880h-106v969h411v114h106z" />
    <glyph glyph-name="uni0492" unicode="&#x492;" horiz-adv-x="977" 
d="M295 758h352v-102h-352v-656h-116v656h-147v102h147v607h715v-102h-599v-505z" />
    <glyph glyph-name="uni0493" unicode="&#x493;" horiz-adv-x="684" 
d="M154 626v343h517v-89h-411v-254h279v-92h-279v-534h-106v534h-115v92h115z" />
    <glyph glyph-name="uni0496" unicode="&#x496;" horiz-adv-x="1514" 
d="M1457 0h-72l-447 666h-123v-666h-116v666h-124l-447 -666h-135l483 720l-443 645h133l409 -602h124v602h116v-602h123l409 602h133l-442 -645l430 -643h105v-301h-116v224z" />
    <glyph glyph-name="uni0497" unicode="&#x497;" horiz-adv-x="1151" 
d="M1115 0h-84l-299 471h-103v-471h-106v471h-104l-300 -471h-126l332 523l-309 446h125l275 -409h107v409h106v-409h106l275 409h125l-309 -446l291 -459h104v-294h-106v230z" />
    <glyph glyph-name="uni049A" unicode="&#x49a;" horiz-adv-x="1099" 
d="M1028 55h111v-301h-116v246h-115l-609 713l571 652h146l-573 -650zM180 1365h116v-1365h-116v1365z" />
    <glyph glyph-name="uni049B" unicode="&#x49b;" horiz-adv-x="885" 
d="M802 57h106v-293h-106v236h-102l-436 518l426 451h131l-418 -445zM154 969h106v-969h-106v969z" />
    <glyph glyph-name="uni049C" unicode="&#x49c;" horiz-adv-x="1099" 
d="M439 549v-207h-92v315l-48 56l48 55v308h92v-204l431 493h146l-573 -650l634 -715h-169zM180 1365h116v-1365h-116v1365z" />
    <glyph glyph-name="uni049D" unicode="&#x49d;" horiz-adv-x="885" 
d="M394 363v-159h-92v269l-39 46l39 40v272h92v-175l296 313h131l-418 -445l448 -524h-152zM154 969h106v-969h-106v969z" />
    <glyph glyph-name="uni04A2" unicode="&#x4a2;" horiz-adv-x="1267" 
d="M1088 85h115v-301h-116v216h-115v666h-676v-666h-116v1365h116v-602h676v602h116v-1280z" />
    <glyph glyph-name="uni04A3" unicode="&#x4a3;" horiz-adv-x="1010" 
d="M857 75h104v-294h-106v219h-104v471h-491v-471h-106v969h106v-409h491v409h106v-894z" />
    <glyph glyph-name="uni04AE" unicode="&#x4ae;" horiz-adv-x="1014" 
d="M32 1365h137l340 -669l336 669h137l-420 -780l3 -585h-116l3 585z" />
    <glyph glyph-name="uni04AF" unicode="&#x4af;" horiz-adv-x="855" 
d="M829 969l-345 -966v-407h-121v407l-330 966h115l279 -831l289 831h113z" />
    <glyph glyph-name="uni04B0" unicode="&#x4b0;" horiz-adv-x="1014" 
d="M563 485h242v-92h-242l2 -393h-116l2 393h-217v92h218v100l-420 780h137l341 -669l335 669h137l-420 -780z" />
    <glyph glyph-name="uni04B1" unicode="&#x4b1;" horiz-adv-x="855" 
d="M363 -32v35l-330 966h115l279 -830l289 830h112l-344 -966v-35h237v-92h-237v-280h-121v280h-213v92h213z" />
    <glyph glyph-name="uni04B2" unicode="&#x4b2;" horiz-adv-x="1083" 
d="M997 71h112v-301h-116v230h-86l-363 604l-364 -604h-132l428 716l-408 649h136l340 -557l340 557h136l-409 -649z" />
    <glyph glyph-name="uni04B3" unicode="&#x4b3;" horiz-adv-x="863" 
d="M800 69h106v-294h-106v225h-81l-286 428l-289 -428h-128l352 515l-301 454h123l243 -371l245 371h133l-313 -454z" />
    <glyph glyph-name="uni04B6" unicode="&#x4b6;" horiz-adv-x="1122" 
d="M945 99h97v-301h-116v202h-103v616q-130 -104 -325 -104q-105 0 -187.5 39.5t-128.5 112.5q-30 47 -41 105t-11 170v426h122v-400q0 -133 18 -189q24 -71 90 -111t161 -40q91 0 171 33t131 92v615h122v-1266z" />
    <glyph glyph-name="uni04B7" unicode="&#x4b7;" horiz-adv-x="939" 
d="M786 71h73v-301h-116v230h-63v462q-98 -142 -269 -142q-185 0 -263 136q-39 68 -39 183v330h106v-317q0 -235 204 -235q123 0 192 82.5t69 229.5v240h106v-898z" />
    <glyph glyph-name="uni04B8" unicode="&#x4b8;" horiz-adv-x="1122" 
d="M578 517v-275h-92v270q-165 3 -264 102q-53 53 -72.5 122.5t-19.5 203.5v425h122v-400q0 -107 9.5 -156.5t37.5 -87.5q62 -85 187 -95v297h92v-295q159 22 245 123v614h122v-1365h-122v617q-99 -80 -245 -100z" />
    <glyph glyph-name="uni04B9" unicode="&#x4b9;" horiz-adv-x="939" 
d="M475 325v-238h-92v233q-134 11 -204 92.5t-70 226.5v330h106v-317q0 -211 168 -234v275h92v-272q205 41 205 308v240h106v-969h-106v462q-78 -115 -205 -137z" />
    <glyph glyph-name="uni04BA" unicode="&#x4ba;" horiz-adv-x="1095" 
d="M272 748q131 105 325 105q105 0 187.5 -39.5t128.5 -112.5q30 -47 41 -105.5t11 -170.5v-425h-122v400q0 133 -18 189q-24 72 -90 112t-161 40q-91 0 -171 -33.5t-131 -93.5v-614h-122v1365h122v-617z" />
    <glyph glyph-name="uni04BB" unicode="&#x4bb;" horiz-adv-x="992" 
d="M154 1371h106v-517q56 75 121.5 108.5t157.5 33.5q179 0 259 -124q28 -44 37 -104.5t9 -211.5v-556h-106v563q0 113 -5.5 158t-22.5 79q-52 99 -182 99q-144 0 -218 -119q-50 -81 -50 -235v-545h-106v1371z" />
    <glyph glyph-name="uni04C0" unicode="&#x4c0;" horiz-adv-x="476" 
d="M299 0h-122v1365h122v-1365z" />
    <glyph glyph-name="uni04CF" unicode="&#x4cf;" horiz-adv-x="476" 
d="M299 0h-122v1365h122v-1365z" />
    <glyph glyph-name="uni04D8" unicode="&#x4d8;" horiz-adv-x="1305" 
d="M107 727h952v16q0 87 -32 190.5t-83 183.5q-60 94 -156 138q-60 28 -134 28q-174 0 -293 -166q-24 -33 -39 -70l-113 50q24 52 63 101q154 190 380 190q232 0 381 -190q150 -191 150 -508q0 -327 -150 -523q-145 -190 -380 -190q-154 0 -279 89q-149 106 -213 335
q-29 102 -54 326zM235 638q14 -167 82 -310q116 -246 336 -246q136 0 237 101q163 162 172 455h-827z" />
    <glyph glyph-name="afii10846" unicode="&#x4d9;" horiz-adv-x="975" 
d="M101 501h662q-4 173 -62 270q-78 129 -233 129q-85 0 -140 -36.5t-99 -122.5l-104 18q91 237 341 237q186 0 296 -128q113 -131 113 -369q0 -276 -142 -420q-102 -103 -256 -103q-202 0 -306 176q-71 121 -71 311q0 12 1 38zM215 412q7 -117 48 -197q71 -142 218 -142
q115 0 187.5 88.5t90.5 250.5h-544z" />
    <glyph glyph-name="uni04E2" unicode="&#x4e2;" 
d="M226 1672h571v-92h-571v92zM49 0v1365h110v-1123l707 1014v109h108v-1365h-108v1087l-707 -1005v-82h-110z" />
    <glyph glyph-name="uni04E3" unicode="&#x4e3;" 
d="M238 1328h548v-95h-548v95zM755 971h106v-971h-106v737l-485 -671v-66h-106v971h106v-747l485 677v70z" />
    <glyph glyph-name="uni04E8" unicode="&#x4e8;" horiz-adv-x="1305" 
d="M654 1388q153 0 277 -90q136 -99 204 -286q54 -148 54 -329q0 -312 -156 -516q-145 -190 -380 -190q-236 0 -381 190q-156 204 -156 507q0 325 156 524q148 190 382 190zM244 719h817q-8 181 -72 319q-115 245 -337 245q-172 0 -285 -155.5t-123 -408.5zM1060 627h-815
q10 -169 71 -299q115 -246 336 -246q243 0 355 288q44 114 53 257z" />
    <glyph glyph-name="uni04E9" unicode="&#x4e9;" horiz-adv-x="1010" 
d="M506 996q167 0 276 -122q128 -144 128 -389q0 -243 -128 -387q-108 -122 -277 -122t-277 122q-128 144 -128 380q0 252 128 396q110 122 278 122zM213 535h584q-7 116 -54 208q-81 156 -238 156q-172 0 -252 -187q-34 -80 -40 -177zM798 446h-585q7 -128 54 -217
q82 -156 238 -156q173 0 252 186q34 80 41 187z" />
    <glyph glyph-name="uni04EE" unicode="&#x4ee;" 
d="M227 1672h571v-92h-571v92zM54 1365h137l333 -814l343 814h128l-596 -1365h-122l192 430z" />
    <glyph glyph-name="uni04EF" unicode="&#x4ef;" 
d="M238 1328h548v-95h-548v95zM118 969h115l279 -831l289 831h112l-316 -887q-66 -190 -92 -250t-64 -111q-95 -129 -268 -129q-16 0 -34 1v95q131 0 188 57q34 34 57.5 82t68.5 174z" />
    <glyph glyph-name="uni1E1E" unicode="&#x1e1e;" horiz-adv-x="977" 
d="M296 758h558v-102h-558v-656h-116v1365h715v-102h-599v-505zM539 1744q47 0 81 -34.5t34 -82.5q0 -49 -34 -83t-83 -34t-83 34t-34 83t34.5 83t84.5 34z" />
    <glyph glyph-name="Wgrave" unicode="&#x1e80;" horiz-adv-x="1528" 
d="M43 1365h112l266 -1196l293 1196h101l294 -1196l268 1196h112l-319 -1376h-120l-285 1126l-286 -1126h-120zM854 1496h-119l-315 262h170z" />
    <glyph glyph-name="wgrave" unicode="&#x1e81;" horiz-adv-x="1293" 
d="M32 969h113l217 -796l236 796h97l236 -796l217 796h113l-279 -983h-97l-238 822l-239 -822h-97zM742 1144h-96l-270 263h170z" />
    <glyph glyph-name="Wacute" unicode="&#x1e82;" horiz-adv-x="1528" 
d="M43 1365h112l266 -1196l293 1196h101l294 -1196l268 1196h112l-319 -1376h-120l-285 1126l-286 -1126h-120zM689 1496l264 262h171l-316 -262h-119z" />
    <glyph glyph-name="wacute" unicode="&#x1e83;" horiz-adv-x="1293" 
d="M32 969h113l217 -796l236 796h97l236 -796l217 796h113l-279 -983h-97l-238 822l-239 -822h-97zM584 1144l196 263h170l-270 -263h-96z" />
    <glyph glyph-name="Wdieresis" unicode="&#x1e84;" horiz-adv-x="1528" 
d="M43 1365h112l266 -1196l293 1196h101l294 -1196l268 1196h112l-319 -1376h-120l-285 1126l-286 -1126h-120zM589 1732q42 0 72.5 -30.5t30.5 -74.5q0 -43 -30.5 -73.5t-73.5 -30.5q-44 0 -74.5 30.5t-30.5 73.5q0 44 30.5 74.5t75.5 30.5zM949 1732q42 0 72.5 -31
t30.5 -74t-30.5 -73.5t-74.5 -30.5q-43 0 -73.5 30.5t-30.5 73.5q0 44 30.5 74.5t75.5 30.5z" />
    <glyph glyph-name="wdieresis" unicode="&#x1e85;" horiz-adv-x="1293" 
d="M32 969h113l217 -796l236 796h97l236 -796l217 796h113l-279 -983h-97l-238 822l-239 -822h-97zM474 1378q40 0 68 -28.5t28 -69.5q0 -40 -28.5 -68.5t-68.5 -28.5q-41 0 -69.5 28.5t-28.5 68.5q0 41 28.5 69.5t70.5 28.5zM822 1378q40 0 68 -28.5t28 -69.5
q0 -40 -28.5 -68.5t-68.5 -28.5q-41 0 -69.5 28.5t-28.5 68.5q0 41 28.5 69.5t70.5 28.5z" />
    <glyph glyph-name="uni1EA0" unicode="&#x1ea0;" horiz-adv-x="1119" 
d="M522 1377h90l473 -1377h-122l-134 388h-524l-135 -388h-121zM795 490l-228 720l-229 -720h457zM574 -192q48 0 82 -34.5t34 -82.5q0 -49 -34 -83t-83 -34q-48 0 -82.5 34t-34.5 83t34.5 83t83.5 34z" />
    <glyph glyph-name="uni1EA1" unicode="&#x1ea1;" horiz-adv-x="949" 
d="M244 727h-111q13 115 82 182q90 87 263 87q145 0 233 -69q53 -42 69 -99.5t16 -204.5v-355l-1 -78q0 -110 26 -190h-106q-18 59 -25 137q-89 -161 -286 -161q-126 0 -207 65q-97 77 -97 213q0 207 228 291q140 52 362 86v51q0 108 -37 152q-53 65 -178 65
q-201 0 -231 -172zM690 546q-215 -42 -318 -87q-160 -69 -160 -201q0 -83 55.5 -134t144.5 -51q156 0 231 123q47 75 47 240v110zM574 -197q48 0 82 -34.5t34 -82.5q0 -49 -34 -83t-83 -34q-48 0 -82.5 34t-34.5 83t34.5 83t83.5 34z" />
    <glyph glyph-name="uni1EA2" unicode="&#x1ea2;" horiz-adv-x="1134" 
d="M522 1377h90l473 -1377h-122l-134 388h-524l-135 -388h-121zM795 490l-228 720l-229 -720h457zM532 1458l1 146q82 3 116 18q51 22 51 75q0 44 -32.5 70t-87.5 26q-41 0 -103 -18v77q77 26 146 26q93 0 147 -43q60 -48 60 -126q0 -90 -75 -131q-49 -27 -148 -28v-92h-75z
" />
    <glyph glyph-name="uni1EA3" unicode="&#x1ea3;" horiz-adv-x="949" 
d="M244 727h-111q13 115 82 182q90 87 263 87q145 0 233 -69q53 -42 69 -99.5t16 -204.5v-355l-1 -78q0 -110 26 -190h-106q-18 59 -25 137q-89 -161 -286 -161q-126 0 -207 65q-97 77 -97 213q0 207 228 291q140 52 362 86v51q0 108 -37 152q-53 65 -178 65
q-201 0 -231 -172zM690 546q-215 -42 -318 -87q-160 -69 -160 -201q0 -83 55.5 -134t144.5 -51q156 0 231 123q47 75 47 240v110zM484 1184v146q82 3 116 18q51 22 51 75q0 44 -32.5 70t-87.5 26q-41 0 -103 -18v77q77 26 146 26q93 0 147 -43q60 -48 60 -126
q0 -90 -75 -131q-49 -27 -148 -28v-92h-74z" />
    <glyph glyph-name="uni1EA4" unicode="&#x1ea4;" horiz-adv-x="1134" 
d="M743 1657l229 228h170l-315 -263h-49l126 -126h-110l-227 188l-227 -188h-109l260 262h152zM522 1377h90l473 -1377h-122l-134 388h-524l-135 -388h-121zM795 490l-228 720l-229 -720h457z" />
    <glyph glyph-name="uni1EA5" unicode="&#x1ea5;" horiz-adv-x="949" 
d="M649 1313l168 224h170l-270 -262h-37l106 -130h-110l-193 199l-193 -199h-109l226 279h152zM244 727h-111q13 115 82 182q90 87 263 87q145 0 233 -69q53 -42 69 -99.5t16 -204.5v-355l-1 -78q0 -110 26 -190h-106q-18 59 -25 137q-89 -161 -286 -161q-126 0 -207 65
q-97 77 -97 213q0 207 228 291q140 52 362 86v51q0 108 -37 152q-53 65 -178 65q-201 0 -231 -172zM690 546q-215 -42 -318 -87q-160 -69 -160 -201q0 -83 55.5 -134t144.5 -51q156 0 231 123q47 75 47 240v110z" />
    <glyph glyph-name="uni1EA6" unicode="&#x1ea6;" horiz-adv-x="1134" 
d="M879 1618l-316 262h170l265 -262h-119zM491 1758h152l261 -262h-110l-227 188l-227 -188h-109zM522 1377h90l473 -1377h-122l-134 388h-524l-135 -388h-121zM795 490l-228 720l-229 -720h457z" />
    <glyph glyph-name="uni1EA7" unicode="&#x1ea7;" horiz-adv-x="949" 
d="M733 1324l-270 263h171l196 -263h-97zM407 1424h152l227 -279h-110l-193 199l-193 -199h-109zM244 727h-111q13 115 82 182q90 87 263 87q145 0 233 -69q53 -42 69 -99.5t16 -204.5v-355l-1 -78q0 -110 26 -190h-106q-18 59 -25 137q-89 -161 -286 -161q-126 0 -207 65
q-97 77 -97 213q0 207 228 291q140 52 362 86v51q0 108 -37 152q-53 65 -178 65q-201 0 -231 -172zM690 546q-215 -42 -318 -87q-160 -69 -160 -201q0 -83 55.5 -134t144.5 -51q156 0 231 123q47 75 47 240v110z" />
    <glyph glyph-name="uni1EA8" unicode="&#x1ea8;" horiz-adv-x="1134" 
d="M763 1638v109q82 3 116 18q51 22 51 75q0 44 -32.5 70t-87.5 26q-40 0 -103 -18v77q77 26 146 26q93 0 147 -43q60 -48 60 -126q0 -90 -75 -131q-49 -27 -148 -28v-92h-38l104 -105h-109l-227 188l-227 -188h-110l261 262h152zM522 1377h90l473 -1377h-122l-134 388h-524
l-135 -388h-121zM795 490l-228 720l-229 -720h457z" />
    <glyph glyph-name="uni1EA9" unicode="&#x1ea9;" horiz-adv-x="949" 
d="M664 1295v102q82 2 116 17q51 23 51 76q0 43 -32.5 69.5t-87.5 26.5q-41 0 -103 -19v78q78 26 146 26q93 0 147 -43q60 -48 60 -127q0 -89 -75 -130q-49 -27 -148 -28v-92h-38l85 -106h-109l-193 199l-193 -199h-109l226 279h152zM244 727h-111q13 115 82 182
q90 87 263 87q145 0 233 -69q53 -42 69 -99.5t16 -204.5v-355l-1 -78q0 -110 26 -190h-106q-18 59 -25 137q-89 -161 -286 -161q-126 0 -207 65q-97 77 -97 213q0 207 228 291q140 52 362 86v51q0 108 -37 152q-53 65 -178 65q-201 0 -231 -172zM690 546q-215 -42 -318 -87
q-160 -69 -160 -201q0 -83 55.5 -134t144.5 -51q156 0 231 123q47 75 47 240v110z" />
    <glyph glyph-name="uni1EAA" unicode="&#x1eaa;" horiz-adv-x="1134" 
d="M522 1377h90l473 -1377h-122l-134 388h-524l-135 -388h-121zM795 490l-228 720l-229 -720h457zM231 1496l260 262h152l261 -262h-110l-227 188l-227 -188h-109zM319 1783l-79 34q15 65 36 104q46 89 145 89q68 0 156 -59q64 -43 88.5 -54.5t52.5 -11.5q83 0 98 131
l78 -35q-8 -66 -29 -104q-22 -43 -63.5 -68.5t-87.5 -25.5q-38 0 -75 15.5t-101 59.5q-72 49 -116 49q-75 0 -103 -124z" />
    <glyph glyph-name="uni1EAB" unicode="&#x1eab;" horiz-adv-x="949" 
d="M244 727h-111q13 115 82 182q90 87 263 87q145 0 233 -69q53 -42 69 -99.5t16 -204.5v-355l-1 -78q0 -110 26 -190h-106q-18 59 -25 137q-89 -161 -286 -161q-126 0 -207 65q-97 77 -97 213q0 207 228 291q140 52 362 86v51q0 108 -37 152q-53 65 -178 65
q-201 0 -231 -172zM690 546q-215 -42 -318 -87q-160 -69 -160 -201q0 -83 55.5 -134t144.5 -51q156 0 231 123q47 75 47 240v110zM181 1145l226 279h152l227 -279h-110l-193 199l-193 -199h-109zM249 1471l-76 17q35 211 170 211q62 0 140 -60q86 -66 126 -66q71 0 88 131
l80 -18q-10 -88 -45 -144q-45 -73 -121 -73q-65 0 -152 66q-80 61 -119 61q-66 0 -91 -125z" />
    <glyph glyph-name="uni1EAC" unicode="&#x1eac;" horiz-adv-x="1134" 
d="M522 1377h90l473 -1377h-122l-134 388h-524l-135 -388h-121zM795 490l-228 720l-229 -720h457zM231 1496l260 262h152l261 -262h-110l-227 188l-227 -188h-109zM568 -161q48 0 82 -34.5t34 -82.5q0 -49 -34 -83t-83 -34q-48 0 -82.5 34t-34.5 83t34.5 83t83.5 34z" />
    <glyph glyph-name="uni1EAD" unicode="&#x1ead;" horiz-adv-x="949" 
d="M244 727h-111q13 115 82 182q90 87 263 87q145 0 233 -69q53 -42 69 -99.5t16 -204.5v-355l-1 -78q0 -110 26 -190h-106q-18 59 -25 137q-89 -161 -286 -161q-126 0 -207 65q-97 77 -97 213q0 207 228 291q140 52 362 86v51q0 108 -37 152q-53 65 -178 65
q-201 0 -231 -172zM690 546q-215 -42 -318 -87q-160 -69 -160 -201q0 -83 55.5 -134t144.5 -51q156 0 231 123q47 75 47 240v110zM181 1145l226 279h152l227 -279h-110l-193 199l-193 -199h-109zM476 -161q48 0 82 -34.5t34 -82.5q0 -49 -34 -83t-83 -34q-48 0 -82.5 34
t-34.5 83t34.5 83t83.5 34z" />
    <glyph glyph-name="uni1EAE" unicode="&#x1eae;" horiz-adv-x="1134" 
d="M522 1377h90l473 -1377h-122l-134 388h-524l-135 -388h-121zM795 490l-228 720l-229 -720h457zM296 1761h77q18 -75 70.5 -119t125.5 -44q72 0 123 43.5t69 119.5h77q-8 -70 -33 -122q-72 -145 -235 -145q-113 0 -186.5 72t-87.5 195zM490 1721l264 262h171l-316 -262
h-119z" />
    <glyph glyph-name="uni1EAF" unicode="&#x1eaf;" horiz-adv-x="949" 
d="M244 727h-111q13 115 82 182q90 87 263 87q145 0 233 -69q53 -42 69 -99.5t16 -204.5v-355l-1 -78q0 -110 26 -190h-106q-18 59 -25 137q-89 -161 -286 -161q-126 0 -207 65q-97 77 -97 213q0 207 228 291q140 52 362 86v51q0 108 -37 152q-53 65 -178 65
q-201 0 -231 -172zM690 546q-215 -42 -318 -87q-160 -69 -160 -201q0 -83 55.5 -134t144.5 -51q156 0 231 123q47 75 47 240v110zM237 1409h78q16 -77 60.5 -121.5t106.5 -44.5t105.5 43.5t59.5 122.5h78q-7 -71 -30 -124q-62 -146 -211 -146q-101 0 -168.5 73.5
t-78.5 196.5zM421 1377l196 262h170l-270 -262h-96z" />
    <glyph glyph-name="uni1EB0" unicode="&#x1eb0;" horiz-adv-x="1134" 
d="M522 1377h90l473 -1377h-122l-134 388h-524l-135 -388h-121zM795 490l-228 720l-229 -720h457zM296 1761h77q18 -75 70.5 -119t125.5 -44q72 0 123 43.5t69 119.5h77q-8 -70 -33 -122q-72 -145 -235 -145q-113 0 -186.5 72t-87.5 195zM655 1701h-119l-315 262h170z" />
    <glyph glyph-name="uni1EB1" unicode="&#x1eb1;" horiz-adv-x="949" 
d="M244 727h-111q13 115 82 182q90 87 263 87q145 0 233 -69q53 -42 69 -99.5t16 -204.5v-355l-1 -78q0 -110 26 -190h-106q-18 59 -25 137q-89 -161 -286 -161q-126 0 -207 65q-97 77 -97 213q0 207 228 291q140 52 362 86v51q0 108 -37 152q-53 65 -178 65
q-201 0 -231 -172zM690 546q-215 -42 -318 -87q-160 -69 -160 -201q0 -83 55.5 -134t144.5 -51q156 0 231 123q47 75 47 240v110zM237 1409h78q16 -77 60.5 -121.5t106.5 -44.5t105.5 43.5t59.5 122.5h78q-7 -71 -30 -124q-62 -146 -211 -146q-101 0 -168.5 73.5
t-78.5 196.5zM582 1372h-96l-270 262h170z" />
    <glyph glyph-name="uni1EB2" unicode="&#x1eb2;" horiz-adv-x="1134" 
d="M522 1377h90l473 -1377h-122l-134 388h-524l-135 -388h-121zM795 490l-228 720l-229 -720h457zM313 1761h76q18 -75 70.5 -119t125.5 -44q72 0 123.5 43.5t69.5 119.5h77q-8 -70 -33 -122q-72 -145 -235 -145q-113 0 -187 72t-87 195zM537 1693v146q82 3 116 18
q51 22 51 75q0 44 -33 70t-87 26q-40 0 -103 -18v77q77 26 146 26q93 0 147 -43q60 -48 60 -126q0 -90 -75 -131q-49 -27 -148 -28v-92h-74z" />
    <glyph glyph-name="uni1EB3" unicode="&#x1eb3;" horiz-adv-x="949" 
d="M244 727h-111q13 115 82 182q90 87 263 87q145 0 233 -69q53 -42 69 -99.5t16 -204.5v-355l-1 -78q0 -110 26 -190h-106q-18 59 -25 137q-89 -161 -286 -161q-126 0 -207 65q-97 77 -97 213q0 207 228 291q140 52 362 86v51q0 108 -37 152q-53 65 -178 65
q-201 0 -231 -172zM690 546q-215 -42 -318 -87q-160 -69 -160 -201q0 -83 55.5 -134t144.5 -51q156 0 231 123q47 75 47 240v110zM237 1409h78q16 -77 60.5 -121.5t106.5 -44.5t105.5 43.5t59.5 122.5h78q-7 -71 -30 -124q-62 -146 -211 -146q-101 0 -168.5 73.5
t-78.5 196.5zM455 1391v146q82 3 116 18q51 22 51 75q0 44 -32.5 70t-87.5 26q-40 0 -103 -18v77q77 26 146 26q93 0 147 -43q60 -48 60 -126q0 -90 -75 -131q-49 -27 -148 -28v-92h-74z" />
    <glyph glyph-name="uni1EB4" unicode="&#x1eb4;" horiz-adv-x="1134" 
d="M522 1377h90l473 -1377h-122l-134 388h-524l-135 -388h-121zM795 490l-228 720l-229 -720h457zM296 1761h77q18 -75 70.5 -119t125.5 -44q72 0 123 43.5t69 119.5h77q-8 -70 -33 -122q-72 -145 -235 -145q-113 0 -186.5 72t-87.5 195zM319 1797l-79 34q15 65 36 104
q46 89 145 89q68 0 156 -59q64 -43 88.5 -54.5t52.5 -11.5q83 0 98 131l78 -35q-8 -66 -29 -104q-22 -43 -63.5 -68.5t-87.5 -25.5q-38 0 -75 16t-101 59q-73 49 -116 49q-75 0 -103 -124z" />
    <glyph glyph-name="uni1EB5" unicode="&#x1eb5;" horiz-adv-x="949" 
d="M244 727h-111q13 115 82 182q90 87 263 87q145 0 233 -69q53 -42 69 -99.5t16 -204.5v-355l-1 -78q0 -110 26 -190h-106q-18 59 -25 137q-89 -161 -286 -161q-126 0 -207 65q-97 77 -97 213q0 207 228 291q140 52 362 86v51q0 108 -37 152q-53 65 -178 65
q-201 0 -231 -172zM690 546q-215 -42 -318 -87q-160 -69 -160 -201q0 -83 55.5 -134t144.5 -51q156 0 231 123q47 75 47 240v110zM237 1409h78q16 -77 60.5 -121.5t106.5 -44.5t105.5 43.5t59.5 122.5h78q-7 -71 -30 -124q-62 -146 -211 -146q-101 0 -168.5 73.5
t-78.5 196.5zM249 1471l-76 17q36 211 170 211q62 0 140 -60q86 -66 126 -66q71 0 88 131l80 -18q-10 -89 -45 -144q-45 -73 -121 -73q-65 0 -152 66q-80 61 -119 61q-66 0 -91 -125z" />
    <glyph glyph-name="uni1EB6" unicode="&#x1eb6;" horiz-adv-x="1134" 
d="M522 1377h90l473 -1377h-122l-134 388h-524l-135 -388h-121zM795 490l-228 720l-229 -720h457zM296 1761h77q18 -75 70.5 -119t125.5 -44q72 0 123 43.5t69 119.5h77q-8 -70 -33 -122q-72 -145 -235 -145q-113 0 -186.5 72t-87.5 195zM568 -161q48 0 82 -34.5t34 -82.5
q0 -49 -34 -83t-83 -34q-48 0 -82.5 34t-34.5 83t34.5 83t83.5 34z" />
    <glyph glyph-name="uni1EB7" unicode="&#x1eb7;" horiz-adv-x="949" 
d="M244 727h-111q13 115 82 182q90 87 263 87q145 0 233 -69q53 -42 69 -99.5t16 -204.5v-355l-1 -78q0 -110 26 -190h-106q-18 59 -25 137q-89 -161 -286 -161q-126 0 -207 65q-97 77 -97 213q0 207 228 291q140 52 362 86v51q0 108 -37 152q-53 65 -178 65
q-201 0 -231 -172zM690 546q-215 -42 -318 -87q-160 -69 -160 -201q0 -83 55.5 -134t144.5 -51q156 0 231 123q47 75 47 240v110zM237 1409h78q16 -77 60.5 -121.5t106.5 -44.5t105.5 43.5t59.5 122.5h78q-7 -71 -30 -124q-62 -146 -211 -146q-101 0 -168.5 73.5
t-78.5 196.5zM476 -161q48 0 82 -34.5t34 -82.5q0 -49 -34 -83t-83 -34q-48 0 -82.5 34t-34.5 83t34.5 83t83.5 34z" />
    <glyph glyph-name="uni1EB8" unicode="&#x1eb8;" horiz-adv-x="1004" 
d="M296 758h558v-102h-558v-554h608v-102h-724v1365h715v-102h-599v-505zM556 -197q48 0 82 -34.5t34 -82.5q0 -49 -34 -83t-83 -34q-48 0 -82.5 34t-34.5 83t34.5 83t83.5 34z" />
    <glyph glyph-name="uni1EB9" unicode="&#x1eb9;" horiz-adv-x="975" 
d="M874 472h-662q4 -174 62 -271q77 -129 233 -129q84 0 138.5 36.5t100.5 123.5l103 -19q-90 -237 -341 -237q-186 0 -295 128q-113 131 -113 369q0 276 142 420q101 103 255 103q202 0 306 -176q71 -122 71 -310v-38zM760 561q-8 116 -48 197q-72 141 -219 141
q-115 0 -187.5 -88.5t-89.5 -249.5h544zM500 -183q48 0 82 -34.5t34 -82.5q0 -49 -34 -83t-83 -34q-48 0 -82.5 34t-34.5 83t34.5 83t83.5 34z" />
    <glyph glyph-name="uni1EBA" unicode="&#x1eba;" horiz-adv-x="1004" 
d="M296 758h558v-102h-558v-554h608v-102h-724v1365h715v-102h-599v-505zM498 1492v146q82 3 116 18q51 22 51 75q0 44 -32.5 70t-87.5 26q-41 0 -103 -18v77q77 26 146 26q93 0 147 -43q60 -48 60 -126q0 -90 -75 -131q-49 -27 -148 -28v-92h-74z" />
    <glyph glyph-name="uni1EBB" unicode="&#x1ebb;" horiz-adv-x="975" 
d="M874 472h-662q4 -174 62 -271q77 -129 233 -129q84 0 138.5 36.5t100.5 123.5l103 -19q-90 -237 -341 -237q-186 0 -295 128q-113 131 -113 369q0 276 142 420q101 103 255 103q202 0 306 -176q71 -122 71 -310v-38zM760 561q-8 116 -48 197q-72 141 -219 141
q-115 0 -187.5 -88.5t-89.5 -249.5h544zM468 1182v146q82 3 116 18q51 22 51 75q0 44 -33 70t-87 26q-40 0 -103 -18v77q78 26 146 26q93 0 147 -43q60 -48 60 -126q0 -90 -75 -131q-49 -27 -148 -28v-92h-74z" />
    <glyph glyph-name="uni1EBC" unicode="&#x1ebc;" horiz-adv-x="1004" 
d="M296 758h558v-102h-558v-554h608v-102h-724v1365h715v-102h-599v-505zM303 1514l-78 34q14 64 35 103q46 89 146 89q68 0 156 -58q64 -43 88.5 -54.5t51.5 -11.5q83 0 99 131l77 -35q-8 -66 -28 -105q-23 -42 -64.5 -67.5t-86.5 -25.5q-38 0 -75 15.5t-102 59.5
q-72 48 -115 48q-76 0 -104 -123z" />
    <glyph glyph-name="uni1EBD" unicode="&#x1ebd;" horiz-adv-x="975" 
d="M874 472h-662q4 -174 62 -271q77 -129 233 -129q84 0 138.5 36.5t100.5 123.5l103 -19q-90 -237 -341 -237q-186 0 -295 128q-113 131 -113 369q0 276 142 420q101 103 255 103q202 0 306 -176q71 -122 71 -310v-38zM760 561q-8 116 -48 197q-72 141 -219 141
q-115 0 -187.5 -88.5t-89.5 -249.5h544zM262 1163l-77 16q36 211 170 211q62 0 140 -60q86 -66 126 -66q72 0 88 131l80 -18q-9 -88 -44 -144q-46 -73 -122 -73q-64 0 -152 66q-80 61 -118 61q-67 0 -91 -124z" />
    <glyph glyph-name="uni1EBE" unicode="&#x1ebe;" horiz-adv-x="1004" 
d="M756 1619l231 230h170l-316 -263h-53l90 -90h-109l-227 188l-227 -188h-109l260 262h152zM296 758h558v-102h-558v-554h608v-102h-724v1365h715v-102h-599v-505z" />
    <glyph glyph-name="uni1EBF" unicode="&#x1ebf;" horiz-adv-x="975" 
d="M698 1284l168 225h170l-269 -262h-40l83 -102h-109l-193 199l-193 -199h-110l227 279h152zM874 472h-662q4 -174 62 -271q77 -129 233 -129q84 0 138.5 36.5t100.5 123.5l103 -19q-90 -237 -341 -237q-186 0 -295 128q-113 131 -113 369q0 276 142 420q101 103 255 103
q202 0 306 -176q71 -122 71 -310v-38zM760 561q-8 116 -48 197q-72 141 -219 141q-115 0 -187.5 -88.5t-89.5 -249.5h544z" />
    <glyph glyph-name="uni1EC0" unicode="&#x1ec0;" horiz-adv-x="1004" 
d="M863 1614l-315 263h170l264 -263h-119zM466 1758h152l260 -262h-109l-227 188l-227 -188h-109zM296 758h558v-102h-558v-554h608v-102h-724v1365h715v-102h-599v-505z" />
    <glyph glyph-name="uni1EC1" unicode="&#x1ec1;" horiz-adv-x="975" 
d="M771 1288l-269 263h170l196 -263h-97zM432 1424h152l226 -279h-109l-193 199l-193 -199h-110zM874 472h-662q4 -174 62 -271q77 -129 233 -129q84 0 138.5 36.5t100.5 123.5l103 -19q-90 -237 -341 -237q-186 0 -295 128q-113 131 -113 369q0 276 142 420
q101 103 255 103q202 0 306 -176q71 -122 71 -310v-38zM760 561q-8 116 -48 197q-72 141 -219 141q-115 0 -187.5 -88.5t-89.5 -249.5h544z" />
    <glyph glyph-name="uni1EC2" unicode="&#x1ec2;" horiz-adv-x="1004" 
d="M740 1635v102q82 3 116 18q51 22 51 75q0 44 -32.5 70t-87.5 26q-40 0 -103 -18v77q77 26 146 26q93 0 147 -43q60 -48 60 -126q0 -90 -75 -131q-49 -27 -148 -28v-92h-30l94 -95h-109l-228 188l-227 -188h-109l261 262h151zM296 758h558v-102h-558v-554h608v-102h-724
v1365h715v-102h-599v-505z" />
    <glyph glyph-name="uni1EC3" unicode="&#x1ec3;" horiz-adv-x="975" 
d="M699 1282v95q82 2 116 17q51 23 51 76q0 43 -32.5 69.5t-87.5 26.5q-40 0 -103 -19v78q78 26 146 26q93 0 147 -43q60 -48 60 -127q0 -89 -75 -130q-49 -27 -148 -28v-93h-33l70 -85h-109l-193 199l-193 -199h-110l227 279h152zM874 472h-662q4 -174 62 -271
q77 -129 233 -129q84 0 138.5 36.5t100.5 123.5l103 -19q-90 -237 -341 -237q-186 0 -295 128q-113 131 -113 369q0 276 142 420q101 103 255 103q202 0 306 -176q71 -122 71 -310v-38zM760 561q-8 116 -48 197q-72 141 -219 141q-115 0 -187.5 -88.5t-89.5 -249.5h544z" />
    <glyph glyph-name="uni1EC4" unicode="&#x1ec4;" horiz-adv-x="1004" 
d="M296 758h558v-102h-558v-554h608v-102h-724v1365h715v-102h-599v-505zM206 1496l260 262h152l260 -262h-109l-227 188l-227 -188h-109zM303 1793l-78 34q15 65 35 104q46 89 146 89q68 0 156 -59q64 -43 88.5 -54.5t51.5 -11.5q83 0 99 131l77 -35q-8 -66 -28 -105
q-23 -42 -64.5 -67.5t-86.5 -25.5q-38 0 -75 15.5t-102 59.5q-72 49 -115 49q-75 0 -104 -124z" />
    <glyph glyph-name="uni1EC5" unicode="&#x1ec5;" horiz-adv-x="975" 
d="M874 472h-662q4 -174 62 -271q77 -129 233 -129q84 0 138.5 36.5t100.5 123.5l103 -19q-90 -237 -341 -237q-186 0 -295 128q-113 131 -113 369q0 276 142 420q101 103 255 103q202 0 306 -176q71 -122 71 -310v-38zM760 561q-8 116 -48 197q-72 141 -219 141
q-115 0 -187.5 -88.5t-89.5 -249.5h544zM205 1145l227 279h152l226 -279h-109l-193 199l-193 -199h-110zM280 1456l-76 16q35 211 170 211q62 0 139 -60q87 -66 127 -66q71 0 88 131l80 -18q-10 -88 -45 -144q-45 -73 -121 -73q-65 0 -152 66q-80 61 -119 61q-66 0 -91 -124
z" />
    <glyph glyph-name="uni1EC6" unicode="&#x1ec6;" horiz-adv-x="1004" 
d="M296 758h558v-102h-558v-554h608v-102h-724v1365h715v-102h-599v-505zM206 1496l260 262h152l260 -262h-109l-227 188l-227 -188h-109zM503 -161q48 0 82 -34.5t34 -82.5q0 -49 -34 -83t-83 -34q-48 0 -82.5 34t-34.5 83t34.5 83t83.5 34z" />
    <glyph glyph-name="uni1EC7" unicode="&#x1ec7;" horiz-adv-x="975" 
d="M874 472h-662q4 -174 62 -271q77 -129 233 -129q84 0 138.5 36.5t100.5 123.5l103 -19q-90 -237 -341 -237q-186 0 -295 128q-113 131 -113 369q0 276 142 420q101 103 255 103q202 0 306 -176q71 -122 71 -310v-38zM760 561q-8 116 -48 197q-72 141 -219 141
q-115 0 -187.5 -88.5t-89.5 -249.5h544zM205 1145l227 279h152l226 -279h-109l-193 199l-193 -199h-110zM488 -161q48 0 82 -34.5t34 -82.5q0 -49 -34 -83t-83 -34t-83 34t-34 83t34.5 83t83.5 34z" />
    <glyph glyph-name="uni1EC8" unicode="&#x1ec8;" horiz-adv-x="476" 
d="M299 0h-122v1365h122v-1365zM201 1494v146q82 3 116 18q51 22 51 75q0 44 -33 70t-87 26q-40 0 -103 -18v77q77 26 146 26q93 0 147 -43q60 -48 60 -127q0 -89 -75 -130q-49 -27 -148 -28v-92h-74z" />
    <glyph glyph-name="uni1EC9" unicode="&#x1ec9;" horiz-adv-x="424" 
d="M153 969h117v-969h-117v969zM175 1179v146q82 3 116 18q51 22 51 75q0 44 -33 70t-87 26q-40 0 -103 -18v77q78 26 146 26q93 0 147 -43q60 -48 60 -126q0 -90 -75 -131q-49 -27 -148 -28v-92h-74z" />
    <glyph glyph-name="uni1ECA" unicode="&#x1eca;" horiz-adv-x="474" 
d="M299 0h-122v1365h122v-1365zM247 -161q48 0 82 -34.5t34 -82.5q0 -49 -34 -83t-83 -34q-48 0 -82.5 34t-34.5 83t34.5 83t83.5 34z" />
    <glyph glyph-name="uni1ECB" unicode="&#x1ecb;" horiz-adv-x="415" 
d="M150 969h117v-969h-117v969zM209 1380q38 0 64 -26t26 -65q0 -38 -25.5 -63.5t-64.5 -25.5t-65 25t-26 63q0 39 26 65.5t65 26.5zM210 -161q48 0 82 -34.5t34 -82.5q0 -49 -34 -83t-83 -34q-48 0 -82.5 34t-34.5 83t34.5 83t83.5 34z" />
    <glyph glyph-name="uni1ECC" unicode="&#x1ecc;" horiz-adv-x="1305" 
d="M653 1388q154 0 278 -90q136 -99 204 -287q54 -148 54 -328q0 -312 -156 -516q-75 -98 -184 -148q-91 -42 -195 -42q-238 0 -382 190q-156 204 -156 525q0 204 74 369q79 178 224 263q108 64 239 64zM653 1283q-183 0 -293 -166q-117 -177 -117 -427q0 -264 117 -442
q110 -166 293 -166t292 166q117 179 117 435q0 260 -117 434q-112 166 -292 166zM645 -161q48 0 82 -34.5t34 -82.5q0 -49 -34 -83t-83 -34q-48 0 -82.5 34t-34.5 83t34.5 83t83.5 34z" />
    <glyph glyph-name="uni1ECD" unicode="&#x1ecd;" horiz-adv-x="1010" 
d="M505 996q168 0 277 -122q128 -145 128 -389q0 -243 -128 -388q-108 -121 -276 -121q-170 0 -278 121q-128 145 -128 395q0 238 128 382q110 122 277 122zM506 899q-126 0 -202 -99q-92 -121 -92 -310q0 -199 92 -319q76 -98 202 -98t201 98q92 120 92 314q0 196 -92 315
q-77 99 -201 99zM513 -161q48 0 82 -34.5t34 -82.5q0 -49 -34 -83t-83 -34q-48 0 -82.5 34t-34.5 83t34.5 83t83.5 34z" />
    <glyph glyph-name="uni1ECE" unicode="&#x1ece;" horiz-adv-x="1305" 
d="M653 1388q154 0 278 -90q136 -99 204 -287q54 -148 54 -328q0 -312 -156 -516q-75 -98 -184 -148q-91 -42 -195 -42q-238 0 -382 190q-156 204 -156 525q0 204 74 369q79 178 224 263q108 64 239 64zM653 1283q-183 0 -293 -166q-117 -177 -117 -427q0 -264 117 -442
q110 -166 293 -166t292 166q117 179 117 435q0 260 -117 434q-112 166 -292 166zM608 1505v146q82 3 116 18q51 22 51 75q0 44 -33 70t-87 26q-40 0 -103 -18v77q77 26 146 26q93 0 147 -43q60 -48 60 -126q0 -90 -75 -131q-49 -27 -148 -28v-92h-74z" />
    <glyph glyph-name="uni1ECF" unicode="&#x1ecf;" horiz-adv-x="1010" 
d="M505 996q168 0 277 -122q128 -145 128 -389q0 -243 -128 -388q-108 -121 -276 -121q-170 0 -278 121q-128 145 -128 395q0 238 128 382q110 122 277 122zM506 899q-126 0 -202 -99q-92 -121 -92 -310q0 -199 92 -319q76 -98 202 -98t201 98q92 120 92 314q0 196 -92 315
q-77 99 -201 99zM477 1182v146q82 3 116 18q51 22 51 75q0 44 -33 70t-87 26q-40 0 -103 -18v77q78 26 146 26q93 0 147 -43q60 -48 60 -126q0 -90 -75 -131q-49 -27 -148 -28v-92h-74z" />
    <glyph glyph-name="uni1ED0" unicode="&#x1ed0;" horiz-adv-x="1305" 
d="M848 1638l235 233h171l-316 -262h-61l112 -113h-109l-228 188l-227 -188h-109l261 262h151zM653 1388q153 0 279 -90q139 -99 205 -286q52 -146 52 -329q0 -319 -154 -518q-74 -96 -186 -146q-92 -42 -189 -42q-161 0 -287 89q-137 98 -205 287q-52 145 -52 332
q0 320 154 515q149 188 383 188zM652 1283q-123 0 -223 -82q-102 -84 -150 -248q-36 -121 -36 -270q0 -267 112 -437q51 -78 134 -123q76 -41 158 -41q130 0 230 82q100 83 149 248q36 120 36 273q0 268 -112 434q-53 79 -134 123q-77 41 -164 41z" />
    <glyph glyph-name="uni1ED1" unicode="&#x1ed1;" horiz-adv-x="1010" 
d="M683 1298l170 227h170l-270 -262h-41l96 -118h-110l-193 199l-193 -199h-109l226 279h152zM506 996q167 0 276 -122q128 -145 128 -389q0 -243 -128 -388q-108 -121 -277 -121t-277 121q-128 145 -128 380q0 253 128 397q110 122 278 122zM506 899q-126 0 -202 -99
q-92 -121 -92 -310q0 -199 92 -319q76 -98 202 -98t201 98q92 120 92 314q0 196 -92 315q-77 99 -201 99z" />
    </font>
</defs>
</svg>
