<svg width="29" height="32" viewBox="0 0 29 32" fill="none" xmlns="http://www.w3.org/2000/svg">
<g clip-path="url(#clip0_100_302)">
<path d="M23.5044 0.000103205C24.364 0.314827 24.7019 0.945111 24.6279 1.82751C24.6265 1.93062 24.6307 2.03372 24.6405 2.13638C25.2934 2.13638 25.9296 2.13638 26.5665 2.13638C27.306 2.14223 27.9388 2.39768 28.4279 2.96201C28.7721 3.34733 28.9706 3.83965 28.9892 4.35448C28.9943 4.46885 28.9968 4.58322 28.9968 4.69843C28.9968 12.9469 28.9982 21.1962 29.001 29.4464C29.001 30.1084 28.8565 30.7061 28.406 31.2062C28.181 31.4623 27.9019 31.6661 27.5886 31.803C27.2754 31.94 26.9356 32.0067 26.5934 31.9984H2.49596C1.26151 31.9984 0.323698 31.2797 0.0648745 30.1451C0.0463253 30.0744 0.0356067 30.0019 0.032931 29.9289C0.0262083 28.8353 0.017814 27.7426 0.0211753 26.649C0.0211753 26.3584 0.200165 26.1881 0.460669 26.1781C0.721174 26.1681 0.919482 26.3376 0.953936 26.6356C0.959825 26.7081 0.961513 26.7808 0.958983 26.8535C0.958983 27.1557 0.953941 27.4579 0.958983 27.7601C0.979991 28.6041 1.5699 29.1843 2.42368 29.1851C8.50604 29.1851 14.5884 29.1851 20.6708 29.1851C21.3623 29.1851 21.8027 28.7368 21.8052 28.0423C21.8052 27.0639 21.8052 26.0846 21.8052 25.1054C21.8052 23.8348 22.6455 22.995 23.9321 22.985C24.8968 22.9775 25.8649 22.985 26.8262 22.985C27.6313 22.985 28.0497 22.5676 28.0497 21.7712C28.0497 17.8859 28.0497 14.0007 28.0497 10.1155V9.78159H26.0044C25.8472 9.78159 25.6884 9.78743 25.5329 9.7724C25.2632 9.74569 25.0674 9.53782 25.0917 9.2974C25.1203 9.02108 25.2859 8.85746 25.5674 8.85078C26.0287 8.83992 26.4918 8.84576 26.9514 8.84493H28.0287C28.0371 8.71804 28.0481 8.62705 28.0489 8.53689C28.0489 7.22373 28.0531 5.9114 28.0489 4.59908C28.0447 3.65657 27.4657 3.0839 26.5153 3.07972C25.2674 3.07972 24.0195 3.07972 22.7716 3.07972H22.496C22.496 3.5923 22.4783 4.0815 22.5044 4.56151C22.5161 4.79192 22.7018 4.9088 22.9346 4.9472C23.3002 5.00814 23.4834 5.21517 23.4388 5.49566C23.3943 5.77616 23.143 5.91892 22.7842 5.87634C22.4533 5.83372 22.1482 5.6763 21.9228 5.4319C21.6974 5.1875 21.5661 4.87184 21.5523 4.54064C21.5355 4.0648 21.5523 3.58812 21.5523 3.09558H5.34637C5.34637 3.58645 5.32705 4.07231 5.35479 4.55483C5.36739 4.78106 5.54891 4.90545 5.78337 4.94469C6.15984 5.0073 6.3279 5.19514 6.28252 5.48982C6.23714 5.78451 6.00185 5.91725 5.63631 5.87384C4.93631 5.79035 4.40605 5.19514 4.38756 4.44965C4.37579 4.0047 4.38756 3.55891 4.38756 3.12063C3.5926 3.12063 2.82789 3.07639 2.07159 3.13482C1.51108 3.17907 1.00353 3.70165 0.991768 4.24178C0.958154 5.75946 0.979991 7.27799 0.979991 8.84327H23.3439C23.4799 8.83837 23.6162 8.84395 23.7514 8.85996C23.86 8.87672 23.959 8.9315 24.0304 9.0144C24.1019 9.0973 24.1412 9.20286 24.1412 9.31201C24.1412 9.42117 24.1019 9.52672 24.0304 9.60962C23.959 9.69252 23.86 9.74729 23.7514 9.76406C23.6162 9.7798 23.4799 9.78511 23.3439 9.77992H0.957301V10.1973C0.957301 14.9574 0.957301 19.7175 0.957301 24.4776C0.962056 24.6127 0.951923 24.7479 0.92706 24.8808C0.909639 24.986 0.8524 25.0805 0.767097 25.145C0.681793 25.2096 0.574886 25.2393 0.46824 25.2281C0.355926 25.2318 0.246615 25.1916 0.1637 25.1163C0.080785 25.0409 0.0308443 24.9364 0.02454 24.8249C0.0148727 24.7214 0.0114954 24.6174 0.0144461 24.5135C0.0144461 17.9093 0.0312602 11.3051 0.00100809 4.70176C-0.00571459 3.23165 1.06319 2.07377 2.60605 2.13555C3.18084 2.15892 3.75814 2.13555 4.40436 2.13555C4.28503 1.17217 4.48253 0.359071 5.51026 -0.000732422H6.32874C7.38336 0.333192 7.5758 1.14463 7.46236 2.11802H21.5422C21.5337 1.95924 21.5337 1.80013 21.5422 1.64135C21.5716 1.37588 21.5817 1.09955 21.6691 0.850771C21.8371 0.382442 22.2422 0.161221 22.685 -0.000732422L23.5044 0.000103205ZM28.0531 24.6162C27.9186 24.7406 27.8413 24.8065 27.7699 24.8775C26.2934 26.3426 24.8102 27.7993 23.3472 29.2786C22.7674 29.863 22.0976 30.1351 21.2691 30.1335C15.1559 30.1229 9.04245 30.1229 2.92873 30.1335C2.24973 30.1335 1.58419 30.1176 0.953095 29.6618C0.965519 29.7922 0.985457 29.9218 1.01278 30.05C1.19681 30.6844 1.73967 31.0668 2.46236 31.0668H26.5296C27.464 31.0668 28.0422 30.4983 28.0514 29.5733C28.0573 28.8128 28.0514 28.0523 28.0514 27.2926L28.0531 24.6162ZM22.7506 28.3971L27.2523 23.9241H26.4758C25.6481 23.9241 24.8195 23.9241 23.9918 23.9241C23.164 23.9241 22.7514 24.3332 22.7506 25.148C22.7481 26.2491 22.7481 27.3519 22.7481 28.3945L22.7506 28.3971ZM5.32284 2.11802H6.52957C6.46655 1.73484 6.70689 1.28822 6.29932 1.04195C6.18513 0.98794 6.06024 0.959922 5.93377 0.959922C5.8073 0.959922 5.68243 0.98794 5.56823 1.04195C5.15479 1.2782 5.38167 1.72649 5.32284 2.11802ZM23.6497 2.12553C23.7413 1.43765 23.6943 1.09871 23.4178 1.02024C23.1901 0.955125 22.859 0.936759 22.685 1.06115C22.3052 1.32578 22.5397 1.75654 22.48 2.12553H23.6497Z" fill="black"/>
<path d="M14.9935 15.2662C14.5095 15.2662 14.0809 15.2662 13.649 15.2662C13.2952 15.2662 13.0893 15.0993 13.0767 14.8229C13.0641 14.5466 13.2851 14.3363 13.6414 14.3321C14.2179 14.3249 14.7943 14.3249 15.3708 14.3321C15.7557 14.3379 15.9313 14.5107 15.9313 14.8947C15.9352 17.7481 15.9352 20.6012 15.9313 23.4541C15.9313 23.8197 15.7439 24.0209 15.4422 24.0126C15.1406 24.0042 14.9901 23.8147 14.9901 23.4282C14.9901 20.8458 14.9901 18.2635 14.9901 15.6811L14.9935 15.2662Z" fill="black"/>
</g>
<defs>
<clipPath id="clip0_100_302">
<rect width="29" height="32" fill="white"/>
</clipPath>
</defs>
</svg>
