<svg width="27" height="30" viewBox="0 0 27 30" fill="none" xmlns="http://www.w3.org/2000/svg">
<g clip-path="url(#clip0_101_308)">
<path d="M13.8573 0.000732422C14.4617 0.167456 14.8883 0.579173 15.3166 1.00107C16.3678 2.03585 17.4279 3.06072 18.497 4.07567C18.624 4.18741 18.7863 4.25215 18.9562 4.25882C20.1729 4.2737 21.3903 4.26509 22.6046 4.26822C23.8736 4.26822 24.6619 5.05096 24.6667 6.29317C24.6667 6.58591 24.6714 6.87943 24.6667 7.17218C24.6619 7.46492 24.4977 7.63165 24.2455 7.64182C23.9933 7.652 23.7926 7.46884 23.7823 7.17844C23.7712 6.86535 23.7823 6.55225 23.7823 6.23916C23.776 5.55504 23.3675 5.14724 22.672 5.14332C20.2672 5.13915 17.8631 5.13915 15.4594 5.14332H4.47237C3.5944 5.14332 3.22401 5.50573 3.22401 6.36439C3.22401 8.73765 3.22401 11.1104 3.22401 13.4826C3.21994 13.5685 3.23504 13.6542 3.2682 13.7338C3.30136 13.8133 3.3518 13.8847 3.41596 13.9429C5.98935 16.4711 8.55904 19.002 11.125 21.5354C11.2725 21.6818 11.3788 21.692 11.5533 21.5926C11.9007 21.3875 12.2576 21.2012 12.6177 21.0141C12.8831 20.8707 13.1804 20.7945 13.4829 20.7923C13.7855 20.7901 14.0839 20.862 14.3514 21.0016C14.7226 21.1848 15.089 21.3781 15.4435 21.591C15.6307 21.7037 15.7409 21.6826 15.894 21.5299C17.021 20.4059 18.1592 19.2913 19.2933 18.1736C20.7209 16.7646 22.1506 15.3586 23.5825 13.9554C23.6502 13.894 23.7034 13.8186 23.738 13.7346C23.7727 13.6505 23.7881 13.5599 23.7831 13.4693C23.7752 12.0823 23.7784 10.6961 23.7792 9.30905C23.7728 9.21185 23.7767 9.11425 23.7911 9.01788C23.8426 8.77758 23.9957 8.63512 24.2503 8.64921C24.3054 8.64778 24.3602 8.65751 24.4113 8.67778C24.4625 8.69806 24.5089 8.72846 24.5477 8.76711C24.5864 8.80575 24.6168 8.85183 24.6369 8.9025C24.6569 8.95316 24.6663 9.00735 24.6643 9.06171C24.6762 9.31532 24.6492 9.57127 24.677 9.82253C24.69 9.97037 24.749 10.1106 24.8459 10.2241C25.3345 10.7219 25.8373 11.2064 26.3441 11.6862C26.558 11.8828 26.727 12.122 26.8401 12.388C26.9532 12.654 27.0077 12.9407 27 13.229C26.9952 18.1603 26.9937 23.0915 26.9952 28.0228C26.9952 29.2164 26.1863 29.9968 24.9768 29.9984C23.473 29.9984 21.9693 29.9984 20.4655 29.9984C20.3768 30.005 20.2875 30.0006 20.1998 29.9851C19.9738 29.9256 19.8422 29.78 19.8517 29.5397C19.8604 29.3143 19.9944 29.1804 20.2086 29.1319C20.3065 29.1173 20.4057 29.1134 20.5044 29.1202C22.0113 29.1202 23.5119 29.1202 25.0156 29.1202C25.5597 29.1202 25.8976 28.8752 26.0649 28.3578C25.9174 28.2795 25.7651 28.1903 25.6121 28.1065C21.8194 26.0479 18.0278 23.9867 14.2372 21.9229C13.7233 21.6419 13.2855 21.6419 12.7668 21.9229C8.92916 24.0217 5.08545 26.109 1.23567 28.1848C1.14129 28.2357 1.04851 28.2905 0.957303 28.3413C0.992913 28.5494 1.09958 28.7392 1.25958 28.8791C1.41958 29.0191 1.62328 29.1008 1.83686 29.1108C1.95424 29.1202 2.07479 29.1155 2.19217 29.1155H21.2745C21.7504 29.1155 21.9669 29.2571 21.9598 29.5648C21.9526 29.8724 21.7472 29.9937 21.284 29.9937H2.08273C0.792331 29.9937 0.00715213 29.2274 0.0055659 27.9586C0.0055659 25.3912 0.0055659 22.8233 0.0055659 20.2549C0.00140126 20.1573 0.00644142 20.0595 0.0206304 19.9629C0.0324261 19.8696 0.0778588 19.7836 0.14864 19.7206C0.219422 19.6577 0.310808 19.622 0.406073 19.6201C0.631318 19.6028 0.796283 19.6983 0.858939 19.9159C0.887753 20.0393 0.899507 20.166 0.89385 20.2924C0.89385 22.5185 0.89385 24.7446 0.89385 26.9708V27.3621L10.4041 22.2054L0.937476 12.8126C0.922406 12.9864 0.897819 13.1429 0.897026 13.2994C0.897026 14.8321 0.897026 16.3652 0.897026 17.8988C0.897026 18.3685 0.747914 18.5821 0.434634 18.5735C0.134043 18.5649 0.00713354 18.3669 0.00634042 17.9012C0.00634042 16.3686 0.0166656 14.8352 0.00159645 13.3026C-0.00474846 12.6341 0.218117 12.0901 0.7154 11.6346C1.21268 11.179 1.68537 10.7141 2.15093 10.235C2.25846 10.1177 2.32151 9.96724 2.32938 9.80922C2.34365 8.63512 2.33494 7.4657 2.33811 6.29394C2.33811 5.05174 3.13122 4.27135 4.40021 4.26822C5.59702 4.26822 6.79462 4.26118 7.99143 4.27292C8.09772 4.27861 8.20397 4.26114 8.30266 4.22178C8.40134 4.18242 8.49004 4.12211 8.56247 4.04514C9.607 3.01897 10.6682 2.01002 11.7119 0.980717C12.1339 0.565083 12.559 0.168238 13.1506 0.000732422H13.8573ZM26.0602 27.3418C26.1704 26.8471 26.1204 13.0349 26.0229 12.8502L16.5959 22.2101L26.0602 27.3418ZM9.75929 4.24004H17.389C16.2787 3.16769 15.2191 2.12665 14.1373 1.1177C13.7487 0.755289 13.1927 0.804605 12.7937 1.17014C12.4479 1.49028 12.1069 1.81668 11.7778 2.15326C11.0901 2.85381 10.4128 3.56297 9.75929 4.24004ZM2.31669 11.363L1.61875 12.0674L2.31669 12.8063V11.363ZM25.3424 12.1206L24.6873 11.4436V12.8165L25.3424 12.1206Z" fill="black"/>
<path d="M13.5314 8.12567H20.1183C20.2271 8.12134 20.336 8.12527 20.4442 8.13741C20.5413 8.15308 20.6301 8.20078 20.6962 8.27271C20.7622 8.34464 20.8016 8.43655 20.8078 8.53342C20.8141 8.63029 20.7869 8.72639 20.7306 8.80602C20.6744 8.88565 20.5924 8.94409 20.4982 8.97181C20.3924 8.99616 20.2839 9.00643 20.1754 9.00234C15.7255 9.00234 11.275 9.00234 6.82409 9.00234C6.7067 9.00234 6.55045 9.02034 6.48066 8.95772C6.34654 8.84582 6.25024 8.69617 6.20466 8.52878C6.16976 8.3284 6.32362 8.18359 6.53141 8.14289C6.64873 8.12572 6.76749 8.11996 6.88595 8.12567H13.5314Z" fill="black"/>
<path d="M13.5319 11.4851H20.1195C20.2181 11.4792 20.3171 11.4816 20.4153 11.4921C20.6604 11.5321 20.8119 11.6729 20.8119 11.9266C20.8119 12.1802 20.6612 12.3179 20.4153 12.3586C20.3267 12.3669 20.2377 12.3684 20.1488 12.3633H6.85227C6.77296 12.3633 6.69365 12.368 6.61434 12.3633C6.49934 12.3607 6.3901 12.3131 6.31057 12.2311C6.23103 12.1491 6.18769 12.0393 6.19003 11.9258C6.19003 11.6909 6.35737 11.5141 6.61751 11.4906C6.70634 11.482 6.79597 11.4906 6.8848 11.4906L13.5319 11.4851Z" fill="black"/>
<path d="M13.5011 14.85H20.1172C20.2258 14.8456 20.3346 14.8503 20.4424 14.864C20.6804 14.9047 20.8096 15.0503 20.8088 15.2891C20.8132 15.3407 20.8071 15.3926 20.7909 15.4419C20.7747 15.4912 20.7489 15.5368 20.7147 15.5761C20.6805 15.6154 20.6388 15.6476 20.5919 15.6709C20.5451 15.6942 20.494 15.7081 20.4416 15.7117C20.3339 15.726 20.2251 15.7312 20.1165 15.7274H6.88414C6.77549 15.7312 6.66671 15.726 6.55895 15.7117C6.50668 15.7079 6.45569 15.6939 6.40895 15.6704C6.3622 15.647 6.32063 15.6147 6.28663 15.5753C6.25263 15.5359 6.22688 15.4903 6.21086 15.441C6.19485 15.3917 6.18888 15.3398 6.19332 15.2883C6.19332 15.0488 6.32419 14.9047 6.55975 14.864C6.66755 14.8503 6.77633 14.8456 6.88493 14.85H13.5011Z" fill="black"/>
</g>
<defs>
<clipPath id="clip0_101_308">
<rect width="27" height="30" fill="white" transform="translate(0 0.000732422)"/>
</clipPath>
</defs>
</svg>
