<svg width="25" height="36" viewBox="0 0 25 36" fill="none" xmlns="http://www.w3.org/2000/svg">
<g clip-path="url(#clip0_101_320)">
<path d="M4.24775 25.8486L4.24772 25.8486C2.91443 28.8462 1.57792 31.8434 0.238232 34.8403C0.110489 35.1261 0.0765395 35.3123 0.116055 35.4616C0.153922 35.6048 0.26565 35.7379 0.494775 35.9002L9.72098 35.9067C9.74245 35.889 9.76383 35.8724 9.78353 35.8569C9.81305 35.8337 9.83965 35.8125 9.86432 35.7897C9.96466 35.6965 10.0341 35.5987 10.0701 35.4942C10.1056 35.3908 10.1107 35.2744 10.0721 35.1388L10.0706 35.1335L10.0707 35.1335C10.0427 35.0095 9.97719 34.9004 9.88622 34.8228C9.79539 34.7453 9.68427 34.7034 9.57049 34.7022L9.56544 34.7022L9.56545 34.7021C9.38109 34.6908 9.19845 34.6929 9.01168 34.6949C8.93697 34.6958 8.8616 34.6966 8.7852 34.6966H1.7021H1.55641L1.60879 34.5607C1.65953 34.429 1.70331 34.3212 1.74936 34.224C2.84184 31.7913 3.92794 29.3539 5.00761 26.9118L5.00774 26.9115C5.06129 26.7914 5.1233 26.6905 5.21567 26.6224C5.31048 26.5526 5.42424 26.5265 5.5619 26.5291C5.56202 26.5291 5.56214 26.5291 5.56226 26.5291L5.56037 26.6291C6.54066 26.6441 7.52269 26.6394 8.50385 26.6291L4.24775 25.8486ZM4.24775 25.8486C4.33532 25.6513 4.43358 25.5193 4.55199 25.4367C4.66902 25.3551 4.81619 25.3146 5.01608 25.3199L5.01616 25.3199C5.64207 25.3357 6.26921 25.3326 6.92108 25.3293C7.19726 25.3279 7.47787 25.3265 7.7647 25.3265H7.95732L7.84649 25.1689L7.53987 24.733C7.53986 24.733 7.53985 24.733 7.53985 24.733C7.14666 24.1736 6.74995 23.6179 6.35346 23.0624C5.48294 21.8429 4.61346 20.6248 3.78453 19.3729M4.24775 25.8486L3.78453 19.3729M3.78453 19.3729C2.73074 17.7783 1.94452 16.0277 1.60225 14.0887L1.60224 14.0887C1.0334 10.8738 1.62891 7.89544 3.37575 5.2438C5.70952 1.70153 8.95128 -0.00877986 12.9831 0.104817C18.3494 0.257275 22.9775 4.93382 23.5333 10.6858L23.5333 10.6859C23.7932 13.3349 23.1779 15.7496 21.982 18.0384C21.0071 19.9043 19.7787 21.5771 18.5451 23.2568C18.4475 23.3897 18.3499 23.5226 18.2523 23.6557L3.78453 19.3729ZM8.82651 26.5925C8.72462 26.5413 8.61163 26.5193 8.49884 26.5291L18.2523 23.6558L17.1629 25.14L17.0579 25.2831L17.2346 25.2988C17.2752 25.3024 17.313 25.3064 17.3488 25.3102C17.4261 25.3184 17.4937 25.3255 17.558 25.3255C17.8294 25.3255 18.1014 25.3271 18.3737 25.3286C18.9195 25.3318 19.4665 25.3349 20.0122 25.3255L20.0128 25.3255C20.1989 25.3212 20.3374 25.3598 20.4478 25.4366C20.5595 25.5142 20.6526 25.6377 20.7342 25.8213C22.0705 28.8327 23.4122 31.8391 24.7595 34.8405L24.7597 34.8408C24.8885 35.1252 24.922 35.3115 24.882 35.4612C24.8436 35.605 24.7311 35.7388 24.5028 35.9011H15.2932C15.2782 35.8852 15.2625 35.8701 15.246 35.8559L15.2462 35.8556L15.2394 35.8507C15.0841 35.7378 14.9898 35.627 14.942 35.5143C14.8951 35.4036 14.8888 35.2813 14.9276 35.136C14.9705 34.9828 15.0423 34.876 15.1404 34.8062C15.2395 34.7358 15.3756 34.6957 15.5599 34.6957H15.5742H15.5886H15.603H15.6174H15.6317H15.6461H15.6605H15.6749H15.6892H15.7036H15.718H15.7324H15.7467H15.7611H15.7755H15.7899H15.8042H15.8186H15.833H15.8474H15.8617H15.8761H15.8905H15.9049H15.9192H15.9336H15.948H15.9624H15.9767H15.9911H16.0055H16.0199H16.0342H16.0486H16.063H16.0774H16.0917H16.1061H16.1205H16.1349H16.1492H16.1636H16.178H16.1924H16.2067H16.2211H16.2355H16.2499H16.2642H16.2786H16.293H16.3074H16.3217H16.3361H16.3505H16.3649H16.3792H16.3936H16.408H16.4223H16.4367H16.4511H16.4655H16.4798H16.4942H16.5086H16.523H16.5373H16.5517H16.5661H16.5805H16.5948H16.6092H16.6236H16.638H16.6523H16.6667H16.6811H16.6955H16.7098H16.7242H16.7386H16.753H16.7673H16.7817H16.7961H16.8105H16.8248H16.8392H16.8536H16.868H16.8823H16.8967H16.9111H16.9255H16.9398H16.9542H16.9686H16.983H16.9973H17.0117H17.0261H17.0405H17.0548H17.0692H17.0836H17.098H17.1123H17.1267H17.1411H17.1554H17.1698H17.1842H17.1986H17.2129H17.2273H17.2417H17.2561H17.2704H17.2848H17.2992H17.3136H17.3279H17.3423H17.3567H17.3711H17.3854H17.3998H17.4142H17.4286H17.4429H17.4573H17.4717H17.4861H17.5004H17.5148H17.5292H17.5436H17.5579H17.5723H17.5867H17.601H17.6154H17.6298H17.6442H17.6585H17.6729H17.6873H17.7017H17.716H17.7304H17.7448H17.7592H17.7735H17.7879H17.8023H17.8167H17.831H17.8454H17.8598H17.8742H17.8885H17.9029H17.9173H17.9317H17.946H17.9604H17.9748H17.9891H18.0035H18.0179H18.0323H18.0466H18.061H18.0754H18.0898H18.1041H18.1185H18.1329H18.1473H18.1616H18.176H18.1904H18.2048H18.2191H18.2335H18.2479H18.2623H18.2766H18.291H18.3054H18.3197H18.3341H18.3485H18.3629H18.3772H18.3916H18.406H18.4204H18.4347H18.4491H18.4635H18.4779H18.4922H18.5066H18.521H18.5354H18.5497H18.5641H18.5785H18.5928H18.6072H18.6216H18.636H18.6503H18.6647H18.6791H18.6935H18.7078H18.7222H18.7366H18.751H18.7653H18.7797H18.7941H18.8085H18.8228H18.8372H18.8516H18.8659H18.8803H18.8947H18.9091H18.9234H18.9378H18.9522H18.9666H18.9809H18.9953H19.0097H19.0241H19.0384H19.0528H19.0672H19.0815H19.0959H19.1103H19.1247H19.139H19.1534H19.1678H19.1822H19.1965H19.2109H19.2253H19.2397H19.254H19.2684H19.2828H19.2971H19.3115H19.3259H19.3403H19.3546H19.369H19.3834H19.3978H19.4121H19.4265H19.4409H19.4553H19.4696H19.484H19.4984H19.5127H19.5271H19.5415H19.5559H19.5702H19.5846H19.599H19.6134H19.6277H19.6421H19.6565H19.6709H19.6852H19.6996H19.714H19.7283H19.7427H19.7571H19.7715H19.7858H19.8002H19.8146H19.829H19.8433H19.8577H19.8721H19.8864H19.9008H19.9152H19.9296H19.9439H19.9583H19.9727H19.9871H20.0014H20.0158H20.0302H20.0446H20.0589H20.0733H20.0877H20.102H20.1164H20.1308H20.1452H20.1595H20.1739H20.1883H20.2027H20.217H20.2314H20.2458H20.2601H20.2745H20.2889H20.3033H20.3176H20.332H20.3464H20.3608H20.3751H20.3895H20.4039H20.4182H20.4326H20.447H20.4614H20.4757H20.4901H20.5045H20.5189H20.5332H20.5476H20.562H20.5763H20.5907H20.6051H20.6195H20.6338H20.6482H20.6626H20.677H20.6913H20.7057H20.7201H20.7344H20.7488H20.7632H20.7776H20.7919H20.8063H20.8207H20.8351H20.8494H20.8638H20.8782H20.8925H20.9069H20.9213H20.9357H20.95H20.9644H20.9788H20.9932H21.0075H21.0219H21.0363H21.0506H21.065H21.0794H21.0938H21.1081H21.1225H21.1369H21.1513H21.1656H21.18H21.1944H21.2087H21.2231H21.2375H21.2519H21.2662H21.2806H21.295H21.3093H21.3237H21.3381H21.3525H21.3668H21.3812H21.3956H21.41H21.4243H21.4387H21.4531H21.4674H21.4818H21.4962H21.5106H21.5249H21.5393H21.5537H21.5681H21.5824H21.5968H21.6112H21.6255H21.6399H21.6543H21.6687H21.683H21.6974H21.7118H21.7261H21.7405H21.7549H21.7693H21.7836H21.798H21.8124H21.8268H21.8411H21.8555H21.8699H21.8842H21.8986H21.913H21.9274H21.9417H21.9561H21.9705H21.9848H21.9992H22.0136H22.028H22.0423H22.0567H22.0711H22.0854H22.0998H22.1142H22.1286H22.1429H22.1573H22.1717H22.1861H22.2004H22.2148H22.2292H22.2435H22.2579H22.2723H22.2867H22.301H22.3154H22.3298H22.3441H22.3585H22.3729H22.3873H22.4016H22.416H22.4304H22.4447H22.4591H22.4735H22.4879H22.5022H22.5166H22.531H22.5454H22.5597H22.5741H22.5885H22.6028H22.6172H22.6316H22.646H22.6603H22.6747H22.6891H22.7034H22.7178H22.7322H22.7466H22.7609H22.7753H22.7897H22.804H22.8184H22.8328H22.8472H22.8615H22.8759H22.8903H22.9046H22.919H23.2947H23.4391L23.3883 34.5605C23.3774 34.5316 23.3684 34.5069 23.3604 34.4852C23.3453 34.4439 23.3341 34.4133 23.3218 34.385L23.3214 34.3839C22.1961 31.8625 21.0717 29.3402 19.9482 26.817C19.9041 26.717 19.8496 26.6399 19.77 26.591C19.6911 26.5425 19.6015 26.5304 19.5067 26.531L19.5065 26.531C19.065 26.5342 18.6221 26.5346 18.1789 26.5351C17.5963 26.5357 17.013 26.5362 16.4315 26.5432V26.5431L16.4277 26.5433C16.2552 26.5519 16.0944 26.6326 15.9789 26.7654L15.9787 26.7653L15.9744 26.771C15.2842 27.6895 14.6074 28.6187 13.9323 29.5456L13.8845 29.6112L13.8843 29.6111L13.8807 29.6169C13.8324 29.6938 13.7885 29.7738 13.7492 29.8564L13.6813 29.9993H13.8396H14.632H14.6335H14.6349H14.6364H14.6379H14.6393H14.6408H14.6423H14.6437H14.6452H14.6467H14.6481H14.6496H14.6511H14.6526H14.654H14.6555H14.657H14.6584H14.6599H14.6614H14.6628H14.6643H14.6658H14.6672H14.6687H14.6702H14.6717H14.6731H14.6746H14.6761H14.6775H14.679H14.6805H14.6819H14.6834H14.6849H14.6863H14.6878H14.6893H14.6908H14.6922H14.6937H14.6952H14.6966H14.6981H14.6996H14.701H14.7025H14.704H14.7054H14.7069H14.7084H14.7099H14.7113H14.7128H14.7143H14.7157H14.7172H14.7187H14.7201H14.7216H14.7231H14.7245H14.726H14.7275H14.729H14.7304H14.7319H14.7334H14.7348H14.7363H14.7378H14.7392H14.7407H14.7422H14.7436H14.7451H14.7466H14.7481H14.7495H14.751H14.7525H14.7539H14.7554H14.7569H14.7583H14.7598H14.7613H14.7627H14.7642H14.7657H14.7672H14.7686H14.7701H14.7716H14.773H14.7745H14.776H14.7774H14.7789H14.7804H14.7818H14.7833H14.7848H14.7863H14.7877H14.7892H14.7907H14.7921H14.7936H14.7951H14.7965H14.798H14.7995H14.8009H14.8024H14.8039H14.8054H14.8068H14.8083H14.8098H14.8112H14.8127H14.8142H14.8156H14.8171H14.8186H14.82H14.8215H14.823H14.8245H14.8259H14.8274H14.8289H14.8303H14.8318H14.8333H14.8347H14.8362H14.8377H14.8391H14.8406H14.8421H14.8435H14.845H14.8465H14.848H14.8494H14.8509H14.8524H14.8538H14.8553H14.8568H14.8582H14.8597H14.8612H14.8626H14.8641H14.8656H14.8671H14.8685H14.87H14.8715H14.8729H14.8744H14.8759H14.8773H14.8788H14.8803H14.8818H14.8832H14.8847H14.8862H14.8876H14.8891H14.8906H14.892H14.8935H14.895H14.8964H14.8979H14.8994H14.9008H14.9023H14.9038H14.9053H14.9067H14.9082H14.9097H14.9111H14.9126H14.9141H14.9155H14.917H14.9185H14.9199H14.9214H14.9229H14.9244H14.9258H14.9273H14.9288H14.9302H14.9317H14.9332H14.9346H14.9361H14.9376H14.939H14.9405H14.942H14.9435H14.9449H14.9464H14.9479H14.9493H14.9508H14.9523H14.9537H14.9552H14.9567H14.9581H14.9596H14.9611H14.9626H14.964H14.9655H14.967H14.9684H14.9699H14.9714H14.9728H14.9743H14.9758H14.9772H14.9787H14.9802H14.9817H14.9831H14.9846H14.9861H14.9875H14.989H14.9905H14.9919H14.9934H14.9949H14.9963H14.9978H14.9993H15.0008H15.0022H15.0037H15.0052H15.0066H15.0081H15.0096H15.011H15.0125H15.014H15.0154H15.0169H15.0184H15.0199H15.0213H15.0228H15.0243H15.0257H15.0272H15.0287H15.0301H15.0316H15.0331H15.0345H15.036H15.0375H15.039H15.0404H15.0419H15.0434H15.0448H15.0463H15.0478H15.0492H15.0507H15.0522H15.0536H15.0551H15.0566H15.0581H15.0595H15.061H15.0625H15.0639H15.0654H15.0669H15.0683H15.0698H15.0713H15.0727H15.0742H15.0757H15.0772H15.0786H15.0801H15.0816H15.083H15.0845H15.086H15.0874H15.0889H15.0904H15.0918H15.0933H15.0948H15.0963H15.0977H15.0992H15.1007H15.1021H15.1036H15.1051H15.1065H15.108H15.1095H15.1109H15.1124H15.1139H15.1154H15.1168H15.1183H15.1198H15.1212H15.1227H15.1242H15.1256H15.1271H15.1286H15.13H15.1315H15.133H15.1345H15.1359H15.1374H15.1389H15.1403H15.1418H15.1433H15.1447H15.1462H15.1477H15.1491H15.1506H15.1521H15.1536H15.155H15.1565H15.158H15.1594H15.1609H15.1624H15.1638H15.1653H15.1668H15.1682H15.1697H15.1712H15.1727H15.1741H15.1756H15.1771H15.1785H15.18H15.1815H15.1829H15.1844H15.1859H15.1873H15.1888H15.1903H15.1918H15.1932H15.1947H15.1962H15.1976H15.1991H15.2006H15.202H15.2035H15.205H15.2064H15.2079H15.2094H15.2109H15.2123H15.2138H15.2153H15.2167H15.2182H15.2197H15.2211H15.2226H15.2241H15.2255H15.227H15.2285H15.23H15.2314H15.2329H15.2344H15.2358H15.2373H15.2388H15.2402H15.2417H15.2432H15.2446H15.2461H15.2476H15.2491H15.2505H15.252H15.2535H15.2549H15.2564H15.2579H15.2593H15.2608H15.2623H15.2637H15.2652H15.2667H15.2682H15.2696H15.2711H15.2726H15.274H15.2755H15.277H15.2784H15.2799H15.2814H15.2828H15.2843H15.2858H15.2873H15.2887H15.2902H15.2917H15.2931H15.2946H15.2961H15.2975H15.299H15.3005H15.3019H15.3034H15.3049H15.3064H15.3078H15.3093H15.3108H15.3122H15.3137H15.3152H15.3166H15.3181H15.3196H15.321H15.3225H15.324H15.3255H15.3269H15.3284H15.3299H15.3313H15.3328H15.3343H15.3357H15.3372H15.3387H15.3401H15.3416H15.3431H15.3446H15.346H15.3475H15.349H15.3504H15.3519H15.3534H15.3548H15.3563H15.3578H15.3592H15.3607H15.3622H15.3637H15.3651H15.3666H15.3681H15.3695H15.371H15.3725H15.3739H15.3754H15.3769H15.3783H15.3798H15.3813H15.3828H15.3842C15.5127 29.9993 15.6255 30.0191 15.7204 30.066C15.8137 30.1121 15.8956 30.1872 15.9597 30.3085C16.0753 30.5284 16.0596 30.7506 15.9586 30.9168C15.8575 31.0829 15.6654 31.202 15.4084 31.2029C14.1149 31.2066 12.8216 31.2054 11.528 31.2041C10.8812 31.2035 10.2342 31.2029 9.58723 31.2029L9.58543 31.2029C9.53566 31.2038 9.48591 31.2012 9.43643 31.1952C9.31402 31.1791 9.19918 31.1177 9.11199 31.0196C9.02458 30.9212 8.97071 30.7922 8.96098 30.6542L8.96089 30.6531C8.95003 30.5203 8.98157 30.388 9.04947 30.2782C9.11658 30.1697 9.21476 30.0901 9.32695 30.0506C9.47528 30.0129 9.62737 29.9956 9.77965 29.9993L9.77965 29.9994L9.78373 29.9993C10.0785 29.9944 10.3728 29.9959 10.6853 29.9976C10.8487 29.9984 11.0171 29.9993 11.1931 29.9993H11.3839L11.2753 29.8424C11.2046 29.7402 11.1519 29.6647 11.1068 29.6002C11.0823 29.5651 11.0601 29.5333 11.0385 29.5022L11.0385 29.5021L11.037 29.5001C10.8675 29.2687 10.698 29.0379 10.5285 28.8071C10.0438 28.147 9.55979 27.488 9.08001 26.8206C9.01609 26.7229 8.92892 26.644 8.82651 26.5925ZM12.4135 29.4363L12.4915 29.542L12.5726 29.4388C12.6024 29.401 12.6296 29.3669 12.6548 29.3352C12.7083 29.2683 12.7531 29.2121 12.7951 29.1539C14.5366 26.7822 16.2778 24.4102 18.0187 22.0379L18.0187 22.0379C19.1727 20.4645 20.3133 18.8715 21.1992 17.0864C22.3021 14.8639 22.8118 12.5105 22.3129 10.0037C21.4969 5.90372 19.2272 3.07498 15.5002 1.81254C13.6399 1.18241 11.8541 1.08418 10.1806 1.51126C8.5072 1.93829 6.95243 2.88884 5.5512 4.3463C2.89557 7.10795 1.95398 10.5283 2.82246 14.4285C3.24313 16.3184 4.14463 17.9765 5.21729 19.5053C6.56463 21.4295 7.94701 23.3269 9.32781 25.2221C9.57906 25.5669 9.83026 25.9117 10.0812 26.2566C10.6931 27.1063 11.313 27.9457 11.9454 28.802C12.1007 29.0123 12.2567 29.2236 12.4135 29.4363Z" fill="black" stroke="white" stroke-width="0.2"/>
<path d="M6.96821 12.0133C6.98152 15.2563 9.46225 17.8982 12.5116 17.8915L12.6113 17.8913V17.8878C13.6661 17.859 14.6911 17.5051 15.5641 16.868C16.4643 16.2111 17.1622 15.2827 17.5706 14.2011C17.9791 13.1195 18.0801 11.9324 17.8612 10.7894C17.6422 9.64641 17.113 8.59793 16.3392 7.77678C15.5654 6.95556 14.5817 6.39849 13.5119 6.17722C12.442 5.95593 11.3353 6.08069 10.3318 6.53533C9.32847 6.98992 8.47415 7.75356 7.87591 8.72858C7.27773 9.70352 6.96212 10.8465 6.96821 12.0133ZM6.96821 12.0133L7.06821 12.0129L6.96821 12.0134C6.96821 12.0134 6.96821 12.0133 6.96821 12.0133ZM12.5111 19.0988C8.8611 19.1052 5.87325 15.935 5.86026 12.0136C5.85869 11.0747 6.02933 10.1449 6.36223 9.27735C6.69514 8.40979 7.18372 7.62179 7.79967 6.95827C8.41562 6.29476 9.14678 5.76879 9.95115 5.41007C10.7555 5.05137 11.6174 4.86684 12.4877 4.86685C16.1544 4.86685 19.1405 8.04464 19.1397 11.9856C19.1388 15.9109 16.1621 19.0914 12.5111 19.0988Z" fill="black" stroke="white" stroke-width="0.2"/>
</g>
<defs>
<clipPath id="clip0_101_320">
<rect width="25" height="36" fill="white"/>
</clipPath>
</defs>
</svg>
