<svg width="25" height="38" viewBox="0 0 25 38" fill="none" xmlns="http://www.w3.org/2000/svg">
<g clip-path="url(#clip0_101_318)">
<path d="M16.2277 0.836426C16.5733 0.91737 16.9276 0.975187 17.2656 1.08408C19.7916 1.89833 21.2808 3.62995 21.7589 6.24232C21.8348 6.65571 21.8991 7.07103 21.9644 7.48635C22.0354 7.93539 21.8809 8.21677 21.5439 8.2688C21.2069 8.32084 20.9783 8.10692 20.8967 7.66462C20.7671 6.95732 20.6807 6.23558 20.4772 5.54466C20.1658 4.51231 19.5361 3.60567 18.6789 2.95514C17.8216 2.30462 16.7809 1.94372 15.7063 1.92435C13.5739 1.89544 11.4405 1.90026 9.30813 1.92435C8.08577 1.93038 6.9052 2.37154 5.97654 3.1693C5.04788 3.96706 4.4314 5.06967 4.23682 6.28086C3.72892 9.33745 3.24502 12.3969 2.75152 15.4564C2.7448 15.5008 2.74287 15.546 2.73519 15.6376L3.48985 15.5181C4.16193 15.4121 4.83401 15.2984 5.51186 15.2011C5.96503 15.1365 6.22713 15.3051 6.26745 15.6559C6.30778 16.0066 6.07544 16.209 5.63187 16.2774C4.73224 16.4172 3.83357 16.5569 2.93778 16.713C2.56085 16.774 2.21745 16.9665 1.96806 17.2566C1.71866 17.5468 1.57927 17.9159 1.57442 18.2991C1.55618 18.8773 1.55618 19.4554 1.57442 20.0336C1.60227 20.9144 2.2321 21.5648 3.11061 21.6438C3.24214 21.6563 3.37463 21.6573 3.50616 21.6573C9.49728 21.6573 15.4881 21.6573 21.4786 21.6573C21.9298 21.6573 22.3638 21.6149 22.7382 21.3268C22.9426 21.1772 23.1092 20.9818 23.2249 20.7561C23.3406 20.5304 23.4021 20.2807 23.4046 20.0269C23.4186 19.4487 23.4186 18.8705 23.4046 18.2923C23.3825 17.4713 22.8775 16.8566 22.0662 16.6879C19.8116 16.2307 17.5257 15.9463 15.2282 15.8371C12.9302 15.7209 10.627 15.7672 8.33555 15.9758C8.25193 15.9837 8.16796 15.9872 8.08399 15.9864C7.73834 15.9864 7.5204 15.7937 7.50792 15.4796C7.49543 15.1654 7.69322 14.9419 8.03406 14.912C8.68982 14.8542 9.34654 14.8031 10.0042 14.7674C12.9248 14.6029 15.8541 14.6997 18.7576 15.0565C19.8848 15.1962 21.0052 15.3909 22.1795 15.5682C22.1017 15.071 22.0268 14.5805 21.9471 14.091C21.7416 12.8229 21.5314 11.5557 21.3307 10.2857C21.2577 9.82215 21.4066 9.55812 21.7416 9.49934C22.0767 9.44056 22.3225 9.67279 22.3993 10.1411C22.7104 12.0491 23.0186 13.958 23.3373 15.865C23.3628 16.001 23.4299 16.1256 23.5293 16.2215C24.0805 16.7197 24.4204 17.3326 24.4617 18.0707C24.5125 18.7906 24.5125 19.5132 24.4617 20.2331C24.3397 21.6419 23.2989 22.6142 21.8828 22.7192C21.7282 22.7308 21.5736 22.7404 21.3682 22.7539C21.4642 23.4043 21.5534 24.0413 21.6485 24.6811L23.1348 34.51C23.2394 35.199 23.345 35.888 23.4468 36.577C23.5428 37.2303 23.1213 37.7449 22.4704 37.7709C22.2908 37.7776 22.1103 37.7776 21.9308 37.7709C21.4709 37.7526 21.1214 37.5136 20.987 37.0704C20.2669 34.6934 19.5542 32.3143 18.8488 29.9328C18.8226 29.8617 18.812 29.7858 18.8177 29.7101C18.8233 29.6345 18.845 29.561 18.8815 29.4946C18.9179 29.4281 18.9681 29.3703 19.0287 29.3251C19.0893 29.2798 19.159 29.2482 19.2328 29.2323C19.5343 29.1542 19.7859 29.3142 19.8963 29.6804C20.4026 31.3571 20.9057 33.035 21.4056 34.7143C21.6015 35.3676 21.7979 36.0213 21.9951 36.6753H22.3791C21.675 32.0171 20.9735 27.3757 20.2746 22.751H17.8234C18.099 23.677 18.3639 24.5703 18.6308 25.4626C18.8027 26.0408 18.9784 26.6113 19.1493 27.1865C19.2943 27.6683 19.182 27.9671 18.821 28.0644C18.4878 28.155 18.2535 27.968 18.1095 27.4862C17.978 27.0497 17.8676 26.6064 17.7139 26.1776C17.6439 26.0069 17.5319 25.8567 17.3885 25.7411C16.7845 25.2285 16.0846 25.0993 15.2944 25.1186C13.33 25.1649 11.3638 25.1504 9.39936 25.1186C8.85312 25.0992 8.31423 25.2496 7.85645 25.5493C7.51082 25.7531 7.2598 26.0861 7.15844 26.4754C6.13784 29.9444 5.09708 33.398 4.06111 36.8584C3.99557 37.0634 3.88387 37.2505 3.73466 37.4052C3.58545 37.5599 3.40275 37.678 3.20071 37.7504C2.99867 37.8229 2.78272 37.8476 2.56963 37.8227C2.35653 37.7979 2.152 37.7241 1.9719 37.6071C1.80509 37.5077 1.67271 37.3593 1.59268 37.182C1.51266 37.0046 1.48887 36.8069 1.52449 36.6155C2.05192 33.1118 2.58156 29.6087 3.11347 26.1063C3.26388 25.1087 3.41496 24.1113 3.56666 23.1143C3.58394 22.9987 3.58488 22.8801 3.59449 22.752C3.27636 22.7433 2.95901 22.7163 2.64398 22.671C1.53793 22.4378 0.66998 21.5609 0.551886 20.4296C0.466435 19.6106 0.498132 18.7742 0.541338 17.9493C0.573981 17.3152 0.907138 16.793 1.35359 16.3449C1.46524 16.228 1.54063 16.081 1.57058 15.9219C2.09672 12.7477 2.61582 9.57162 3.12788 6.39361C3.60794 3.38616 5.56273 1.40304 8.55061 0.900992C8.59478 0.88751 8.63706 0.868401 8.67639 0.844136L16.2277 0.836426ZM4.70631 22.752C4.00222 27.4024 3.30199 32.0345 2.60559 36.6483C2.93202 36.7639 3.00786 36.6146 3.07603 36.3881C4.17312 32.6994 5.27501 29.0123 6.3817 25.3268L7.1498 22.752H4.70631ZM17.1168 24.1791C17.0092 23.8148 16.8787 23.4178 16.7788 23.0131C16.7222 22.7799 16.6041 22.7153 16.3756 22.724C15.8849 22.7404 15.3943 22.7288 14.9037 22.7288C12.8087 22.7288 10.7141 22.7288 8.61974 22.7288C8.49972 22.7288 8.29713 22.7577 8.27409 22.8252C8.10895 23.2868 7.98606 23.7618 7.85549 24.1858C8.20209 24.1367 8.51412 24.0538 8.82615 24.0529C11.2584 24.0413 13.6882 24.0413 16.1154 24.0529C16.4428 24.0557 16.7673 24.1338 17.1187 24.1791H17.1168Z" fill="black"/>
</g>
<defs>
<clipPath id="clip0_101_318">
<rect width="24" height="37" fill="white" transform="translate(0.5 0.836426)"/>
</clipPath>
</defs>
</svg>
